<svg width="56" height="56" viewBox="0 0 56 56" fill="none" xmlns="http://www.w3.org/2000/svg">
<g clip-path="url(#clip0_269_2618)">
<path d="M39 0H17C7.61116 0 0 7.61116 0 17V39C0 48.3888 7.61116 56 17 56H39C48.3888 56 56 48.3888 56 39V17C56 7.61116 48.3888 0 39 0Z" fill="#E3B4FA"/>
<path d="M31.8511 32.0544L40.9306 34.5571C42.2743 34.9274 42.38 36.7802 41.087 37.299L40.5113 37.5301C38.3401 38.4013 36.6106 40.1003 35.709 42.2476L35.3477 43.1081C34.8141 44.3792 32.9651 44.2645 32.5946 42.9374L30.0548 33.8394C29.7514 32.7528 30.7576 31.753 31.8511 32.0544Z" fill="#222222"/>
<path d="M40 27C41.1046 27 42.0137 26.1007 41.8669 25.0059C41.5956 22.9831 40.9133 21.0298 39.8542 19.2689C38.4501 16.9345 36.4369 15.0265 34.0306 13.7497C31.6243 12.4729 28.9157 11.8755 26.1955 12.0216C23.4753 12.1677 20.8463 13.0518 18.5906 14.579C16.3348 16.1062 14.5376 18.2188 13.3917 20.6902C12.2458 23.1615 11.7945 25.8983 12.0863 28.6067C12.3781 31.3151 13.4019 33.8929 15.0479 36.0635C16.2895 37.7008 17.8498 39.0598 19.6271 40.0629C20.589 40.6059 21.7617 40.0958 22.1719 39.0702L26.4971 28.2572C26.8008 27.4979 27.5363 27 28.3541 27H40Z" fill="white"/>
</g>
<defs>
<clipPath id="clip0_269_2618">
<rect width="56" height="56" fill="white"/>
</clipPath>
</defs>
</svg>
