<svg width="56" height="56" viewBox="0 0 56 56" fill="none" xmlns="http://www.w3.org/2000/svg">
<g clip-path="url(#clip0_269_2627)">
<path d="M39 0H17C7.61116 0 0 7.61116 0 17V39C0 48.3888 7.61116 56 17 56H39C48.3888 56 56 48.3888 56 39V17C56 7.61116 48.3888 0 39 0Z" fill="#FFCD9F"/>
<path d="M39.3444 30C37.7399 30 36.7669 30.7884 36.3113 31.288C36.1573 31.4569 35.8427 31.4569 35.6887 31.288C35.2331 30.7884 34.2601 30 32.6556 30C30.6644 30 29 31.6895 29 33.6947C29 37.9252 34.8935 41.3846 35.8651 41.9262C35.9517 41.9745 36.0483 41.9745 36.1349 41.9262C37.1065 41.3846 43 37.9252 43 33.6947C43 31.6895 41.3356 30 39.3444 30Z" fill="#222222"/>
<path d="M23 14H17C15.3431 14 14 15.3431 14 17V23C14 24.6569 15.3431 26 17 26H23C24.6569 26 26 24.6569 26 23V17C26 15.3431 24.6569 14 23 14Z" fill="white"/>
<path d="M23 30H17C15.3431 30 14 31.3431 14 33V39C14 40.6569 15.3431 42 17 42H23C24.6569 42 26 40.6569 26 39V33C26 31.3431 24.6569 30 23 30Z" fill="white"/>
<path d="M39 14H33C31.3431 14 30 15.3431 30 17V23C30 24.6569 31.3431 26 33 26H39C40.6569 26 42 24.6569 42 23V17C42 15.3431 40.6569 14 39 14Z" fill="white"/>
</g>
<defs>
<clipPath id="clip0_269_2627">
<rect width="56" height="56" fill="white"/>
</clipPath>
</defs>
</svg>
