<svg width="144" height="61" viewBox="0 0 144 61" fill="none" xmlns="http://www.w3.org/2000/svg">
<path d="M62.8934 23.4373L57.7368 36.6381L52.6344 23.4373V23.4105H48.6177L48.6448 23.4373L55.9727 41.1097V41.1365H59.5823V41.1097L66.9102 23.4373L66.9373 23.4105L62.8934 23.4373ZM136.471 35.8348C136.471 37.0933 136.118 38.1911 135.385 39.0747C134.679 39.9316 133.729 40.601 132.671 40.9491C131.504 41.3507 130.256 41.5382 129.007 41.5114C125.072 41.5114 122.466 40.0387 121.299 37.1468L121.245 37.0397V37.0129H121.272L124.23 35.4867H124.258V35.5135L124.312 35.6473C124.637 36.5042 125.289 37.2004 126.103 37.6288C127.026 38.084 128.03 38.325 129.034 38.2982C130.147 38.2982 131.07 38.084 131.802 37.6824C132.508 37.2807 132.861 36.6916 132.861 35.8616C132.861 34.5495 131.558 33.7462 128.98 33.4785C128.111 33.3981 127.216 33.2375 126.374 33.0233C125.615 32.8358 124.909 32.5413 124.203 32.1664C123.498 31.7915 122.928 31.2292 122.575 30.5331C122.195 29.8636 122.032 29.0336 122.032 28.0696C122.032 26.9182 122.385 25.9275 123.118 25.0974C123.796 24.2942 124.692 23.7051 125.696 23.3838C126.727 23.0624 127.813 22.875 128.926 22.875C132.4 22.875 134.734 24.0532 135.901 26.4095L135.955 26.5166V26.5434H135.928L133.105 27.9893H133.078V27.9625L133.024 27.8554C132.725 27.3467 132.21 26.9182 131.477 26.5434C130.717 26.1685 129.903 25.9811 129.061 25.9811C127.921 25.9811 127.053 26.1953 126.483 26.5969C125.913 26.9986 125.642 27.5073 125.642 28.1232C125.642 28.3374 125.669 28.5248 125.777 28.7123C125.859 28.8997 125.994 29.0603 126.157 29.1675C126.537 29.462 126.972 29.6762 127.433 29.7833C128.084 29.944 128.709 30.0511 129.36 30.1314C130.174 30.2385 130.88 30.3456 131.504 30.4795C132.155 30.6134 132.807 30.8276 133.404 31.0954C134.001 31.3363 134.544 31.6577 135.032 32.0861C135.494 32.5145 135.846 33.05 136.064 33.6123C136.335 34.3621 136.471 35.1118 136.471 35.8348ZM83.7371 23.4373L83.7643 26.9182H74.0209V30.5866H83.4115V33.9337H74.0209V37.5217H83.7643V41.0562H70.4656V23.4105H83.7371V23.4373ZM112.831 23.4641L109.222 23.4373V23.4641L101.894 41.1365L101.867 41.1633H105.884V41.1365L111.04 27.9357L116.143 41.1365V41.1633H120.159L120.132 41.1365L112.831 23.4641ZM90.9022 37.5485H99.8313V37.7627V41.083H87.3196V23.4373H90.9022V37.5485Z" fill="#222222"/>
<path d="M29.0767 28.5111L23.4827 38.3567L17.8886 28.5111H29.0767ZM34.6708 25.2114H12.2676L23.4827 44.9026L34.6708 25.2114ZM8.5293 18.6387L10.385 21.9116H36.5265L38.3822 18.6387H8.5293Z" fill="#0037C1"/>
</svg>
