<svg width="144" height="61" viewBox="0 0 144 61" fill="none" xmlns="http://www.w3.org/2000/svg">
<path d="M56.8407 14.2109H56.9919C57.0602 23.6146 56.9847 33.0218 57.0314 42.429C57.0098 42.9689 57.071 43.5264 56.9235 44.0557C56.4665 44.585 55.9592 45.0754 55.513 45.6153H55.0669C55.1424 35.6612 55.0776 25.7 55.0992 15.7459C55.7109 15.2695 56.3046 14.7685 56.8407 14.2109Z" fill="#F1444A"/>
<path d="M23.3417 24.6104C25.6625 24.6316 27.9833 24.6175 30.3041 24.621C30.3041 25.0938 30.3041 25.5702 30.3077 26.043C28.9261 26.043 27.5444 26.0465 26.1627 26.0395C26.1591 27.4191 26.0511 28.8129 26.267 30.1856C27.163 30.1538 28.0553 30.1503 28.9512 30.1538C28.9512 30.4749 28.9512 31.1171 28.9548 31.4382C28.0517 31.4382 27.1486 31.4347 26.2454 31.4064C26.0691 32.772 26.1555 34.1482 26.1663 35.5208C27.548 35.5137 28.9261 35.5137 30.3077 35.5172C30.3041 35.9936 30.3041 36.47 30.3005 36.9463C27.9833 36.9569 25.6661 36.9357 23.3525 36.9604C23.3165 32.8426 23.3381 28.7283 23.3417 24.6104Z" fill="#F1444A"/>
<path d="M2.39648 26.9817C2.68074 25.9479 3.37518 24.8822 4.53738 24.6917C5.70318 24.5823 6.95174 24.4588 8.07076 24.8787C9.09983 25.2916 9.3517 26.4701 9.53161 27.4263C9.1718 27.4263 8.45217 27.4263 8.09235 27.4299C7.88366 27.01 7.72174 26.5583 7.43029 26.1878C6.77543 25.8455 6.063 26.1631 5.44412 26.4136C5.44771 27.0276 5.20664 27.7474 5.64921 28.2732C6.69987 29.487 7.85487 30.6127 8.86235 31.8653C10.1325 33.4532 9.5568 36.2902 7.45188 36.883C6.37244 37.0065 5.2714 37.0065 4.19196 36.883C3.08733 36.6677 2.49723 35.5809 2.39648 34.5611V34.1624C2.71672 34.1518 3.35359 34.1271 3.67383 34.1165C3.81056 34.4694 3.94369 34.8258 4.07682 35.1822C4.87921 35.6268 5.73916 35.535 6.52716 35.1151C6.48758 34.54 6.67108 33.8731 6.2429 33.3897C5.02313 31.7277 3.15929 30.5103 2.39648 28.5449V26.9817Z" fill="#F1444A"/>
<path d="M12.2487 36.9739C12.1947 32.849 12.1839 28.7206 12.2523 24.5957C13.1806 24.6204 14.1054 24.6239 15.0337 24.6239C15.0373 26.4164 15.0301 28.2125 15.0409 30.005C15.9404 30.0014 16.8435 30.0014 17.7467 30.0014C17.7467 28.2089 17.7431 26.4164 17.7467 24.6239C18.693 24.6239 19.6429 24.6204 20.5892 24.6062C20.6144 28.7276 20.6468 32.8455 20.5748 36.9633C19.6321 36.9457 18.6858 36.9457 17.7431 36.9422C17.7215 35.0932 17.815 33.2372 17.6783 31.3882C16.8004 31.4729 15.9188 31.5505 15.0373 31.5752C15.0301 33.3642 15.0409 35.1532 15.0301 36.9422C14.1018 36.9422 13.1734 36.9457 12.2487 36.9739Z" fill="#F1444A"/>
<path d="M33.1177 36.9491C33.1249 32.8312 33.0926 28.7169 33.1357 24.6025C34.0893 24.6167 35.0428 24.6237 35.9963 24.6378C36.0107 28.2687 35.9495 31.8997 36.0287 35.5306C37.378 35.5059 38.7273 35.5165 40.0766 35.5094C40.073 35.9893 40.0694 36.4692 40.0622 36.9491C37.7486 36.9455 35.435 36.9455 33.1177 36.9491Z" fill="#F1444A"/>
<path d="M42.8505 36.967C42.8217 32.8456 42.8145 28.7243 42.8541 24.6064C45.1749 24.6382 47.4993 24.6135 49.8201 24.6205C49.8201 24.9769 49.8237 25.6897 49.8237 26.0461C48.4384 26.0425 47.0567 26.0461 45.6751 26.0355C45.6427 27.3587 45.6499 28.6819 45.6571 30.0087C46.6394 29.9981 47.654 29.8993 48.5896 30.2627C48.5824 30.6368 48.5752 31.0108 48.5752 31.3848C47.6289 31.5154 46.5746 31.2507 45.6966 31.5824C45.5851 33.3643 45.6859 35.1569 45.6499 36.9423C44.718 36.9423 43.7824 36.9494 42.8505 36.967Z" fill="#F1444A"/>
<path d="M84.2565 24.645C87.0702 24.6027 89.884 24.6027 92.6977 24.645C92.6977 24.9944 92.7013 25.6895 92.7013 26.0388C91.7694 26.0424 90.8411 26.0459 89.9128 26.0424C89.8948 29.6768 89.9164 33.3148 89.902 36.9492C88.9521 36.9492 87.9986 36.9492 87.0486 36.9492C87.0379 33.3112 87.0666 29.6768 87.0307 26.0424C86.1059 26.0494 85.1776 26.0494 84.2529 26.0071C84.2529 25.6648 84.2529 24.9873 84.2565 24.645Z" fill="#222222"/>
<path d="M140.251 24.6278C141.157 24.6243 142.068 24.6066 142.978 24.5537V24.963C140.78 26.5861 139.232 28.8833 137.322 30.8063C139.258 32.6835 140.74 35.0371 142.978 36.5932V36.9955C141.971 36.9178 140.967 36.9461 139.963 36.9531C138.624 35.3723 137.228 33.8444 135.882 32.2707C135.872 33.8303 135.868 35.3864 135.875 36.9425C134.929 36.9496 133.983 36.9496 133.04 36.9531C133.04 32.8388 133.033 28.728 133.044 24.6172C133.983 24.6207 134.925 24.6207 135.868 24.6243C135.879 26.2509 135.854 27.8741 135.897 29.5008C137.376 27.9023 138.869 26.3144 140.251 24.6278Z" fill="#222222"/>
<path d="M63.369 24.5576C63.9339 24.5859 64.4485 24.8011 64.8119 25.2351C67.0355 27.3382 69.4643 29.2189 71.634 31.3784C71.7455 29.1307 71.6663 26.883 71.6879 24.6388C72.0262 24.6212 72.7026 24.5894 73.0372 24.5753C73.4762 25.9056 73.1524 27.3205 73.1344 28.6826C73.3359 30.4363 73.2064 32.2006 73.2423 33.9613C73.2028 34.9952 73.3971 36.0714 73.0121 37.0665C72.6486 36.9359 72.2313 36.8548 71.9614 36.5584C69.637 34.3812 67.1866 32.3452 64.8371 30.1963C64.8155 32.4511 64.855 34.7094 64.8119 36.9677C64.3261 36.9571 63.844 36.943 63.3618 36.9324C63.3762 32.8075 63.3618 28.6826 63.369 24.5576Z" fill="#222222"/>
<path d="M75.9372 24.6206C78.294 24.6312 80.6472 24.5959 83.004 24.6453C83.004 24.9876 83.0076 25.6757 83.0076 26.0215C81.6079 26.0568 80.2046 26.0462 78.8013 26.0391C78.7905 27.3482 78.8121 28.6538 78.7653 29.9629C79.5821 30.0088 80.3989 29.9876 81.2157 30.0053C81.8382 30.2205 81.5179 30.9333 81.5971 31.4167C80.6616 31.4167 79.726 31.4696 78.7977 31.579C78.7905 32.8916 78.7905 34.2043 78.8013 35.5169C80.2118 35.5134 81.6223 35.5028 83.0291 35.5381C83.0111 35.8909 82.9716 36.5931 82.9536 36.946C80.6148 36.953 78.276 36.946 75.9336 36.9495C75.9408 32.8422 75.9372 28.7314 75.9372 24.6206Z" fill="#222222"/>
<path d="M93.9351 24.6418C94.8922 24.6207 95.8493 24.6171 96.8064 24.6171C96.81 28.2445 96.8028 31.8719 96.81 35.4993C97.7815 35.5487 99.4042 35.7145 99.5878 34.4337C99.7137 31.1662 99.6021 27.8917 99.6417 24.6207C100.592 24.6207 101.538 24.6207 102.488 24.6242C102.491 28.2551 102.477 31.886 102.499 35.5134C103.071 35.5134 103.646 35.5205 104.222 35.5346C104.658 35.2488 105.165 34.9171 105.086 34.3207C105.132 31.0992 105.097 27.8776 105.1 24.6524C106.079 24.6101 107.058 24.596 108.036 24.6595C107.964 27.3024 108.04 29.9453 108 32.5882C107.975 34.6383 106.291 36.4873 104.273 36.9037C102.776 36.9813 101.261 36.9848 99.7641 36.9037C99.6957 36.8296 99.559 36.6849 99.4906 36.6108C97.7383 37.2848 95.7773 36.8155 93.9351 36.9319C93.9459 32.8352 93.9387 28.7385 93.9351 24.6418Z" fill="#222222"/>
<path d="M112.415 24.8393C114.042 24.4723 115.844 24.5076 117.485 24.8146C119.878 25.8308 119.115 28.7772 119.227 30.7955C119.058 32.5351 119.738 34.6064 118.475 36.0672C117.312 37.4151 115.369 36.8294 113.811 36.9529C112.235 37.1999 110.721 35.8449 110.767 34.2959C110.728 32.0623 110.76 29.8287 110.753 27.5951C110.688 26.4589 111.304 25.2698 112.415 24.8393ZM113.632 27.2387C113.606 29.6805 113.56 32.1293 113.657 34.5711C113.858 35.6509 115.366 35.732 116.1 35.0969C116.643 33.1173 116.341 31.0602 116.427 29.0383C116.388 28.1456 116.503 27.0446 115.794 26.3636C115.085 25.6332 113.603 26.2401 113.632 27.2387Z" fill="#222222"/>
<path d="M121.95 36.9464C121.947 32.8356 121.954 28.7284 121.947 24.6176C123.915 24.6423 125.883 24.5858 127.851 24.6387C130.795 24.7622 131.36 29.674 128.679 30.5315C129.391 30.7255 130.294 31.029 130.316 31.897C130.374 33.5837 130.334 35.2704 130.32 36.9571C129.399 36.9465 128.477 36.9429 127.556 36.9711C127.25 35.4433 127.621 33.873 127.337 32.3452C127.218 31.7665 126.552 31.6641 126.117 31.4101C125.707 31.5159 124.721 31.1843 124.771 31.8723C124.739 33.559 124.775 35.2492 124.764 36.9394C123.825 36.9535 122.886 36.9535 121.95 36.9464ZM124.782 26.0325C124.753 27.3593 124.761 28.6825 124.764 30.0092C125.541 29.9528 126.412 30.1611 127.114 29.727C127.628 28.7461 127.51 27.5569 127.225 26.5265C127.035 26.4136 126.646 26.1842 126.455 26.0713C125.898 26.0537 125.336 26.0431 124.782 26.0325Z" fill="#222222"/>
</svg>
