<svg width="37" height="37" viewBox="0 0 37 37" fill="none" xmlns="http://www.w3.org/2000/svg">
<g clip-path="url(#clip0_269_5129)">
<path d="M0.242676 18.1898C0.242676 12.0292 0.242676 8.94897 1.44161 6.59594C2.49622 4.52616 4.179 2.84338 6.24878 1.78877C8.60181 0.589844 11.6821 0.589844 17.8427 0.589844H18.6427C24.8033 0.589844 27.8836 0.589844 30.2366 1.78877C32.3064 2.84338 33.9892 4.52616 35.0438 6.59594C36.2427 8.94897 36.2427 12.0292 36.2427 18.1898V18.9898C36.2427 25.1504 36.2427 28.2307 35.0438 30.5837C33.9892 32.6535 32.3064 34.3363 30.2366 35.3909C27.8836 36.5898 24.8033 36.5898 18.6427 36.5898H17.8427C11.6821 36.5898 8.60181 36.5898 6.24878 35.3909C4.179 34.3363 2.49622 32.6535 1.44161 30.5837C0.242676 28.2307 0.242676 25.1504 0.242676 18.9898V18.1898Z" fill="white"/>
<path fill-rule="evenodd" clip-rule="evenodd" d="M29.6428 11.8635C28.7885 12.2555 27.8832 12.5125 26.9565 12.6262C27.9315 12.0237 28.6625 11.0705 29.0124 9.94528C28.0935 10.5103 27.089 10.9076 26.0421 11.12C25.4003 10.4117 24.5705 9.91981 23.6592 9.70737C22.7479 9.49494 21.7966 9.57169 20.9273 9.92776C20.0581 10.2838 19.3105 10.903 18.7805 11.7058C18.2505 12.5086 17.9622 13.4585 17.9526 14.4337C17.9515 14.8054 17.9921 15.176 18.0736 15.5379C16.2165 15.444 14.3989 14.9447 12.7378 14.0722C11.0768 13.1998 9.60919 11.9736 8.42963 10.4727C7.83163 11.5401 7.64835 12.8064 7.91764 14.0108C8.18693 15.2151 8.88827 16.2657 9.8771 16.9462C9.13493 16.9218 8.40875 16.7144 7.75802 16.3409V16.4004C7.76003 17.5239 8.13522 18.6117 8.81951 19.4785C9.50381 20.3453 10.4549 20.9373 11.5104 21.1535C11.1088 21.2683 10.6941 21.3256 10.2778 21.3238C9.98355 21.324 9.69001 21.2952 9.40101 21.2377C9.7029 22.2038 10.2861 23.0473 11.0691 23.6506C11.8522 24.2538 12.796 24.5867 13.7689 24.6027C11.8004 26.1921 9.31414 26.9132 6.84277 26.6116C8.98496 28.0359 11.4723 28.7914 14.0118 28.789C15.756 28.8091 17.4867 28.4669 19.1033 27.7823C20.7198 27.0977 22.1899 26.0843 23.4281 24.8011C24.6662 23.5178 25.6478 21.9903 26.3157 20.3073C26.9836 18.6243 27.3245 16.8195 27.3186 14.9977C27.3186 14.7871 27.3186 14.5774 27.3063 14.3705C28.2209 13.6857 29.0109 12.8358 29.6393 11.8607" fill="#222222"/>
</g>
<defs>
<clipPath id="clip0_269_5129">
<rect width="36" height="36" fill="white" transform="translate(0.242676 0.589844)"/>
</clipPath>
</defs>
</svg>
