<svg width="37" height="37" viewBox="0 0 37 37" fill="none" xmlns="http://www.w3.org/2000/svg">
<g clip-path="url(#clip0_269_5133)">
<path d="M0.242676 18.1898C0.242676 12.0292 0.242676 8.94897 1.44161 6.59594C2.49622 4.52616 4.179 2.84338 6.24878 1.78877C8.60181 0.589844 11.6821 0.589844 17.8427 0.589844H18.6427C24.8033 0.589844 27.8836 0.589844 30.2366 1.78877C32.3064 2.84338 33.9892 4.52616 35.0438 6.59594C36.2427 8.94897 36.2427 12.0292 36.2427 18.1898V18.9898C36.2427 25.1504 36.2427 28.2307 35.0438 30.5837C33.9892 32.6535 32.3064 34.3363 30.2366 35.3909C27.8836 36.5898 24.8033 36.5898 18.6427 36.5898H17.8427C11.6821 36.5898 8.60181 36.5898 6.24878 35.3909C4.179 34.3363 2.49622 32.6535 1.44161 30.5837C0.242676 28.2307 0.242676 25.1504 0.242676 18.9898V18.1898Z" fill="white"/>
<path d="M18.2427 8.58984C12.7177 8.58984 8.24268 13.0648 8.24268 18.5898C8.24155 20.6891 8.9015 22.7354 10.1289 24.4385C11.3563 26.1415 13.0888 27.4149 15.0807 28.0778C15.5807 28.1648 15.7677 27.8648 15.7677 27.6018C15.7677 27.3648 15.7547 26.5778 15.7547 25.7398C13.2427 26.2028 12.5927 25.1278 12.3927 24.5648C12.2797 24.2768 11.7927 23.3898 11.3677 23.1518C11.0177 22.9648 10.5177 22.5018 11.3547 22.4898C12.1427 22.4768 12.7047 23.2148 12.8927 23.5148C13.7927 25.0268 15.2307 24.6018 15.8047 24.3398C15.8927 23.6898 16.1547 23.2528 16.4427 23.0028C14.2177 22.7528 11.8927 21.8898 11.8927 18.0648C11.8927 16.9768 12.2797 16.0778 12.9177 15.3768C12.8177 15.1268 12.4677 14.1018 13.0177 12.7268C13.0177 12.7268 13.8547 12.4648 15.7677 13.7528C16.5818 13.5269 17.4229 13.4131 18.2677 13.4148C19.1177 13.4148 19.9677 13.5268 20.7677 13.7518C22.6797 12.4518 23.5177 12.7278 23.5177 12.7278C24.0677 14.1028 23.7177 15.1278 23.6177 15.3778C24.2547 16.0778 24.6427 16.9648 24.6427 18.0648C24.6427 21.9028 22.3057 22.7528 20.0807 23.0028C20.4427 23.3148 20.7557 23.9148 20.7557 24.8528C20.7557 26.1898 20.7427 27.2648 20.7427 27.6028C20.7427 27.8648 20.9307 28.1768 21.4307 28.0768C23.4157 27.4066 25.1406 26.1308 26.3626 24.429C27.5846 22.7271 28.2421 20.6849 28.2427 18.5898C28.2427 13.0648 23.7677 8.58984 18.2427 8.58984Z" fill="#222222"/>
</g>
<defs>
<clipPath id="clip0_269_5133">
<rect width="36" height="36" fill="white" transform="translate(0.242676 0.589844)"/>
</clipPath>
</defs>
</svg>
