<svg width="37" height="37" viewBox="0 0 37 37" fill="none" xmlns="http://www.w3.org/2000/svg">
<g clip-path="url(#clip0_269_5137)">
<path d="M0.242676 18.1898C0.242676 12.0292 0.242676 8.94897 1.44161 6.59594C2.49622 4.52616 4.179 2.84338 6.24878 1.78877C8.60181 0.589844 11.6821 0.589844 17.8427 0.589844H18.6427C24.8033 0.589844 27.8836 0.589844 30.2366 1.78877C32.3064 2.84338 33.9892 4.52616 35.0438 6.59594C36.2427 8.94897 36.2427 12.0292 36.2427 18.1898V18.9898C36.2427 25.1504 36.2427 28.2307 35.0438 30.5837C33.9892 32.6535 32.3064 34.3363 30.2366 35.3909C27.8836 36.5898 24.8033 36.5898 18.6427 36.5898H17.8427C11.6821 36.5898 8.60181 36.5898 6.24878 35.3909C4.179 34.3363 2.49622 32.6535 1.44161 30.5837C0.242676 28.2307 0.242676 25.1504 0.242676 18.9898V18.1898Z" fill="white"/>
<path fill-rule="evenodd" clip-rule="evenodd" d="M29.3602 12.4824L29.3642 12.4859C29.3956 12.5107 29.4059 12.5545 29.3842 12.59L22.8339 23.2378L18.1246 15.5827L21.8771 9.48255C22.0117 9.26404 22.2601 9.13867 22.5097 9.13867C22.57 9.13867 22.6301 9.14796 22.6889 9.16304C22.7358 9.17502 22.782 9.18989 22.826 9.21199L29.3442 12.4721L29.3516 12.4758C29.355 12.4775 29.3576 12.48 29.3602 12.4824ZM16.0577 21.1372V14.1933L22.2277 24.2232L16.0577 21.1372ZM23.1547 24.6868L28.2335 27.227C28.8944 27.5577 29.4302 27.3261 29.4302 26.7103V14.4856L23.1547 24.6868ZM8.62053 9.31139L14.9865 12.4955C15.0103 12.5073 15.0253 12.5317 15.0253 12.5581V26.7099C15.0253 27.1626 14.7809 27.4323 14.4324 27.4323C14.3087 27.4323 14.1718 27.3983 14.0281 27.3264L8.42109 24.5221C8.09198 24.3574 7.82275 23.9217 7.82275 23.5536V9.8046C7.82275 9.44254 8.01827 9.22671 8.297 9.22671C8.3961 9.22671 8.50553 9.25398 8.62053 9.31139Z" fill="#222222"/>
</g>
<defs>
<clipPath id="clip0_269_5137">
<rect width="36" height="36" fill="white" transform="translate(0.242676 0.589844)"/>
</clipPath>
</defs>
</svg>
