<svg width="160" height="15" viewBox="0 0 160 15" fill="none" xmlns="http://www.w3.org/2000/svg">
<path d="M11.9698 5.61332H9.55121C9.48224 5.2083 9.35506 4.84949 9.16968 4.53691C8.9843 4.21993 8.75365 3.95138 8.47774 3.73126C8.20183 3.51113 7.88712 3.34604 7.5336 3.23598C7.1844 3.12151 6.80718 3.06428 6.40193 3.06428C5.68197 3.06428 5.04392 3.24919 4.48779 3.61899C3.93165 3.9844 3.49623 4.52151 3.18151 5.23031C2.8668 5.93471 2.70944 6.79539 2.70944 7.81237C2.70944 8.84696 2.8668 9.71865 3.18151 10.4275C3.50054 11.1319 3.93596 11.6646 4.48779 12.0256C5.04392 12.3822 5.67981 12.5605 6.39546 12.5605C6.79209 12.5605 7.16284 12.5076 7.50774 12.402C7.85694 12.2919 8.1695 12.1312 8.44541 11.9199C8.72563 11.7086 8.96059 11.4488 9.15028 11.1407C9.34428 10.8325 9.47792 10.4803 9.55121 10.0841L11.9698 10.0973C11.8792 10.74 11.6831 11.3432 11.3813 11.9067C11.0838 12.4702 10.6937 12.9677 10.2108 13.3991C9.72797 13.8262 9.16321 14.1608 8.51654 14.4029C7.86987 14.6406 7.15207 14.7595 6.36313 14.7595C5.19912 14.7595 4.16014 14.4844 3.24618 13.934C2.33222 13.3837 1.61226 12.5891 1.0863 11.5501C0.560342 10.5111 0.297363 9.26519 0.297363 7.81237C0.297363 6.35514 0.562498 5.10924 1.09277 4.07465C1.62304 3.03566 2.34515 2.24101 3.25911 1.6907C4.17307 1.14039 5.20775 0.865234 6.36313 0.865234C7.10033 0.865234 7.7858 0.970893 8.41954 1.18221C9.05328 1.39353 9.61804 1.70391 10.1138 2.11334C10.6096 2.51837 11.017 3.01585 11.336 3.60579C11.6594 4.19132 11.8706 4.8605 11.9698 5.61332Z" fill="white"/>
<path d="M26.0009 7.81237C26.0009 9.2696 25.7336 10.5177 25.199 11.5567C24.6687 12.5913 23.9445 13.3837 23.0262 13.934C22.1122 14.4844 21.0754 14.7595 19.9157 14.7595C18.756 14.7595 17.717 14.4844 16.7988 13.934C15.8848 13.3793 15.1605 12.5847 14.626 11.5501C14.0957 10.5111 13.8306 9.26519 13.8306 7.81237C13.8306 6.35514 14.0957 5.10924 14.626 4.07465C15.1605 3.03566 15.8848 2.24101 16.7988 1.6907C17.717 1.14039 18.756 0.865234 19.9157 0.865234C21.0754 0.865234 22.1122 1.14039 23.0262 1.6907C23.9445 2.24101 24.6687 3.03566 25.199 4.07465C25.7336 5.10924 26.0009 6.35514 26.0009 7.81237ZM23.5888 7.81237C23.5888 6.78659 23.4314 5.9215 23.1167 5.2171C22.8063 4.5083 22.3752 3.9734 21.8234 3.61239C21.2716 3.24698 20.6357 3.06428 19.9157 3.06428C19.1958 3.06428 18.5599 3.24698 18.008 3.61239C17.4562 3.9734 17.0229 4.5083 16.7082 5.2171C16.3978 5.9215 16.2426 6.78659 16.2426 7.81237C16.2426 8.83815 16.3978 9.70544 16.7082 10.4142C17.0229 11.1186 17.4562 11.6535 18.008 12.019C18.5599 12.38 19.1958 12.5605 19.9157 12.5605C20.6357 12.5605 21.2716 12.38 21.8234 12.019C22.3752 11.6535 22.8063 11.1186 23.1167 10.4142C23.4314 9.70544 23.5888 8.83815 23.5888 7.81237Z" fill="white"/>
<path d="M30.6682 1.05014V14.5746H28.2691V1.05014H30.6682Z" fill="white"/>
<path d="M44.1497 1.05014V14.5746H42.0157L35.7753 5.36238H35.6654V14.5746H33.2662V1.05014H35.4132L41.6471 10.269H41.7635V1.05014H44.1497Z" fill="white"/>
<path d="M51.2808 14.5746V1.05014H53.68V12.5208H59.5129V14.5746H51.2808Z" fill="white"/>
<path d="M63.7939 14.5746H61.2331L65.8956 1.05014H68.8573L73.5263 14.5746H70.9655L67.4282 3.82371H67.3247L63.7939 14.5746ZM63.878 9.2718H70.862V11.2397H63.878V9.2718Z" fill="white"/>
<path d="M83.6192 1.05014H86.0183V9.88595C86.0183 10.8545 85.7942 11.7064 85.3458 12.4416C84.9018 13.1768 84.2766 13.7513 83.4705 14.1652C82.6643 14.5746 81.7223 14.7793 80.6445 14.7793C79.5624 14.7793 78.6183 14.5746 77.8121 14.1652C77.0059 13.7513 76.3808 13.1768 75.9368 12.4416C75.4927 11.7064 75.2707 10.8545 75.2707 9.88595V1.05014H77.6698V9.68123C77.6698 10.2447 77.7905 10.7466 78.032 11.1869C78.2777 11.6271 78.6226 11.9727 79.0666 12.2237C79.5107 12.4702 80.0366 12.5935 80.6445 12.5935C81.2524 12.5935 81.7783 12.4702 82.2224 12.2237C82.6707 11.9727 83.0156 11.6271 83.2571 11.1869C83.4985 10.7466 83.6192 10.2447 83.6192 9.68123V1.05014Z" fill="white"/>
<path d="M99.5095 1.05014V14.5746H97.3755L91.1351 5.36238H91.0252V14.5746H88.626V1.05014H90.773L97.0069 10.269H97.1233V1.05014H99.5095Z" fill="white"/>
<path d="M113.46 5.61332H111.041C110.972 5.2083 110.845 4.84949 110.66 4.53691C110.474 4.21993 110.244 3.95138 109.968 3.73126C109.692 3.51113 109.377 3.34604 109.024 3.23598C108.674 3.12151 108.297 3.06428 107.892 3.06428C107.172 3.06428 106.534 3.24919 105.978 3.61899C105.422 3.9844 104.986 4.52151 104.672 5.23031C104.357 5.93471 104.199 6.79539 104.199 7.81237C104.199 8.84696 104.357 9.71865 104.672 10.4275C104.991 11.1319 105.426 11.6646 105.978 12.0256C106.534 12.3822 107.17 12.5605 107.885 12.5605C108.282 12.5605 108.653 12.5076 108.998 12.402C109.347 12.2919 109.66 12.1312 109.935 11.9199C110.216 11.7086 110.451 11.4488 110.64 11.1407C110.834 10.8325 110.968 10.4803 111.041 10.0841L113.46 10.0973C113.369 10.74 113.173 11.3432 112.871 11.9067C112.574 12.4702 112.184 12.9677 111.701 13.3991C111.218 13.8262 110.653 14.1608 110.007 14.4029C109.36 14.6406 108.642 14.7595 107.853 14.7595C106.689 14.7595 105.65 14.4844 104.736 13.934C103.822 13.3837 103.102 12.5891 102.576 11.5501C102.05 10.5111 101.787 9.26519 101.787 7.81237C101.787 6.35514 102.053 5.10924 102.583 4.07465C103.113 3.03566 103.835 2.24101 104.749 1.6907C105.663 1.14039 106.698 0.865234 107.853 0.865234C108.59 0.865234 109.276 0.970893 109.91 1.18221C110.543 1.39353 111.108 1.70391 111.604 2.11334C112.1 2.51837 112.507 3.01585 112.826 3.60579C113.149 4.19132 113.361 4.8605 113.46 5.61332Z" fill="white"/>
<path d="M115.657 14.5746V1.05014H118.056V6.77558H124.193V1.05014H126.599V14.5746H124.193V8.82935H118.056V14.5746H115.657Z" fill="white"/>
<path d="M131.607 1.05014V14.5746H129.208V1.05014H131.607Z" fill="white"/>
<path d="M145.088 1.05014V14.5746H142.954L136.714 5.36238H136.604V14.5746H134.205V1.05014H136.352L142.586 10.269H142.702V1.05014H145.088Z" fill="white"/>
<path d="M156.575 5.36899C156.467 5.01238 156.318 4.6932 156.129 4.41144C155.943 4.12528 155.719 3.88094 155.456 3.67843C155.197 3.47591 154.9 3.32403 154.564 3.22277C154.227 3.11711 153.861 3.06428 153.464 3.06428C152.753 3.06428 152.119 3.24698 151.563 3.61239C151.007 3.9778 150.569 4.5149 150.25 5.2237C149.936 5.9281 149.778 6.78659 149.778 7.79916C149.778 8.82054 149.936 9.68563 150.25 10.3944C150.565 11.1032 151.003 11.6425 151.563 12.0124C152.124 12.3778 152.775 12.5605 153.516 12.5605C154.189 12.5605 154.771 12.4284 155.262 12.1642C155.758 11.9001 156.139 11.5259 156.407 11.0416C156.674 10.5529 156.808 9.9806 156.808 9.32463L157.351 9.41048H153.755V7.49539H159.129V9.11991C159.129 10.2778 158.888 11.2793 158.405 12.1246C157.922 12.9699 157.258 13.6215 156.413 14.0793C155.568 14.5328 154.598 14.7595 153.503 14.7595C152.283 14.7595 151.212 14.4799 150.289 13.9208C149.371 13.3573 148.653 12.5583 148.136 11.5237C147.623 10.4847 147.366 9.25199 147.366 7.82558C147.366 6.73376 147.517 5.75861 147.819 4.90012C148.125 4.04163 148.552 3.31302 149.099 2.71428C149.647 2.11114 150.289 1.65328 151.026 1.3407C151.764 1.02372 152.566 0.865234 153.432 0.865234C154.165 0.865234 154.848 0.975296 155.482 1.19542C156.116 1.41114 156.678 1.71932 157.17 2.11995C157.666 2.52057 158.073 2.99604 158.392 3.54635C158.711 4.09667 158.92 4.70421 159.019 5.36899H156.575Z" fill="white"/>
</svg>
