<svg width="973" height="277" viewBox="0 0 973 277" fill="none" xmlns="http://www.w3.org/2000/svg">
<path d="M441.114 98.6949C441.114 99.6004 440.867 100.506 440.095 101.143L428.081 114.155C426.685 115.563 424.515 115.697 422.971 114.289C421.574 112.864 421.442 110.684 422.856 109.124L434.852 96.1127C436.266 94.7042 438.435 94.5701 439.963 95.9953C440.736 96.7666 441.114 97.6553 441.114 98.6949ZM416.972 124.718C416.972 125.624 416.726 126.529 415.953 127.166L403.94 140.178C402.543 141.603 400.374 141.721 398.829 140.312C397.432 138.887 397.301 136.707 398.698 135.148L410.711 122.136C412.124 120.728 414.294 120.593 415.822 122.019C416.594 122.79 416.972 123.813 416.972 124.718ZM392.831 150.876C392.831 151.781 392.568 152.67 391.812 153.324L379.799 166.336C378.386 167.744 376.216 167.878 374.688 166.453C373.275 165.045 373.16 162.848 374.556 161.305L386.57 148.294C387.966 146.885 390.152 146.751 391.68 148.16C392.453 148.948 392.831 149.836 392.831 150.876ZM368.69 176.899C368.69 177.805 368.427 178.693 367.654 179.347L355.657 192.359C354.244 193.768 352.075 193.902 350.547 192.493C349.133 191.068 349.002 188.871 350.415 187.329L362.428 174.317C363.825 172.909 365.994 172.774 367.539 174.2C368.295 174.971 368.69 175.994 368.69 176.899ZM292.289 225.475C292.289 227.269 290.875 228.812 289.084 229.08L271.467 230.874C269.544 231.143 267.753 229.583 267.506 227.655C267.243 225.727 268.772 223.916 270.694 223.664L288.328 221.853C290.234 221.602 292.026 223.145 292.289 225.09C292.289 225.207 292.289 225.341 292.289 225.475ZM257.021 229.198C257.021 231.009 255.625 232.551 253.833 232.819L236.2 234.614C234.277 234.865 232.502 233.323 232.239 231.394C231.993 229.332 233.521 227.655 235.427 227.404L253.061 225.593C254.984 225.341 256.775 226.884 257.021 228.812C257.021 228.946 257.021 229.08 257.021 229.198ZM221.886 232.819C221.886 234.614 220.489 236.156 218.698 236.425L201.064 238.219C199.158 238.487 197.367 236.928 197.104 234.999C196.857 232.937 198.385 231.26 200.308 231.009L217.925 229.198C219.848 228.946 221.639 230.489 221.886 232.417C221.886 232.551 221.886 232.685 221.886 232.819ZM186.635 236.542C186.635 238.353 185.222 239.895 183.431 240.147L165.814 241.958C163.891 242.209 162.099 240.667 161.853 238.738C161.59 236.81 163.118 234.999 165.041 234.748L182.675 232.937C184.581 232.685 186.372 234.228 186.635 236.156C186.635 236.29 186.635 236.425 186.635 236.542ZM151.5 240.164C151.5 241.958 150.086 243.501 148.311 243.769L130.678 245.563C128.755 245.831 126.964 244.272 126.717 242.344C126.454 240.415 127.999 238.604 129.906 238.353L147.539 236.542C149.462 236.29 151.237 237.833 151.5 239.761C151.5 240.03 151.5 240.03 151.5 240.164ZM116.233 243.886C116.233 245.697 114.836 247.24 113.044 247.491L95.4109 249.302C93.5046 249.554 91.7133 248.011 91.4503 246.083C91.2038 244.154 92.7322 242.344 94.6549 242.092L112.272 240.281C114.195 240.03 115.986 241.572 116.233 243.5C116.233 243.635 116.233 243.769 116.233 243.886ZM81.1134 247.625C81.1134 249.436 79.7001 250.979 77.9088 251.23L60.2753 253.041C58.369 253.293 56.5777 251.75 56.3147 249.822C56.0682 247.759 57.5966 246.083 59.5193 245.831L77.1529 244.02C79.0592 243.769 80.8505 245.311 81.1134 247.24C81.1134 247.374 81.1134 247.491 81.1134 247.625Z" fill="#FF2E2E"/>
<path d="M618.32 132.062C618.32 132.448 618.32 132.833 618.188 133.219C617.547 135.147 615.51 136.187 613.587 135.533L596.594 129.748C594.688 129.094 593.653 127.032 594.294 125.103C594.934 123.175 596.989 122.136 598.895 122.79L615.888 128.591C617.416 129.094 618.32 130.519 618.32 132.062ZM584.203 120.459C584.203 120.861 584.203 121.247 584.072 121.633C583.431 123.561 581.393 124.584 579.487 123.947L562.494 118.145C560.571 117.508 559.552 115.445 560.193 113.517C560.834 111.572 562.872 110.549 564.795 111.186L581.771 116.988C583.316 117.508 584.203 118.916 584.203 120.459ZM550.103 108.872C550.103 109.258 550.103 109.644 549.971 110.029C549.331 111.958 547.276 112.997 545.37 112.343L528.377 106.558C526.455 105.904 525.436 103.842 526.077 101.914C526.718 99.9855 528.755 98.9459 530.678 99.5999L547.671 105.385C549.199 105.904 550.103 107.33 550.103 108.872ZM515.986 97.2691C515.986 97.6548 515.986 98.0572 515.855 98.4429C515.214 100.371 513.176 101.394 511.253 100.757L494.261 94.9552C492.354 94.318 491.335 92.2556 491.96 90.3273C492.601 88.3823 494.655 87.3595 496.561 87.9966L513.554 93.7982C515.082 94.318 515.986 95.7265 515.986 97.2691Z" fill="#FF2E2E"/>
<path d="M728.689 67.1201C728.689 68.0256 728.311 69.0652 727.539 69.7023L715.789 80.9199C714.392 82.3284 712.091 82.1943 710.678 80.7858C709.281 79.3605 709.412 77.0466 710.809 75.6381L722.56 64.4205C723.973 63.012 726.274 63.1294 727.671 64.5547C728.443 65.326 728.689 66.2314 728.689 67.1201ZM705.32 89.4211C705.32 90.3266 704.926 91.3494 704.17 91.9866L692.42 103.204C691.007 104.613 688.706 104.495 687.309 103.07C685.896 101.662 686.027 99.3308 687.424 97.9223L699.191 86.7048C700.588 85.2963 702.888 85.4304 704.302 86.8389C704.926 87.6102 705.32 88.5157 705.32 89.4211ZM681.804 111.705C681.804 112.611 681.426 113.634 680.653 114.288L668.903 125.488C667.506 126.914 665.205 126.779 663.792 125.354C662.395 123.946 662.527 121.632 663.924 120.207L675.674 109.006C677.087 107.581 679.388 107.715 680.785 109.123C681.557 109.894 681.804 110.8 681.804 111.705Z" fill="#FF2E2E"/>
<path d="M874.853 85.5485C874.853 85.9342 874.853 86.3198 874.721 86.7055C874.08 88.6505 872.042 89.6734 870.251 89.0362L853.636 83.6203C851.73 82.9831 850.695 80.9206 851.336 79.1097C851.977 77.1815 854.031 76.1419 855.806 76.7958L872.42 82.195C873.834 82.5807 874.853 84.0059 874.853 85.5485ZM841.508 74.7334C841.508 75.119 841.508 75.5047 841.377 75.8904C840.736 77.8186 838.698 78.8582 836.907 78.2043L820.292 72.8051C818.386 72.1512 817.351 70.0887 817.991 68.2946C818.632 66.3495 820.687 65.3267 822.461 65.9639L839.076 71.3798C840.489 71.7655 841.508 73.1908 841.508 74.7334ZM808.164 63.9015C808.164 64.2871 808.164 64.6728 808.033 65.0752C807.392 67.0035 805.354 68.0263 803.562 67.3891L786.948 61.9732C785.042 61.336 784.006 59.2736 784.647 57.4627C785.288 55.5344 787.342 54.4948 789.117 55.1487L805.732 60.5647C807.145 60.9504 808.164 62.3588 808.164 63.9015Z" fill="#FF2E2E"/>
<path d="M901.426 6.18652H905.765V92.6406H901.426V6.18652Z" fill="#161517"/>
<mask id="mask0_269_5056" style="mask-type:luminance" maskUnits="userSpaceOnUse" x="898" y="0" width="75" height="45">
<path d="M898.829 0.132812H972.453V44.1312H898.829V0.132812Z" fill="white"/>
</mask>
<g mask="url(#mask0_269_5056)">
<path d="M972.075 40.7106H900.653V0.132812H972.075L948.821 20.3546L972.075 40.7106Z" fill="#FF2E2E"/>
</g>
<path d="M926.208 85.9343C926.208 87.2254 925.304 88.5166 923.907 88.9022C922.248 89.422 920.588 88.3824 920.078 86.7056C918.665 81.558 914.836 77.4331 909.988 75.5048C908.443 74.8509 907.556 73.0568 908.197 71.5141C908.838 69.9547 910.612 69.0661 912.157 69.7032C918.928 72.2855 924.039 78.0871 925.945 85.0289C926.208 85.4313 926.208 85.6828 926.208 85.9343ZM922.889 103.591C922.889 104.228 922.626 104.882 922.248 105.519C917.909 111.455 911.122 114.792 903.842 114.792C898.106 114.792 892.601 112.612 888.262 108.738C886.981 107.581 886.981 105.653 887.999 104.362C889.15 103.071 891.073 102.937 892.354 104.11C895.411 106.944 899.503 108.621 903.727 108.621C909.084 108.621 913.949 106.173 917.268 101.78C918.287 100.371 920.193 100.103 921.607 101.143C922.494 101.78 922.889 102.685 922.889 103.591ZM896.43 74.3479C896.43 75.3707 895.921 76.4103 895.033 76.9133C890.563 79.7471 887.621 84.5259 887.112 89.8077C886.981 91.4844 885.452 92.7588 883.792 92.6414C882.133 92.5073 880.851 90.9646 880.982 89.2879C881.623 82.0778 885.699 75.5048 891.845 71.6315C893.242 70.7428 895.165 71.1285 896.052 72.6711C896.315 73.1909 896.43 73.6939 896.43 74.3479Z" fill="#FF2E2E"/>
<path d="M903.842 101.142C909.216 101.142 913.423 96.7654 913.423 91.4835C913.423 86.0676 909.084 81.8086 903.842 81.8086C898.484 81.8086 894.261 86.2017 894.261 91.4835C894.261 96.8827 898.616 101.142 903.842 101.142Z" fill="#FF2E2E"/>
<path d="M776.858 42.9071C776.858 44.1982 775.97 45.4893 774.557 45.875C772.897 46.378 771.237 45.3552 770.728 43.6784C769.314 38.5308 765.485 34.4059 760.637 32.4776C759.109 31.8237 758.205 30.0296 758.846 28.4702C759.487 26.9275 761.278 26.0221 762.807 26.676C769.446 29.2415 774.688 35.0431 776.611 42.0017C776.858 42.3873 776.858 42.6556 776.858 42.9071ZM773.538 60.5635C773.538 61.2007 773.275 61.8378 772.897 62.4918C768.558 68.4108 761.788 71.7643 754.508 71.7643C748.756 71.7643 743.267 69.5677 738.912 65.7112C737.646 64.5542 737.646 62.6259 738.665 61.3348C739.816 60.0437 741.722 59.9095 743.004 61.0665C746.077 63.9003 750.153 65.577 754.376 65.577C759.733 65.577 764.598 63.1289 767.918 58.7526C768.936 57.3441 770.859 57.0758 772.256 58.1154C773.16 58.6184 773.538 59.658 773.538 60.5635ZM747.096 31.3039C747.096 32.3435 746.586 33.3663 745.683 33.8861C741.213 36.7199 738.271 41.4819 737.761 46.7637C737.646 48.4405 736.102 49.7316 734.442 49.5974C732.782 49.4801 731.5 47.9374 731.632 46.2607C732.273 39.0338 736.365 32.4776 742.494 28.6043C743.891 27.6988 745.814 28.0845 746.718 29.6439C746.964 30.1469 747.096 30.6667 747.096 31.3039Z" fill="#FF2E2E"/>
<path d="M754.507 58.1173C759.865 58.1173 764.088 53.7242 764.088 48.4424C764.088 43.0432 759.733 38.7842 754.507 38.7842C749.133 38.7842 744.926 43.1605 744.926 48.4424C744.926 53.7242 749.265 58.1173 754.507 58.1173Z" fill="#FF2E2E"/>
<path d="M669.675 138.114C669.675 139.405 668.772 140.696 667.375 141.082C665.715 141.602 664.055 140.562 663.546 138.885C662.132 133.738 658.303 129.613 653.455 127.685C651.91 127.031 651.023 125.236 651.664 123.694C652.305 122.134 654.08 121.246 655.624 121.883C662.264 124.465 667.506 130.25 669.413 137.209C669.675 137.594 669.675 137.863 669.675 138.114ZM666.356 155.77C666.356 156.408 666.093 157.061 665.715 157.699C661.376 163.618 654.606 166.971 647.309 166.971C641.574 166.971 636.068 164.791 631.73 160.918C630.448 159.761 630.448 157.833 631.467 156.542C632.617 155.251 634.54 155.116 635.822 156.273C638.878 159.124 642.97 160.784 647.194 160.784C652.551 160.784 657.416 158.336 660.735 153.959C661.754 152.551 663.661 152.283 665.074 153.322C665.961 153.959 666.356 154.865 666.356 155.77ZM639.914 126.528C639.914 127.55 639.388 128.59 638.5 129.093C634.03 131.927 631.089 136.706 630.579 141.987C630.448 143.664 628.919 144.938 627.26 144.821C625.6 144.687 624.318 143.144 624.449 141.468C625.09 134.257 629.182 127.685 635.312 123.811C636.709 122.906 638.632 123.291 639.519 124.851C639.782 125.354 639.914 125.874 639.914 126.528Z" fill="#FF2E2E"/>
<path d="M647.309 153.323C652.683 153.323 656.89 148.947 656.89 143.665C656.89 138.249 652.551 133.99 647.309 133.99C641.952 133.99 637.728 138.367 637.728 143.665C637.728 148.947 642.083 153.323 647.309 153.323Z" fill="#FF2E2E"/>
<path d="M487.244 72.1492C487.244 73.4403 486.34 74.7314 484.943 75.1171C483.283 75.6369 481.623 74.5973 481.114 72.9205C479.7 67.7728 475.871 63.648 471.007 61.7197C469.479 61.0657 468.591 59.2716 469.232 57.729C469.873 56.1696 471.648 55.2809 473.193 55.9181C479.832 58.5003 485.074 64.2851 486.981 71.2437C487.244 71.6294 487.244 71.8977 487.244 72.1492ZM483.924 89.8055C483.924 90.4427 483.661 91.0966 483.283 91.7338C478.928 97.6528 472.157 101.006 464.877 101.006C459.142 101.006 453.636 98.8265 449.298 94.9532C448.016 93.7962 448.016 91.868 449.035 90.5769C450.185 89.2857 452.108 89.1516 453.39 90.3253C456.447 93.1591 460.539 94.8191 464.762 94.8191C470.119 94.8191 474.967 92.371 478.304 87.9946C479.322 86.5861 481.229 86.3179 482.642 87.3575C483.53 87.9946 483.924 88.9001 483.924 89.8055ZM457.465 60.5627C457.465 61.5855 456.956 62.6251 456.069 63.1282C451.599 65.9619 448.657 70.7407 448.147 76.0225C448.016 77.6993 446.488 78.9736 444.828 78.8563C443.168 78.7221 441.886 77.1795 442.018 75.5027C442.658 68.2926 446.734 61.7197 452.88 57.8464C454.277 56.9409 456.2 57.3433 457.087 58.886C457.35 59.389 457.465 60.0429 457.465 60.5627Z" fill="#FF2E2E"/>
<path d="M464.877 87.4755C470.251 87.4755 474.458 83.0992 474.458 77.8174C474.458 72.4014 470.119 68.1592 464.877 68.1592C459.519 68.1592 455.296 72.5355 455.296 77.8174C455.296 83.0992 459.651 87.4755 464.877 87.4755Z" fill="#FF2E2E"/>
<path d="M351.302 214.391C351.302 215.683 350.415 216.957 349.001 217.359C347.342 217.862 345.682 216.84 345.172 215.163C343.775 210.015 339.93 205.89 335.082 203.945C333.554 203.308 332.65 201.497 333.291 199.955C333.931 198.412 335.723 197.506 337.251 198.16C343.89 200.726 349.133 206.527 351.056 213.486C351.187 213.872 351.302 214.123 351.302 214.391ZM347.982 232.031C347.982 232.685 347.736 233.322 347.342 233.976C343.003 239.895 336.232 243.249 328.952 243.249C323.2 243.249 317.711 241.052 313.373 237.196C312.091 236.039 312.091 234.094 313.11 232.819C314.26 231.528 316.183 231.394 317.448 232.551C320.521 235.385 324.614 237.061 328.821 237.061C334.194 237.061 339.042 234.613 342.362 230.237C343.381 228.812 345.304 228.56 346.701 229.583C347.604 230.237 347.982 231.142 347.982 232.031ZM321.54 202.788C321.54 203.828 321.031 204.851 320.143 205.37C315.657 208.204 312.732 212.966 312.222 218.248C312.091 219.925 310.546 221.216 308.886 221.082C307.226 220.964 305.961 219.405 306.076 217.745C306.717 210.518 310.809 203.945 316.939 200.089C318.352 199.183 320.259 199.569 321.162 201.112C321.409 201.631 321.54 202.285 321.54 202.788Z" fill="#FF2E2E"/>
<path d="M328.953 229.582C334.31 229.582 338.533 225.206 338.533 219.924C338.533 214.642 334.195 210.266 328.953 210.266C323.579 210.266 319.372 214.642 319.372 219.924C319.372 225.206 323.579 229.582 328.953 229.582Z" fill="#FF2E2E"/>
<mask id="mask1_269_5056" style="mask-type:luminance" maskUnits="userSpaceOnUse" x="0" y="228" width="50" height="49">
<path d="M0.620117 228.709H49.0014V277H0.620117V228.709Z" fill="white"/>
</mask>
<g mask="url(#mask1_269_5056)">
<path d="M46.2239 248.144C46.2239 249.436 45.3365 250.727 43.9232 251.112C42.2633 251.615 40.6035 250.593 40.0941 248.916C38.6972 243.768 34.8517 239.643 30.0037 237.715C28.4753 237.061 27.5715 235.267 28.2124 233.707C28.8533 232.165 30.6446 231.259 32.173 231.913C38.9437 234.479 44.0546 240.28 45.9774 247.239C46.2239 247.625 46.2239 247.893 46.2239 248.144ZM43.0357 265.801C43.0357 266.438 42.7728 267.075 42.3948 267.729C38.0563 273.648 31.2855 277.002 24.0053 277.002C18.2535 277.002 12.7646 274.805 8.4096 270.948C7.14419 269.791 7.14419 267.846 8.16309 266.572C9.31346 265.281 11.2198 265.147 12.5016 266.304C15.5748 269.138 19.6504 270.814 23.8739 270.814C29.2313 270.814 34.0957 268.366 37.4154 263.99C38.4343 262.565 40.357 262.313 41.7539 263.353C42.5263 263.99 43.0357 264.895 43.0357 265.801ZM16.5937 236.541C16.5937 237.581 16.0842 238.604 15.1803 239.123C10.7103 241.957 7.76868 246.719 7.25923 252.001C7.14419 253.678 5.59941 254.969 3.93959 254.835C2.27977 254.717 0.997926 253.175 1.1294 251.498C1.77032 244.271 5.86235 237.715 11.9922 233.842C13.3891 232.936 15.3118 233.322 16.1992 234.864C16.3307 235.384 16.5937 236.038 16.5937 236.541Z" fill="#FF2E2E"/>
</g>
<path d="M24.0057 263.353C29.3632 263.353 33.5867 258.96 33.5867 253.678C33.5867 248.279 29.2317 244.02 24.0057 244.02C18.6319 244.02 14.4248 248.396 14.4248 253.678C14.2933 259.094 18.6319 263.353 24.0057 263.353Z" fill="#FF2E2E"/>
</svg>
