<svg width="185" height="178" viewBox="0 0 185 178" fill="none" xmlns="http://www.w3.org/2000/svg">
<path d="M128.174 7.3878L92.478 2.88281V29.9194L128.174 25.4122L113.896 16.4L128.174 7.3878Z" fill="#FF8044"/>
<mask id="mask0_269_4817" style="mask-type:luminance" maskUnits="userSpaceOnUse" x="0" y="167" width="185" height="11">
<path d="M0.6875 167.177H184.269V178H0.6875V167.177Z" fill="white"/>
</mask>
<g mask="url(#mask0_269_4817)">
<path d="M0.6875 177.975H184.269L174.07 167.678H10.8865L0.6875 177.975Z" fill="#C7521E"/>
</g>
<path d="M89.9286 8.03261C89.9286 -2.26738 95.0281 -2.26738 95.0281 8.03261C95.0281 33.7815 100.128 54.3814 100.128 54.3814H84.8291C84.8291 54.3814 89.9286 33.7815 89.9286 8.03261Z" fill="#662113"/>
<path d="M143.473 141.928V131.628L123.075 121.648V100.728L112.876 90.4304H112.247C112.247 90.4304 115.981 70.0004 105.227 62.3676V54.3816L100.127 49.2305H84.8289L79.7295 54.3816V62.3676C68.975 70.0004 72.7066 90.4304 72.7066 90.4304H72.0802L61.8813 100.728V121.648L41.4834 131.628V141.928L21.0854 152.226V172.826L163.871 173.016V152.226L143.473 141.928Z" fill="#C7521E"/>
<path d="M101.891 90.4305H83.0648C83.0648 90.4305 79.9286 64.6816 86.2011 64.6816H98.755C105.032 64.6816 101.891 90.4305 101.891 90.4305Z" fill="#662113"/>
<path d="M60.7789 113.485V110.802L59.2894 109.297H58.9684C58.5302 107.057 57.802 102.536 57.802 97.2621C57.802 94.2551 56.3125 94.2551 56.3125 97.2621C56.3125 102.532 55.5821 107.057 55.1438 109.297H54.8229L53.3333 110.802V113.485C50.9629 115.926 51.8393 121.327 51.8393 121.327H62.2685C62.2685 121.327 63.145 115.926 60.7789 113.485ZM131.694 113.485V110.802L130.204 109.297H129.883C129.443 107.057 128.714 102.536 128.714 97.2621C128.714 94.2551 127.225 94.2551 127.225 97.2621C127.225 102.532 126.497 107.057 126.058 109.297H125.735L124.248 110.802V113.485C121.875 115.926 122.758 121.327 122.758 121.327H133.188C133.181 121.327 134.06 115.926 131.694 113.485ZM152.091 134.085V131.402L150.602 129.897H150.281C149.841 127.657 149.112 123.136 149.112 117.862C149.112 114.855 147.623 114.855 147.623 117.862C147.623 123.129 146.895 127.657 146.456 129.897H146.133L144.646 131.402V134.085C142.273 136.524 143.156 141.927 143.156 141.927H153.585C153.579 141.927 154.458 136.524 152.091 134.085ZM172.489 159.833V157.151L171 155.646H170.679C170.238 153.406 169.51 148.885 169.51 143.611C169.51 140.604 168.021 140.604 168.021 143.611C168.021 148.878 167.293 153.406 166.854 155.646H166.531L165.044 157.151V159.833C162.671 162.273 163.554 167.676 163.554 167.676H173.983C173.977 167.676 174.855 162.273 172.489 159.833ZM40.381 134.085V131.402L38.8914 129.897H38.5705C38.1323 127.652 37.4041 123.129 37.4041 117.862C37.4041 114.855 35.9145 114.855 35.9145 117.862C35.9145 123.129 35.1841 127.657 34.7459 129.897H34.4205L32.931 131.402V134.085C30.565 136.524 31.4414 141.927 31.4414 141.927H41.8706C41.8706 141.927 42.747 136.524 40.381 134.085ZM19.9831 159.833V157.151L18.4935 155.646H18.1726C17.7344 153.401 17.0062 148.878 17.0062 143.611C17.0062 140.604 15.5166 140.604 15.5166 143.611C15.5166 148.878 14.7862 153.406 14.348 155.646H14.0226L12.5331 157.151V159.833C10.167 162.273 11.0435 167.676 11.0435 167.676H21.4727C21.4727 167.676 22.3491 162.273 19.9831 159.833Z" fill="#C7521E"/>
<mask id="mask1_269_4817" style="mask-type:luminance" maskUnits="userSpaceOnUse" x="0" y="48" width="185" height="130">
<path d="M0.6875 48.6992H184.269V177.998H0.6875V48.6992Z" fill="white"/>
</mask>
<g mask="url(#mask1_269_4817)">
<path d="M79.7294 54.3806L84.8289 49.2295H100.127L105.227 54.3806H79.7294ZM61.8812 100.727L72.0802 90.4295H112.876L123.075 100.727H61.8812ZM41.4833 131.627L51.6823 121.327H133.274L143.473 131.627H41.4833ZM21.0854 152.225L31.2844 141.927H153.672L163.871 152.225H21.0854ZM0.6875 177.974L10.8865 167.676H174.07L184.269 177.974H0.6875Z" fill="#FF8044"/>
</g>
<path d="M107.776 121.328H77.1796C77.1796 121.328 77.1796 100.728 84.8288 100.728H100.127C107.776 100.728 107.776 121.328 107.776 121.328ZM112.876 141.927H72.0801C72.0801 141.927 72.0801 131.628 82.279 131.628H102.677C112.876 131.628 112.876 141.927 112.876 141.927Z" fill="#662113"/>
<path d="M123.075 167.677H61.8813C61.8813 167.677 61.8813 152.226 77.1798 152.226H107.777C123.075 152.226 123.075 167.677 123.075 167.677Z" fill="#292F33"/>
<mask id="mask2_269_4817" style="mask-type:luminance" maskUnits="userSpaceOnUse" x="56" y="120" width="73" height="58">
<path d="M56.2993 120.816H128.259V178H56.2993V120.816Z" fill="white"/>
</mask>
<g mask="url(#mask2_269_4817)">
<path d="M107.777 131.628H77.1797C74.3643 131.628 72.0802 129.321 72.0802 126.477C72.0802 123.635 74.3643 121.328 77.1797 121.328H107.777C110.592 121.328 112.876 123.635 112.876 126.477C112.876 129.321 110.592 131.628 107.777 131.628ZM112.876 152.226H72.0802C69.2648 152.226 66.9807 149.921 66.9807 147.077C66.9807 144.235 69.2648 141.928 72.0802 141.928H112.876C115.691 141.928 117.975 144.235 117.975 147.077C117.975 149.921 115.691 152.226 112.876 152.226ZM123.075 177.975H61.8812C59.0659 177.975 56.7817 175.67 56.7817 172.826C56.7817 169.984 59.0659 167.677 61.8812 167.677H123.075C125.89 167.677 128.174 169.984 128.174 172.826C128.174 175.67 125.89 177.975 123.075 177.975Z" fill="#FFA06C"/>
</g>
<path d="M107.776 152.226H112.876V167.677H107.776V152.226ZM72.0801 152.226H77.1796V167.677H72.0801V152.226Z" fill="#FF8044"/>
</svg>
