<svg width="1001" height="698" viewBox="0 0 1001 698" fill="none" xmlns="http://www.w3.org/2000/svg">
<g style="mix-blend-mode:lighten">
<path d="M237.102 399.126C199.912 399.126 162.965 399.126 126.017 399.126C125.669 398.2 126.38 397.999 126.88 397.675C129.119 396.208 130.027 394.063 130.375 391.438C130.798 388.258 130.511 385.171 130.057 382.052C129.785 380.215 129.089 378.872 126.925 378.764C125.942 378.718 124.928 378.27 124.005 377.838C122.295 377.02 122.205 375.306 123.808 374.164C124.323 373.793 124.928 373.531 125.518 373.299C132.311 370.783 131.736 369.023 131.6 364.037C131.449 358.788 130.995 353.57 130.647 348.337C130.587 347.426 130.36 346.531 130.208 345.636C129.86 343.644 128.983 342.286 126.819 341.962C125.563 341.792 124.338 341.298 123.158 340.788C122.159 340.356 122.114 338.874 122.961 338.149C124.02 337.253 125.276 337.083 126.577 337.068C130.208 337.053 129.966 336.466 129.921 333.456C129.603 312.075 133.9 291.621 141.45 271.722C147.547 255.667 155.279 240.477 163.646 225.58C164.599 223.882 165.93 222.431 167.065 220.841C168.139 219.359 168.109 218.942 166.732 218.016C165.658 217.306 164.205 216.796 164.478 215.221C164.75 213.678 166.339 213.616 167.519 213.199C168.139 212.999 168.775 212.875 168.926 212.103C169.622 208.491 172.058 206.546 175.462 205.434C173.556 201.621 172.754 198.071 176.612 195.277C176.915 194.289 176.143 193.779 175.84 193.1C174.917 191.016 174.675 188.839 175.144 186.585C175.598 184.378 176.219 182.201 177.595 180.441C178.972 178.681 179.366 176.752 179.35 174.606C179.335 171.055 179.426 167.52 179.411 163.985C179.396 162.441 179.154 162.241 177.641 161.994C176.884 161.886 176.113 161.793 175.341 161.716C171.226 161.299 167.761 162.642 165.053 165.853C164.463 166.548 163.888 167.273 163.388 168.03C161.058 171.565 157.715 173.633 153.841 174.93C152.873 175.27 151.89 175.609 150.876 175.779C146.14 176.551 142.706 179.314 139.892 183.081C139.589 183.498 139.241 183.884 138.893 184.254C138.817 184.331 138.575 184.393 138.53 184.347C138.394 184.193 138.167 183.946 138.212 183.822C139.09 181.645 139.952 179.484 140.905 177.338C143.144 172.321 146.836 168.879 151.905 166.965C152.389 166.779 152.888 166.656 153.372 166.501C156.323 165.498 158.032 163.368 158.577 160.265C158.698 159.632 158.774 158.968 158.91 158.335C159.545 155.124 161.421 152.978 164.357 151.712C166.505 150.786 168.775 150.385 171.09 150.184C171.846 150.122 172.618 150.092 173.389 150.107C175.613 150.184 177.368 149.304 178.776 147.575C179.093 147.174 179.396 146.742 179.774 146.402C180.304 145.893 181.529 146.294 181.65 147.035C181.802 148.069 181.862 149.119 181.862 150.153C181.817 157.872 181.817 165.606 181.635 173.34C181.59 175.579 182.044 177.307 183.602 178.975C185.69 181.213 186.583 184.146 187.006 187.172C187.4 189.889 186.613 192.313 185.085 194.474C188.746 198.194 188.988 199.861 186.643 204.616C186.931 205.28 187.581 205.465 188.156 205.712C190.562 206.731 192.226 208.429 192.877 211.038C193.149 212.165 193.709 212.906 194.934 212.983C195.313 212.999 195.691 213.137 196.039 213.307C197.945 214.156 198.127 215.577 196.523 216.858C196.114 217.182 195.63 217.383 195.207 217.676C194.042 218.494 193.89 219.112 194.768 220.223C200.653 227.602 204.421 236.278 208.748 244.583C214.649 255.914 219.566 267.739 223.621 279.919C229.219 296.792 232.29 314.113 232.094 331.989C232.078 333.286 231.67 334.722 232.351 335.848C233.153 337.145 234.726 336.281 235.906 336.62C236.769 336.867 237.646 337.068 238.478 337.408C239.235 337.716 239.719 338.365 239.643 339.245C239.583 339.939 239.084 340.418 238.448 340.649C237.238 341.051 236.027 341.576 234.787 341.761C233.077 341.993 232.32 343.058 231.972 344.54C231.64 345.929 231.367 347.365 231.261 348.785C230.913 353.756 230.656 358.727 230.369 363.697C230.323 364.469 230.414 365.257 230.369 366.044C230.248 368.884 231.488 370.814 234.03 371.895C234.847 372.25 235.725 372.497 236.527 372.883C237.223 373.207 237.919 373.577 238.509 374.056C239.719 375.059 239.583 376.479 238.297 377.298C237.283 377.931 236.163 378.224 235.029 378.363C233.047 378.625 232.169 379.829 231.927 381.744C231.534 384.862 231.216 387.949 231.64 391.129C232.018 394.093 233.198 396.347 235.846 397.706C236.3 397.937 236.814 398.092 237.102 399.126ZM222.789 372.234C217.917 372.311 213.045 372.404 208.188 372.466C185.478 372.79 162.753 373.099 140.043 373.423C139.407 373.438 138.621 373.068 137.925 374.118C139.907 374.118 141.692 374.148 143.477 374.118C151.557 373.948 159.636 374.009 167.716 373.608C174.373 373.268 181.06 373.485 187.732 373.438C197.627 373.346 207.507 373.268 217.387 373.13C219.157 373.114 220.958 373.268 222.789 372.234ZM137.123 345.512C138.605 346.037 140.028 345.744 141.405 345.728C152.676 345.559 163.948 345.312 175.235 345.157C189.715 344.972 204.194 345.08 218.658 344.432C219.067 344.416 219.611 344.555 219.793 343.613C192.438 344.632 165.143 343.999 137.879 345.08C137.667 345.095 137.471 345.312 137.123 345.512ZM225.89 340.464C225.179 340.402 224.453 340.31 223.742 340.31C187.506 339.908 136.502 340.155 132.387 340.773C132.871 340.943 133.204 341.143 133.537 341.143C164.311 341.159 195.086 341.113 225.89 340.464ZM217.781 378.286C217.221 377.776 216.57 378.054 215.95 378.069C207.492 378.316 199.035 378.27 190.562 377.9C186.219 377.714 181.847 377.498 177.489 377.575C165.567 377.761 153.645 378.085 141.722 378.394C141.132 378.409 140.361 377.977 139.831 378.934C150.694 379.027 161.467 378.996 172.224 378.394C176.43 378.162 180.697 378.178 184.903 378.425C195.418 379.027 205.919 379.135 216.434 378.795C216.918 378.764 217.493 378.919 217.781 378.286ZM193.21 215.746C189.593 215.16 172.678 215.16 168.865 215.901C170.53 215.993 171.407 216.086 172.285 216.086C179.063 216.117 185.856 216.132 192.65 216.117C192.831 216.117 193.013 215.885 193.21 215.746ZM171.922 218.741C174.6 219.328 186.008 219.791 189.76 219.482C188.156 219.158 187.445 218.896 186.704 218.88C182.013 218.741 177.308 218.355 171.922 218.741ZM177.55 212.798C179.441 213.029 180.803 213.184 182.165 213.323C182.24 213.338 182.331 213.153 182.422 213.076C180.47 212.18 180.47 212.211 177.55 212.798Z" fill="#EAEAEA" fill-opacity="0.15"/>
<mask id="mask0_269_2730" style="mask-type:luminance" maskUnits="userSpaceOnUse" x="424" y="0" width="167" height="358">
<path d="M424.365 0.672852H590.915V357.66H424.365V0.672852Z" fill="white"/>
</mask>
<g mask="url(#mask0_269_2730)">
<path d="M585.589 356.148C533.391 356.148 481.51 356.148 429.644 356.148C429.145 354.851 430.144 354.573 430.855 354.11C434.002 352.073 435.288 349.047 435.772 345.357C436.362 340.911 435.938 336.543 435.318 332.174C434.94 329.596 433.941 327.712 430.93 327.574C429.538 327.512 428.116 326.879 426.83 326.277C424.409 325.134 424.303 322.711 426.543 321.105C427.269 320.58 428.116 320.21 428.948 319.901C438.495 316.366 437.663 313.881 437.467 306.872C437.27 299.524 436.65 292.191 436.15 284.859C436.059 283.577 435.742 282.311 435.515 281.046C435.046 278.267 433.805 276.353 430.764 275.905C429.009 275.658 427.284 274.979 425.635 274.269C424.228 273.651 424.167 271.552 425.347 270.564C426.83 269.282 428.616 269.051 430.416 269.035C435.545 269.02 435.197 268.186 435.121 263.972C434.683 233.946 440.704 205.218 451.31 177.291C459.859 154.753 470.722 133.419 482.463 112.501C483.795 110.139 485.671 108.071 487.259 105.863C488.772 103.764 488.742 103.208 486.79 101.896C485.292 100.892 483.25 100.167 483.643 97.9592C484.006 95.798 486.246 95.7054 487.91 95.1342C488.772 94.8255 489.665 94.6711 489.877 93.575C490.86 88.5116 494.264 85.7792 499.046 84.22C496.383 78.8787 495.248 73.877 500.664 69.9714C501.103 68.5666 500.014 67.8719 499.59 66.9148C498.289 63.9817 497.956 60.9252 498.622 57.7605C499.257 54.6731 500.12 51.6165 502.056 49.1465C503.993 46.6611 504.553 43.9596 504.523 40.9339C504.492 35.963 504.628 30.9922 504.598 26.0369C504.598 23.8602 504.25 23.5669 502.117 23.2427C501.043 23.0729 499.968 22.9494 498.894 22.8414C493.099 22.2547 488.258 24.1381 484.445 28.6612C483.628 29.6338 482.826 30.6372 482.115 31.7024C478.847 36.6732 474.142 39.5599 468.71 41.397C467.348 41.8601 465.971 42.3541 464.549 42.5856C457.907 43.6663 453.081 47.5565 449.132 52.8514C448.693 53.4226 448.209 53.9629 447.71 54.4878C447.604 54.6113 447.286 54.6885 447.21 54.6113C447.014 54.4106 446.696 54.0556 446.756 53.8857C447.997 50.8446 449.223 47.788 450.554 44.7777C453.701 37.7229 458.875 32.891 465.987 30.2049C466.667 29.9579 467.363 29.7881 468.044 29.5566C472.22 28.1518 474.58 25.1724 475.382 20.8191C475.534 19.9237 475.639 19.0129 475.821 18.1021C476.714 13.5944 479.346 10.5841 483.477 8.80885C486.503 7.51212 489.68 6.94093 492.918 6.66307C493.992 6.57044 495.081 6.52413 496.171 6.57044C499.272 6.66307 501.754 5.41265 503.721 3.00443C504.175 2.43325 504.598 1.84663 505.128 1.35264C505.869 0.642518 507.594 1.19826 507.745 2.248C507.972 3.68367 508.063 5.16565 508.063 6.61675C508.002 17.4692 507.987 28.337 507.73 39.174C507.654 42.3078 508.305 44.7469 510.499 47.0933C513.434 50.2271 514.675 54.3489 515.28 58.6096C515.825 62.4071 514.72 65.8188 512.602 68.8445C517.731 74.0623 518.079 76.4242 514.781 83.0931C515.189 84.0348 516.097 84.2972 516.899 84.6368C520.273 86.0571 522.603 88.4344 523.511 92.1085C523.919 93.6985 524.691 94.7483 526.416 94.8409C526.945 94.8718 527.475 95.0725 527.974 95.304C530.637 96.4927 530.909 98.4841 528.64 100.275C528.08 100.722 527.399 101.016 526.809 101.433C525.175 102.59 524.948 103.455 526.174 104.999C534.435 115.372 539.73 127.537 545.812 139.208C554.088 155.139 561.003 171.719 566.692 188.808C574.559 212.519 578.856 236.833 578.584 261.919C578.569 263.74 577.979 265.763 578.947 267.337C580.082 269.174 582.275 267.955 583.94 268.433C585.15 268.773 586.391 269.051 587.541 269.529C588.6 269.962 589.296 270.872 589.19 272.107C589.084 273.095 588.388 273.775 587.495 274.083C585.801 274.67 584.121 275.395 582.366 275.627C579.976 275.967 578.917 277.464 578.432 279.533C577.963 281.493 577.57 283.5 577.419 285.507C576.935 292.485 576.556 299.462 576.178 306.44C576.118 307.536 576.223 308.647 576.178 309.743C576.012 313.726 577.752 316.428 581.307 317.956C582.457 318.45 583.683 318.805 584.817 319.33C585.786 319.793 586.769 320.303 587.586 320.982C589.296 322.402 589.099 324.378 587.299 325.536C585.892 326.431 584.303 326.817 582.699 327.033C579.915 327.404 578.69 329.086 578.357 331.757C577.797 336.141 577.358 340.495 577.948 344.941C578.478 349.093 580.142 352.273 583.864 354.172C584.484 354.481 585.196 354.681 585.589 356.148ZM565.511 318.388C558.673 318.496 551.834 318.635 545.01 318.728C513.116 319.16 481.222 319.592 449.328 320.071C448.451 320.086 447.331 319.562 446.348 321.044C449.147 321.044 451.643 321.09 454.14 321.028C465.487 320.797 476.835 320.889 488.182 320.318C497.533 319.839 506.928 320.148 516.294 320.071C530.168 319.963 544.042 319.839 557.916 319.654C560.398 319.623 562.939 319.839 565.511 318.388ZM445.243 280.891C447.316 281.617 449.313 281.2 451.235 281.169C467.076 280.937 482.902 280.598 498.728 280.397C519.062 280.119 539.397 280.274 559.717 279.378C560.277 279.347 561.048 279.548 561.29 278.221C522.89 279.641 484.566 278.761 446.287 280.274C446 280.289 445.712 280.598 445.243 280.891ZM569.854 273.79C568.855 273.713 567.841 273.574 566.828 273.558C515.961 273.003 444.351 273.358 438.586 274.238C439.282 274.454 439.736 274.732 440.19 274.732C483.401 274.763 526.612 274.701 569.854 273.79ZM558.461 326.894C557.689 326.153 556.766 326.555 555.904 326.586C544.027 326.941 532.15 326.848 520.273 326.339C514.16 326.076 508.033 325.783 501.92 325.875C485.171 326.138 468.438 326.601 451.704 327.033C450.872 327.049 449.782 326.462 449.026 327.774C464.307 327.929 479.407 327.882 494.507 327.033C500.437 326.694 506.399 326.724 512.315 327.064C527.066 327.929 541.833 328.083 556.585 327.589C557.266 327.574 558.068 327.774 558.461 326.894ZM523.965 98.6848C518.896 97.8666 495.157 97.8512 489.786 98.9009C492.131 99.0398 493.357 99.1788 494.582 99.1788C504.114 99.2096 513.646 99.2251 523.178 99.2251C523.45 99.2096 523.707 98.87 523.965 98.6848ZM494.083 102.899C497.835 103.717 513.873 104.381 519.123 103.933C516.884 103.47 515.87 103.115 514.841 103.084C508.26 102.899 501.663 102.359 494.083 102.899ZM501.996 94.563C504.659 94.8718 506.565 95.1033 508.472 95.2886C508.577 95.304 508.714 95.057 508.835 94.9335C506.096 93.6831 506.081 93.714 501.996 94.563Z" fill="#EAEAEA" fill-opacity="0.15"/>
</g>
<path d="M682.542 433.12C657.32 433.12 632.084 433.12 606.847 433.12C605.576 433.12 604.29 433.15 603.034 432.996C601.415 432.78 600.356 431.591 600.296 430.156C600.22 428.519 601.324 427.315 603.17 427.022C603.322 427.006 603.458 426.991 603.594 426.976C604.698 426.806 605.969 427.331 606.862 426.512C607.951 425.509 607.437 424.058 607.498 422.792C607.588 421.063 607.528 419.319 607.573 417.59C607.694 412.85 609.132 411.368 613.671 411.245C614.518 411.214 615.365 411.276 616.212 411.168C616.848 411.075 617.256 410.597 616.923 409.948C615.093 406.351 613.217 402.785 611.371 399.219C610.962 398.447 610.266 398.401 609.555 398.339C608.436 398.231 607.271 398.278 606.196 398C603.715 397.351 602.187 395.329 602.247 393.014C602.293 390.821 603.67 389.031 605.969 388.274C606.635 388.058 607.361 388.027 608.057 387.904C608.708 387.796 609.041 387.363 609.056 386.731C609.116 384.863 609.116 382.979 609.177 381.096C609.253 379.105 609.54 378.765 611.386 378.703C613.504 378.626 615.637 378.657 617.756 378.58C618.527 378.564 618.996 378.086 619.132 377.237C619.375 375.878 618.588 374.165 619.919 373.192C620.963 372.405 622.401 372.868 623.656 372.791C623.944 372.76 624.231 372.76 624.504 372.744C625.487 372.683 626.107 372.25 626.153 371.17C626.198 370.166 626.228 369.147 626.319 368.144C626.38 367.511 626.864 367.079 627.439 367.033C628.846 366.925 630.268 366.925 631.69 366.863C632.674 366.816 633.249 366.276 633.339 365.257C633.4 364.532 633.4 363.806 633.476 363.096C633.521 362.463 633.854 362.031 634.489 361.923C634.762 361.877 635.049 361.861 635.337 361.83C638.393 361.521 638.393 361.521 638.756 358.511C638.938 356.998 639.104 356.829 640.572 356.72C641.419 356.659 642.281 356.69 643.129 356.643C643.915 356.597 644.369 356.165 644.536 355.316C644.823 353.787 643.915 351.919 645.201 350.777C646.276 349.82 647.94 350.499 649.332 350.268C650.149 350.129 650.573 349.681 650.678 348.878C650.724 348.585 650.694 348.292 650.739 348.014C650.966 346.486 650.073 344.648 651.39 343.475C652.494 342.503 654.113 343.136 655.505 342.981C656.579 342.858 656.851 342.209 656.973 341.252C657.199 339.724 656.352 337.872 657.699 336.714C658.803 335.772 660.437 336.451 661.829 336.204C662.601 336.065 663.13 335.664 663.221 334.83C663.282 334.259 663.297 333.673 663.282 333.101C663.221 329.921 663.66 329.875 666.338 329.875C675.976 329.89 685.629 329.875 695.266 329.89C695.826 329.89 696.386 329.921 696.946 329.983C697.581 330.06 698.005 330.446 698.065 331.095C698.156 332.237 698.171 333.395 698.217 334.553C698.247 335.571 698.731 336.173 699.745 336.22C701.031 336.266 702.302 336.251 703.573 336.328C705.313 336.42 705.6 336.714 705.721 338.335C705.736 338.628 705.736 338.906 705.736 339.199C705.706 343.167 705.721 343.028 709.458 343.028C709.882 343.028 710.306 343.012 710.729 343.043C712.273 343.167 712.59 343.491 712.666 345.22C712.726 346.377 712.696 347.535 712.742 348.693C712.772 349.743 713.377 350.237 714.36 350.299C714.497 350.314 714.633 350.314 714.769 350.329C716.282 350.576 718.082 349.696 719.232 350.962C720.216 352.058 719.55 353.741 719.732 355.146C719.868 356.211 720.458 356.628 721.426 356.659C722.001 356.674 722.561 356.705 723.136 356.69C725.723 356.628 726.116 356.952 726.192 359.53C726.253 361.676 726.449 361.707 728.431 361.799C728.991 361.83 729.551 361.83 730.126 361.815C732.849 361.768 733.122 362.201 733.137 364.702C733.152 366.724 733.409 366.801 735.452 366.909C735.603 366.909 735.739 366.909 735.875 366.909C737.282 367.002 738.886 366.461 740.051 367.295C741.352 368.221 740.55 369.981 740.793 371.355C740.929 372.204 741.383 372.652 742.169 372.698C743.864 372.791 745.574 372.806 747.268 372.899C748.07 372.945 748.463 373.47 748.584 374.288C748.781 375.554 748.146 377.082 749.129 378.039C750.37 379.259 752.11 378.502 753.623 378.657C754.455 378.734 755.317 378.641 756.165 378.703C757.647 378.796 758.101 379.243 758.162 380.88C758.237 382.902 758.162 384.94 758.237 386.962C758.283 388.676 758.6 388.984 760.174 389.154C761.445 389.293 762.746 389.293 763.972 389.602C766.196 390.127 767.633 392.103 767.618 394.326C767.618 396.363 766.317 398.231 764.365 398.988C763.972 399.127 763.533 399.297 763.124 399.266C761.188 399.111 760.356 400.254 759.841 401.936C758.964 404.838 757.995 407.71 757.087 410.597C756.724 411.739 756.603 412.835 757.632 413.777C758.525 414.595 758.691 415.768 758.812 416.941C759.115 419.674 759.463 422.406 759.766 425.139C759.902 426.404 760.325 427.315 761.763 427.47C762.459 427.547 763.17 427.778 763.775 428.103C764.713 428.627 765.212 429.523 765.182 430.619C765.137 431.699 764.668 432.626 763.684 433.058C762.913 433.397 762.05 433.583 761.233 433.644C759.962 433.753 758.676 433.691 757.405 433.691C732.456 433.552 707.507 433.413 682.557 433.274C682.542 433.212 682.542 433.166 682.542 433.12ZM630.601 411.461C632.401 411.461 634.081 411.477 635.76 411.446C638.136 411.415 638.423 410.936 637.364 408.605C636.305 406.259 635.185 403.943 634.035 401.643C632.825 399.235 630.752 399.158 629.194 401.442C628.468 402.492 627.726 403.557 627.166 404.7C626.153 406.814 624.004 408.358 624.065 411.029C626.244 411.77 628.498 411.183 630.601 411.461ZM715.904 412.171C719.414 412.681 722.788 412.526 726.162 412.465C726.933 412.449 727.387 411.739 727.145 410.936C726.071 407.185 724.346 403.712 722.485 400.315C722.152 399.729 721.532 399.744 721.078 400.269C719.853 401.72 719.187 403.48 718.43 405.194C717.462 407.401 716.176 409.501 715.904 412.171ZM653.614 411.523C653.735 411.091 653.841 410.921 653.795 410.813C652.6 407.139 650.527 403.912 648.651 400.578C648.303 399.945 647.41 400.022 646.896 400.732C644.642 403.851 643.023 407.278 641.873 411.23C645.988 411.739 649.846 411.615 653.614 411.523ZM678.85 412.156C678.85 412.125 678.85 412.094 678.85 412.063C680.409 412.063 681.952 412.109 683.495 412.048C684.146 412.017 684.554 411.507 684.267 410.874C682.678 407.509 681.059 404.159 679.425 400.809C679.153 400.238 678.306 400.161 678.064 400.64C676.369 403.943 674.69 407.262 673.071 410.612C672.798 411.152 673.101 411.801 673.797 411.862C675.476 412.001 677.171 412.063 678.85 412.156ZM698.368 412.079C698.489 411.77 698.595 411.615 698.565 411.492C697.324 407.664 695.509 404.082 693.829 400.439C693.527 399.775 692.513 399.899 692.18 400.67C690.697 404.098 689.048 407.478 688.095 411.121C688.034 411.338 688.261 411.646 688.397 412.017C691.711 412.279 695.07 412.418 698.368 412.079ZM702.256 411.94C703.225 412.511 704.239 412.418 705.207 412.326C707.507 412.109 709.912 413.067 712.121 411.739C712.015 409.207 710.684 407.108 709.731 404.9C709.02 403.264 708.581 401.396 707.113 400.068C706.705 400.516 706.311 400.778 706.16 401.149C704.844 404.329 703.543 407.509 702.272 410.72C702.135 411.091 702.256 411.554 702.256 411.94ZM736.027 400.176C735.346 401.087 734.967 401.504 734.68 401.983C732.955 404.854 732.274 408.142 731.306 411.307C731.049 412.202 731.745 412.603 732.516 412.634C734.786 412.712 737.055 412.742 739.325 412.773C739.461 412.773 739.612 412.758 739.749 412.742C740.717 412.619 741.216 411.878 740.793 410.89C739.325 407.463 737.767 404.067 736.027 400.176ZM663.524 411.77C669.561 411.94 669.061 411.816 666.58 406.722C665.763 405.039 664.916 403.387 664.053 401.751C663.766 401.18 662.979 401.134 662.692 401.658C661.875 403.156 661.073 404.669 660.316 406.212C657.426 412.032 657.109 411.708 663.524 411.77ZM748.827 412.897C748.827 412.928 748.827 412.959 748.827 412.974C749.81 412.974 750.793 413.02 751.777 412.974C752.518 412.928 752.957 412.187 752.654 411.415C751.55 408.621 750.415 405.842 749.265 403.079C749.19 402.893 748.842 402.708 748.645 402.739C748.403 402.77 748.07 402.955 747.964 403.171C746.769 405.765 745.528 408.343 744.772 411.121C744.469 412.218 744.817 412.82 745.876 412.897C746.86 412.943 747.843 412.897 748.827 412.897Z" fill="#EAEAEA" fill-opacity="0.15"/>
<path d="M612.309 469.102C612.415 466.247 612.521 463.221 612.642 460.211C612.702 458.636 611.749 457.494 610.992 456.305C610.372 455.332 609.54 454.53 608.874 453.588C607.74 451.967 608.103 450.825 610.039 449.883C610.402 449.713 610.811 449.651 611.189 449.528C610.69 445.221 610.07 443.415 608.072 440.312C606.378 437.718 607.346 435.403 610.327 435.048C611.159 434.94 612.021 435.001 612.869 435.017C659.605 435.31 706.357 435.619 753.093 435.943C754.636 435.943 756.21 435.773 757.738 436.252C758.933 436.638 759.69 437.441 759.886 438.691C760.068 439.756 759.75 440.96 758.827 441.315C756.089 442.334 755.695 444.742 754.984 447.089C754.53 448.663 753.88 450.053 755.892 451.056C756.558 451.38 756.452 452.353 756.074 453.001C755.378 454.252 754.621 455.487 753.834 456.675C753.002 457.926 752.594 459.238 752.669 460.751C752.775 462.634 752.791 464.518 752.775 466.385C752.76 467.651 752.942 468.624 754.394 468.979C755.136 469.164 755.363 469.936 755.287 470.739C754.969 473.749 755.453 476.759 755.408 479.77C755.378 481.128 755.816 481.468 757.239 481.576C758.373 481.684 759.508 481.622 760.613 481.838C762.126 482.116 763.094 483.397 763.139 484.895C763.185 486.408 762.307 487.766 760.764 488.044C759.251 488.322 757.677 488.384 756.119 488.384C729.778 488.368 703.437 488.337 677.08 488.306C653.008 488.276 628.921 488.245 604.85 488.198C603.427 488.183 602.005 488.198 600.598 488.059C599.463 487.951 598.601 486.871 598.495 485.682C598.314 483.66 599.902 481.622 601.869 481.483C603.564 481.36 605.273 481.421 606.968 481.329C607.77 481.298 608.269 480.727 608.254 479.909C608.239 477.886 608.239 475.879 608.889 473.919C608.995 473.579 608.693 473.132 608.572 472.73C607.921 470.554 608.027 470.322 610.085 469.828C610.493 469.72 610.932 469.735 611.34 469.643C611.598 469.581 611.825 469.38 612.309 469.102ZM704.859 449.127C704.163 447.212 703.482 445.314 702.771 443.446C702.377 442.396 701.636 441.84 700.501 441.856C699.79 441.856 699.079 441.825 698.368 441.825C687.187 441.763 675.991 441.717 664.81 441.655C662.147 441.64 661.3 441.315 660.528 444.526C660.241 445.761 659.499 446.904 658.939 448.077C658.622 448.741 658.395 449.389 658.879 450.084C659.771 451.35 659.393 452.523 658.622 453.681C657.82 454.869 657.109 456.12 656.322 457.324C655.762 458.173 655.248 459.037 655.217 460.087C655.157 462.835 655.081 465.583 655.036 468.331C655.021 469.149 655.369 469.735 656.216 469.782C658.016 469.89 658.531 470.77 658.501 472.622C658.455 474.459 659.075 476.312 659.333 478.18C659.756 481.483 659.741 481.483 662.919 481.56C663.206 481.56 663.493 481.56 663.766 481.56C675.249 481.576 686.718 481.607 698.186 481.622C698.761 481.622 699.321 481.638 699.896 481.638C701.228 481.622 702.014 480.881 702.317 479.631C702.831 477.531 703.104 475.37 704.072 473.394C704.254 473.039 704.012 472.638 703.89 472.236C703.225 470.075 703.27 470.075 705.101 469.674C707.007 469.272 707.068 469.272 707.098 467.667C707.128 465.212 707.053 462.758 707.068 460.303C707.083 458.929 706.69 457.771 705.767 456.753C704.707 455.579 703.679 454.375 702.771 453.094C701.954 451.936 702.287 450.84 703.618 449.821C703.951 449.559 704.344 449.404 704.859 449.127ZM730.489 442.01C730.489 441.964 730.489 441.917 730.489 441.871C728.083 441.871 725.678 441.809 723.272 441.871C721.275 441.933 720.791 442.38 720.322 444.295C720.019 445.545 719.822 446.857 719.414 448.077C719.081 449.034 719.172 449.682 719.943 450.346C721.048 451.257 720.836 452.399 720.185 453.464C719.293 454.931 718.324 456.351 717.386 457.802C716.842 458.636 716.297 459.47 716.297 460.566C716.327 463.159 716.327 465.768 716.342 468.361C716.342 469.195 716.781 469.689 717.523 469.936C717.916 470.075 718.37 470.106 718.748 470.291C719.853 470.816 720.019 471.248 719.429 472.699C719.232 473.224 718.763 473.641 719.051 474.259C719.762 475.756 719.505 477.377 719.565 478.951C719.671 481.344 719.837 481.514 722.379 481.576C726.343 481.684 730.307 481.391 734.256 481.946C734.937 482.039 735.679 481.931 736.374 481.838C737.585 481.668 738.16 481.144 738.175 479.862C738.205 477.331 738.659 474.999 740.112 472.885C740.308 472.591 740.248 472.082 740.218 471.68C740.127 469.488 740.112 469.488 741.715 469.072C743.531 468.608 743.546 468.608 743.546 466.91C743.546 465.32 743.349 463.715 743.47 462.14C743.682 459.747 742.729 457.988 741.004 456.49C740.051 455.657 739.068 454.792 738.629 453.495C738.22 452.276 738.599 451.149 739.718 450.609C740.217 450.377 740.913 450.423 741.277 450.084C741.882 449.466 741.307 448.756 741.08 448.123C740.565 446.626 740.036 445.128 739.491 443.631C739.113 442.581 738.432 441.995 737.282 442.01C735.013 442.041 732.758 442.01 730.489 442.01ZM633.385 481.452C633.385 481.452 633.385 481.452 633.385 481.437C635.79 481.437 638.196 481.452 640.602 481.437C641.373 481.421 642.145 480.989 642.054 480.202C641.737 477.5 642.781 474.83 642.1 472.128C641.903 471.356 642.251 470.754 643.098 470.523C643.885 470.322 644.959 470.878 645.398 469.921C645.746 469.18 645.746 468.253 645.791 467.404C645.897 465.243 645.897 463.066 646.018 460.905C646.109 459.377 645.716 458.096 644.778 456.892C643.915 455.765 643.113 454.545 642.433 453.295C641.646 451.89 641.767 450.84 643.295 450.007C644.702 449.235 644.672 448.463 644.112 447.29C643.446 445.854 642.811 444.403 642.145 442.983C641.676 441.995 640.874 441.47 639.785 441.454C635.957 441.362 632.144 441.238 628.316 441.176C626.985 441.161 626.334 441.748 625.926 443.152C625.487 444.681 625.109 446.224 624.64 447.737C624.352 448.663 624.413 449.281 625.351 449.868C626.531 450.593 626.395 451.797 625.926 452.94C625.336 454.437 624.322 455.657 623.323 456.876C622.688 457.648 621.962 458.42 621.931 459.485C621.826 462.372 621.78 465.259 621.735 468.145C621.735 468.763 622.022 469.241 622.688 469.365C623.369 469.504 624.156 469.519 624.609 470.137C625.23 470.986 624.715 471.727 624.261 472.483C624.08 472.807 624.125 473.317 624.186 473.718C624.458 475.725 624.761 477.716 625.063 479.708C625.275 481.066 625.593 481.406 627.015 481.452C629.133 481.499 631.251 481.452 633.385 481.452Z" fill="#EAEAEA" fill-opacity="0.15"/>
<path d="M326.081 432.671C300.86 432.671 275.623 432.671 250.386 432.671C249.115 432.671 247.829 432.702 246.573 432.548C244.954 432.332 243.895 431.143 243.835 429.707C243.759 428.071 244.864 426.867 246.709 426.574C246.861 426.558 246.997 426.558 247.133 426.527C248.238 426.373 249.508 426.898 250.401 426.064C251.49 425.076 250.976 423.61 251.037 422.344C251.127 420.615 251.067 418.87 251.112 417.141C251.233 412.402 252.671 410.92 257.21 410.797C258.057 410.766 258.904 410.828 259.751 410.72C260.387 410.642 260.795 410.164 260.463 409.5C258.632 405.919 256.756 402.353 254.91 398.771C254.501 397.999 253.805 397.953 253.094 397.891C251.975 397.783 250.81 397.829 249.735 397.552C247.254 396.903 245.726 394.881 245.786 392.565C245.832 390.389 247.209 388.598 249.508 387.841C250.174 387.61 250.9 387.579 251.596 387.471C252.247 387.347 252.58 386.915 252.595 386.282C252.655 384.414 252.655 382.531 252.716 380.648C252.792 378.656 253.079 378.317 254.925 378.255C257.043 378.178 259.176 378.209 261.295 378.131C262.066 378.116 262.535 377.637 262.672 376.804C262.898 375.43 262.127 373.716 263.458 372.744C264.502 371.972 265.94 372.42 267.195 372.342C267.483 372.327 267.77 372.312 268.043 372.296C269.026 372.234 269.646 371.802 269.692 370.722C269.737 369.718 269.767 368.699 269.858 367.696C269.919 367.063 270.403 366.646 270.978 366.584C272.385 366.476 273.807 366.476 275.229 366.415C276.213 366.368 276.788 365.828 276.879 364.809C276.939 364.083 276.939 363.358 277 362.648C277.06 362.015 277.393 361.583 278.028 361.475C278.301 361.428 278.588 361.413 278.876 361.382C281.932 361.089 281.932 361.089 282.295 358.063C282.477 356.55 282.643 356.38 284.111 356.272C284.958 356.21 285.805 356.241 286.668 356.195C287.454 356.149 287.908 355.716 288.075 354.867C288.362 353.355 287.454 351.471 288.74 350.329C289.815 349.372 291.479 350.051 292.871 349.819C293.688 349.696 294.112 349.233 294.217 348.43C294.263 348.137 294.233 347.843 294.263 347.566C294.505 346.037 293.612 344.2 294.929 343.027C296.033 342.054 297.652 342.687 299.044 342.533C300.118 342.41 300.391 341.761 300.512 340.804C300.739 339.276 299.891 337.423 301.238 336.265C302.342 335.324 303.976 336.003 305.368 335.756C306.14 335.617 306.669 335.216 306.76 334.398C306.821 333.811 306.836 333.24 306.821 332.653C306.76 329.473 307.199 329.427 309.877 329.427C319.515 329.442 329.153 329.427 338.806 329.442C339.365 329.442 339.925 329.473 340.485 329.55C341.12 329.612 341.544 329.998 341.605 330.646C341.695 331.789 341.71 332.946 341.756 334.104C341.786 335.139 342.27 335.725 343.284 335.771C344.57 335.818 345.841 335.802 347.112 335.88C348.852 335.972 349.139 336.265 349.26 337.886C349.275 338.18 349.275 338.458 349.275 338.751C349.245 342.718 349.26 342.579 352.997 342.579C353.421 342.579 353.845 342.564 354.268 342.595C355.812 342.718 356.129 343.058 356.205 344.771C356.265 345.929 356.235 347.087 356.281 348.245C356.311 349.295 356.916 349.789 357.884 349.866C358.036 349.866 358.172 349.866 358.308 349.881C359.821 350.128 361.622 349.248 362.771 350.514C363.755 351.61 363.089 353.293 363.271 354.698C363.407 355.763 363.997 356.18 364.965 356.21C365.54 356.226 366.1 356.257 366.675 356.241C369.262 356.18 369.656 356.504 369.731 359.082C369.792 361.228 369.988 361.258 371.97 361.351C372.53 361.382 373.09 361.382 373.665 361.367C376.388 361.32 376.661 361.752 376.676 364.253C376.691 366.276 376.948 366.353 378.991 366.461C379.142 366.461 379.278 366.461 379.414 366.461C380.821 366.553 382.425 366.013 383.59 366.847C384.891 367.773 384.09 369.533 384.332 370.907C384.468 371.756 384.922 372.203 385.708 372.25C387.403 372.342 389.113 372.358 390.807 372.45C391.609 372.497 392.002 373.022 392.124 373.855C392.32 375.106 391.685 376.634 392.668 377.591C393.909 378.811 395.649 378.054 397.162 378.209C397.994 378.286 398.856 378.209 399.704 378.255C401.186 378.348 401.64 378.811 401.701 380.447C401.761 382.469 401.701 384.492 401.761 386.514C401.822 388.227 402.14 388.536 403.713 388.706C404.984 388.845 406.285 388.845 407.511 389.154C409.735 389.694 411.172 391.654 411.157 393.893C411.157 395.915 409.856 397.799 407.904 398.54C407.511 398.694 407.072 398.848 406.663 398.817C404.727 398.663 403.895 399.821 403.38 401.503C402.503 404.39 401.534 407.262 400.627 410.164C400.263 411.291 400.142 412.387 401.171 413.328C402.064 414.162 402.23 415.32 402.351 416.493C402.654 419.225 403.002 421.958 403.305 424.69C403.441 425.956 403.864 426.882 405.302 427.021C405.983 427.099 406.709 427.33 407.314 427.67C408.252 428.179 408.751 429.074 408.721 430.171C408.676 431.251 408.207 432.177 407.208 432.61C406.452 432.949 405.589 433.134 404.757 433.212C403.501 433.304 402.215 433.243 400.944 433.243C375.995 433.104 351.046 432.965 326.096 432.826C326.081 432.764 326.081 432.718 326.081 432.671ZM274.155 411.013C275.94 411.013 277.62 411.028 279.314 410.997C281.69 410.951 281.962 410.488 280.903 408.142C279.844 405.81 278.724 403.495 277.575 401.195C276.364 398.787 274.291 398.709 272.733 400.979C272.007 402.044 271.265 403.109 270.706 404.251C269.692 406.366 267.543 407.91 267.604 410.581C269.783 411.322 272.037 410.735 274.155 411.013ZM359.443 411.708C362.953 412.232 366.327 412.078 369.701 412.016C370.473 412.001 370.911 411.291 370.684 410.488C369.61 406.737 367.885 403.263 366.024 399.867C365.691 399.281 365.071 399.296 364.617 399.821C363.392 401.272 362.726 403.032 361.969 404.745C361.001 406.953 359.73 409.052 359.443 411.708ZM297.153 411.075C297.274 410.642 297.38 410.488 297.349 410.364C296.139 406.69 294.066 403.464 292.205 400.13C291.842 399.497 290.949 399.574 290.435 400.284C288.196 403.402 286.562 406.829 285.412 410.781C289.542 411.291 293.385 411.167 297.153 411.075ZM322.389 411.708C322.389 411.677 322.389 411.646 322.389 411.63C323.948 411.63 325.491 411.661 327.034 411.599C327.685 411.584 328.093 411.059 327.806 410.426C326.217 407.061 324.598 403.711 322.964 400.377C322.692 399.805 321.845 399.713 321.603 400.191C319.908 403.51 318.229 406.814 316.61 410.164C316.338 410.704 316.64 411.352 317.336 411.414C319.016 411.553 320.71 411.615 322.389 411.708ZM341.907 411.63C342.013 411.322 342.134 411.152 342.104 411.044C340.863 407.215 339.048 403.634 337.368 399.991C337.066 399.311 336.052 399.45 335.719 400.222C334.236 403.649 332.587 407.03 331.634 410.673C331.573 410.889 331.8 411.198 331.937 411.569C335.265 411.816 338.609 411.97 341.907 411.63ZM345.796 411.491C346.764 412.063 347.793 411.985 348.746 411.877C351.046 411.661 353.466 412.618 355.675 411.291C355.57 408.759 354.223 406.66 353.27 404.452C352.559 402.816 352.12 400.948 350.652 399.636C350.259 400.068 349.866 400.33 349.714 400.701C348.383 403.881 347.082 407.061 345.811 410.272C345.675 410.627 345.796 411.105 345.796 411.491ZM379.566 399.728C378.885 400.639 378.507 401.056 378.219 401.519C376.494 404.406 375.813 407.694 374.86 410.858C374.588 411.754 375.284 412.155 376.071 412.186C378.325 412.248 380.61 412.279 382.864 412.325C383.015 412.325 383.151 412.31 383.288 412.279C384.271 412.171 384.77 411.43 384.332 410.426C382.864 407.015 381.306 403.618 379.566 399.728ZM307.063 411.322C313.115 411.491 312.6 411.383 310.119 406.274C309.317 404.606 308.47 402.939 307.608 401.303C307.305 400.747 306.518 400.701 306.246 401.21C305.414 402.723 304.612 404.236 303.855 405.764C300.965 411.584 300.648 411.26 307.063 411.322ZM392.366 412.449C392.366 412.479 392.366 412.51 392.366 412.541C393.349 412.541 394.332 412.572 395.316 412.526C396.057 412.495 396.496 411.738 396.193 410.967C395.089 408.172 393.954 405.394 392.804 402.63C392.729 402.445 392.381 402.26 392.184 402.291C391.942 402.322 391.609 402.507 391.503 402.723C390.308 405.316 389.067 407.895 388.311 410.673C388.008 411.769 388.356 412.371 389.415 412.449C390.399 412.51 391.382 412.449 392.366 412.449Z" fill="#EAEAEA" fill-opacity="0.15"/>
<path d="M255.848 468.655C255.954 465.799 256.06 462.773 256.196 459.747C256.256 458.188 255.303 457.046 254.532 455.857C253.911 454.885 253.079 454.066 252.428 453.14C251.279 451.504 251.642 450.377 253.578 449.435C253.941 449.25 254.35 449.204 254.743 449.08C254.244 444.773 253.624 442.967 251.611 439.864C249.917 437.271 250.9 434.955 253.866 434.6C254.698 434.492 255.56 434.554 256.408 434.554C303.144 434.862 349.896 435.171 396.632 435.48C398.191 435.495 399.749 435.326 401.277 435.804C402.472 436.175 403.229 436.977 403.441 438.228C403.607 439.308 403.289 440.512 402.366 440.868C399.643 441.886 399.235 444.295 398.539 446.641C398.07 448.216 397.419 449.605 399.446 450.593C400.112 450.933 399.991 451.89 399.628 452.554C398.917 453.804 398.175 455.039 397.374 456.228C396.541 457.478 396.133 458.79 396.224 460.303C396.314 462.171 396.33 464.054 396.314 465.938C396.299 467.204 396.496 468.176 397.948 468.531C398.675 468.716 398.917 469.488 398.826 470.291C398.508 473.301 398.992 476.312 398.947 479.322C398.917 480.68 399.371 481.005 400.778 481.128C401.913 481.221 403.062 481.174 404.167 481.375C405.68 481.668 406.633 482.95 406.678 484.447C406.724 485.96 405.861 487.303 404.303 487.596C402.79 487.874 401.217 487.936 399.658 487.936C373.317 487.92 346.976 487.89 320.619 487.859C296.547 487.828 272.461 487.781 248.389 487.751C246.967 487.735 245.544 487.751 244.137 487.612C243.002 487.504 242.14 486.423 242.034 485.234C241.853 483.212 243.441 481.174 245.408 481.035C247.103 480.912 248.812 480.974 250.507 480.881C251.309 480.835 251.808 480.279 251.793 479.461C251.778 477.439 251.778 475.416 252.428 473.456C252.534 473.131 252.232 472.668 252.111 472.282C251.46 470.106 251.566 469.874 253.624 469.365C254.032 469.272 254.471 469.288 254.88 469.18C255.137 469.133 255.364 468.948 255.848 468.655ZM348.413 448.679C347.702 446.765 347.036 444.866 346.325 442.982C345.917 441.948 345.175 441.377 344.04 441.392C343.329 441.408 342.618 441.377 341.922 441.377C330.726 441.315 319.53 441.269 308.349 441.207C305.686 441.192 304.839 440.868 304.082 444.079C303.78 445.313 303.053 446.456 302.478 447.614C302.161 448.293 301.949 448.926 302.433 449.636C303.311 450.902 302.932 452.06 302.161 453.233C301.359 454.421 300.648 455.672 299.861 456.876C299.301 457.725 298.787 458.59 298.756 459.639C298.696 462.387 298.635 465.135 298.575 467.883C298.56 468.701 298.908 469.288 299.77 469.334C301.555 469.442 302.07 470.322 302.04 472.174C301.994 474.011 302.615 475.864 302.872 477.716C303.311 481.035 303.28 481.035 306.458 481.113C306.745 481.113 307.033 481.113 307.305 481.113C318.788 481.128 330.257 481.159 341.741 481.174C342.3 481.174 342.875 481.19 343.435 481.174C344.767 481.174 345.553 480.418 345.856 479.183C346.37 477.083 346.643 474.922 347.611 472.946C347.793 472.591 347.566 472.19 347.43 471.773C346.764 469.627 346.809 469.612 348.64 469.226C350.561 468.824 350.622 468.809 350.637 467.219C350.667 464.764 350.592 462.31 350.622 459.84C350.622 458.466 350.229 457.324 349.306 456.305C348.247 455.132 347.233 453.928 346.325 452.646C345.508 451.488 345.841 450.392 347.157 449.374C347.49 449.111 347.883 448.957 348.413 448.679ZM374.028 441.562C374.028 441.516 374.028 441.47 374.028 441.423C371.622 441.423 369.217 441.362 366.811 441.439C364.814 441.485 364.33 441.933 363.861 443.847C363.558 445.113 363.361 446.41 362.953 447.629C362.62 448.586 362.711 449.235 363.482 449.898C364.572 450.809 364.375 451.952 363.724 453.017C362.832 454.483 361.864 455.903 360.925 457.355C360.381 458.204 359.821 459.022 359.836 460.118C359.866 462.711 359.866 465.32 359.881 467.914C359.881 468.763 360.32 469.241 361.062 469.504C361.455 469.627 361.909 469.674 362.287 469.843C363.392 470.384 363.558 470.8 362.968 472.267C362.771 472.776 362.302 473.193 362.59 473.811C363.301 475.308 363.044 476.929 363.104 478.504C363.21 480.896 363.377 481.066 365.918 481.128C369.867 481.236 373.846 480.943 377.795 481.499C378.476 481.591 379.202 481.483 379.898 481.39C381.124 481.221 381.699 480.696 381.714 479.414C381.744 476.883 382.198 474.552 383.651 472.437C383.847 472.144 383.772 471.634 383.757 471.233C383.666 469.041 383.651 469.041 385.254 468.624C387.07 468.161 387.085 468.161 387.085 466.463C387.085 464.873 386.888 463.267 387.01 461.708C387.221 459.3 386.268 457.54 384.543 456.042C383.59 455.209 382.607 454.36 382.168 453.048C381.759 451.828 382.138 450.717 383.257 450.161C383.757 449.929 384.453 449.976 384.816 449.636C385.421 449.018 384.831 448.308 384.619 447.675C384.105 446.178 383.575 444.681 383.03 443.183C382.652 442.133 381.971 441.547 380.821 441.562C378.552 441.578 376.297 441.562 374.028 441.562ZM276.924 481.005V480.989C279.33 480.989 281.735 481.005 284.141 480.974C284.913 480.974 285.699 480.541 285.608 479.754C285.276 477.053 286.32 474.366 285.639 471.68C285.442 470.893 285.805 470.291 286.652 470.075C287.424 469.874 288.513 470.43 288.952 469.473C289.285 468.732 289.285 467.806 289.33 466.957C289.436 464.795 289.436 462.619 289.557 460.457C289.648 458.929 289.255 457.648 288.332 456.444C287.454 455.317 286.668 454.097 285.972 452.847C285.2 451.442 285.321 450.392 286.834 449.559C288.256 448.771 288.211 448.015 287.651 446.842C286.985 445.406 286.365 443.955 285.684 442.535C285.215 441.531 284.413 441.022 283.324 440.991C279.496 440.914 275.683 440.775 271.87 440.729C270.524 440.713 269.873 441.3 269.465 442.705C269.026 444.233 268.648 445.761 268.179 447.274C267.906 448.2 267.967 448.833 268.89 449.42C270.07 450.145 269.934 451.349 269.48 452.492C268.875 453.989 267.861 455.193 266.862 456.428C266.242 457.185 265.516 457.957 265.47 459.037C265.365 461.924 265.319 464.811 265.289 467.698C265.274 468.315 265.576 468.778 266.227 468.917C266.923 469.056 267.695 469.071 268.149 469.689C268.769 470.538 268.254 471.264 267.816 472.035C267.619 472.344 267.664 472.869 267.725 473.27C267.997 475.262 268.3 477.269 268.602 479.26C268.814 480.619 269.132 480.958 270.554 481.005C272.672 481.051 274.806 481.005 276.924 481.005Z" fill="#EAEAEA" fill-opacity="0.15"/>
<path d="M580.975 392.487C583.774 394.139 583.926 394.37 583.154 396.763C582.065 400.206 580.869 403.633 579.765 407.091C579.356 408.403 579.054 409.7 580.34 410.826C581.293 411.676 581.384 412.941 581.505 414.161C581.792 416.724 582.155 419.271 582.382 421.833C582.549 423.67 582.988 425.106 585.166 425.152C585.59 425.168 586.029 425.384 586.422 425.569C587.542 426.094 588.313 427.329 588.177 428.471C588.011 429.768 587.36 430.787 586.074 431.127C585.091 431.389 584.032 431.528 583.018 431.543C580.052 431.59 577.072 431.543 574.106 431.543C523.799 431.343 473.492 431.157 423.2 430.972C421.702 430.957 420.219 431.003 418.752 430.88C416.77 430.694 415.529 429.444 415.499 427.792C415.453 426.109 416.634 424.905 418.585 424.566C419.871 424.334 421.43 425.044 422.413 423.979C423.654 422.667 422.958 420.814 423.064 419.193C423.185 417.526 423.079 415.859 423.139 414.192C423.306 409.854 424.925 408.202 429.116 408.063C430.145 408.017 431.189 408.063 432.233 407.955C432.929 407.878 433.246 407.307 432.929 406.658C431.521 403.818 430.19 400.931 428.601 398.199C425.681 393.166 427.512 393.521 431.295 393.537C432.323 393.552 433.367 393.552 434.396 393.49C435.516 393.413 435.909 392.749 435.47 391.607C434.971 390.341 434.396 389.122 433.851 387.871C432.838 385.525 431.779 383.194 430.825 380.816C430.235 379.381 429.343 378.254 428.344 377.111C426.604 375.135 427.573 372.403 430.114 371.971C431.416 371.755 432.762 371.832 434.109 371.847C460.223 372.079 486.337 372.341 512.452 372.557C534.557 372.727 556.677 372.835 578.781 372.974C579.977 372.974 581.172 372.928 582.352 373.067C585.575 373.422 586.588 375.12 585.529 378.454C584.062 383.07 582.549 387.655 580.975 392.487ZM441.19 393.043C441.432 393.197 441.674 393.444 441.901 393.444C445.592 393.49 449.269 393.537 452.945 393.506C454.716 393.49 455.139 392.904 454.474 391.345C452.809 387.485 451.1 383.657 449.39 379.828C449.329 379.689 449.269 379.566 449.193 379.427C448.876 378.887 448.452 378.501 447.801 378.485C446.954 378.454 446.455 378.948 446.107 379.659C445.986 379.936 445.88 380.214 445.774 380.492C444.442 383.842 443.096 387.161 441.78 390.511C441.477 391.329 440.872 392.086 441.19 393.043ZM447.272 408.156C447.272 408.187 447.272 408.233 447.272 408.264C449.329 408.264 451.387 408.295 453.445 408.248C454.776 408.218 455.276 407.446 454.701 406.18C453.399 403.324 452.068 400.483 450.661 397.674C449.632 395.636 447.332 395.451 446.061 397.35C444.079 400.345 442.264 403.432 440.418 406.504C439.828 407.492 440.251 408.125 441.537 408.156C443.444 408.202 445.35 408.156 447.272 408.156ZM466.85 378.47C463.9 383.549 461.373 387.763 459.24 392.178C458.937 392.811 459.33 393.429 460.011 393.444C463.703 393.49 467.395 393.49 471.086 393.46C472.176 393.46 472.524 392.827 472.055 391.607C470.481 387.547 468.862 383.518 466.85 378.47ZM542.212 409.36C542.212 409.375 542.212 409.375 542.212 409.375C543.846 409.375 545.48 409.422 547.114 409.36C548.174 409.329 548.643 408.588 548.31 407.492C547.145 403.725 545.374 400.236 543.604 396.748C543.241 396.007 542.303 396.038 541.804 396.748C540.245 398.986 539.232 401.502 538.188 404.003C535.812 409.638 535.555 409.283 541.335 409.36C541.622 409.375 541.925 409.36 542.212 409.36ZM497.851 380.616C497.564 380.77 497.186 380.847 497.064 381.048C495.279 384.521 493.509 387.995 491.769 391.499C491.255 392.533 491.693 393.321 492.783 393.351C494.855 393.398 496.928 393.398 499.001 393.382C504.009 393.351 504.009 393.351 501.861 388.504C501.195 386.991 500.514 385.478 499.803 383.996C499.243 382.808 499.001 381.434 497.851 380.616ZM512.542 393.243C514.01 393.243 515.493 393.274 516.96 393.228C517.853 393.197 518.352 392.472 518.05 391.715C516.582 388.103 515.069 384.521 513.571 380.924C513.39 380.508 513.087 380.044 512.588 380.23C512.24 380.353 511.907 380.739 511.741 381.11C510.727 383.271 509.743 385.463 508.775 387.671C506.127 393.722 505.552 393.382 512.542 393.243ZM482.752 379.828C479.907 384.321 478.001 388.195 476.17 392.101C475.898 392.688 476.185 393.351 476.911 393.398C478.228 393.49 479.559 393.537 480.875 393.475C483.054 393.351 485.263 393.861 487.396 393.074C487.896 390.619 486.05 388.952 485.399 386.868C484.734 384.753 483.841 382.715 482.752 379.828ZM471.328 408.372C471.465 407.909 471.57 407.739 471.54 407.616C470.284 403.756 468.091 400.391 466.154 396.887C465.791 396.223 464.853 396.3 464.308 397.056C461.948 400.314 460.253 403.895 459.043 408.032C463.355 408.603 467.379 408.418 471.328 408.372ZM497.76 409.005C497.76 408.974 497.76 408.959 497.76 408.928C499.379 408.928 501.013 408.959 502.632 408.897C503.298 408.881 503.752 408.356 503.434 407.677C501.785 404.142 500.075 400.653 498.366 397.149C498.078 396.547 497.201 396.454 496.943 396.948C495.173 400.422 493.403 403.895 491.708 407.399C491.436 407.955 491.724 408.65 492.465 408.696C494.22 408.866 495.99 408.912 497.76 409.005ZM537.083 392.765C540.578 393.444 543.831 393.027 547.084 393.027C548.189 393.027 548.688 392.271 548.279 391.206C546.766 387.3 545.193 383.394 543.65 379.551C542.817 379.674 542.379 380.06 542.152 380.647C540.609 384.676 538.233 388.381 537.083 392.765ZM513.163 408.943C513.163 408.989 513.163 409.051 513.163 409.097C514.494 409.097 515.841 409.128 517.172 409.097C518.352 409.051 518.761 408.418 518.262 407.307C517.006 404.405 515.72 401.518 514.403 398.631C514.101 397.952 513.738 397.288 513.359 396.64C513.042 396.115 512.119 396.146 511.892 396.717C510.379 400.345 508.896 403.972 507.474 407.616C507.232 408.233 507.565 408.881 508.276 408.912C509.91 408.989 511.529 408.943 513.163 408.943ZM527.642 396.423C526.674 396.763 526.341 397.442 526.053 398.137C524.934 400.761 523.829 403.386 522.74 406.025C522.513 406.581 522.377 407.183 522.226 407.77C522.059 408.449 522.316 409.067 522.982 409.097C526.175 409.221 529.397 409.53 532.832 408.928C531.682 404.312 529.745 400.329 527.642 396.423ZM527.582 379.612C527.218 379.875 526.855 380.014 526.765 380.245C525.342 384.043 523.95 387.856 522.589 391.684C522.316 392.456 522.876 393.182 523.754 393.182C526.265 393.166 528.777 393.104 531.288 393.012C531.969 392.981 532.438 392.441 532.257 391.792C531.001 387.624 529.775 383.441 527.582 379.612ZM557.599 396.547C554.543 400.206 553.938 404.312 552.697 408.14C552.501 408.758 552.834 409.391 553.56 409.422C556.223 409.514 558.901 409.591 561.564 409.607C562.426 409.607 562.925 408.881 562.744 408.109C562.638 407.662 562.562 407.199 562.381 406.797C560.868 403.525 559.339 400.252 557.599 396.547ZM562.426 392.688C560.868 388.257 559.415 384.105 557.887 379.782C554.997 383.101 553.197 387.655 552.712 392.765C555.86 393.305 558.991 393.243 562.426 392.688ZM566.798 392.703C569.84 393.444 572.896 393.074 575.952 392.919C576.618 392.873 576.86 392.209 576.678 391.561C575.559 387.825 574.106 384.228 572.139 380.77C569.507 384.012 567.494 388.504 566.798 392.703ZM481.723 408.619C488.032 408.789 487.502 408.681 484.9 403.308C484.053 401.564 483.16 399.835 482.267 398.106C481.95 397.52 481.117 397.489 480.83 398.029C479.983 399.604 479.135 401.194 478.349 402.799C475.323 408.897 474.99 408.542 481.723 408.619ZM571.292 398.878C569.476 399.681 569.34 401.363 568.811 402.66C567.933 404.821 566.39 406.828 566.92 409.391C569.355 410.271 571.852 409.885 574.318 409.808C575.029 409.792 575.302 409.113 575.075 408.495C573.849 405.3 572.563 402.12 571.292 398.878Z" fill="#EAEAEA" fill-opacity="0.15"/>
<path d="M499.363 488.662C472.947 488.662 446.514 488.662 420.098 488.662C418.766 488.662 417.42 488.678 416.088 488.554C414.545 488.415 413.455 486.933 413.607 485.374C413.819 483.336 415.362 481.731 417.344 481.607C419.114 481.499 420.899 481.546 422.685 481.438C423.32 481.407 423.774 480.897 423.82 480.249C423.895 479.045 423.789 477.81 423.895 476.621C424.046 474.722 424.606 472.885 426.482 472.191C427.995 471.635 428.056 470.601 428.116 469.35C428.343 463.762 428.585 458.158 428.843 452.554C428.903 451.181 428.888 449.884 427.965 448.68C427.027 447.491 426.785 445.932 426.346 444.481C425.665 442.335 425 440.22 423.577 438.352C421.792 435.99 422.897 433.459 425.711 433.011C426.588 432.872 427.496 432.949 428.389 432.949C477.667 433.273 526.945 433.582 576.224 433.937C577.555 433.937 578.902 433.999 580.203 434.23C581.459 434.462 582.321 435.296 582.593 436.623C582.881 437.966 582.427 439.309 581.307 439.726C578.992 440.606 578.342 442.474 577.782 444.573C577.434 445.886 577.207 447.306 576.526 448.433C574.938 451.042 574.892 453.836 574.998 456.723C575.134 460.659 575.149 464.611 575.21 468.548C575.24 469.628 575.346 470.601 576.42 471.264C577.54 471.944 577.827 473.148 577.827 474.429C577.827 475.942 577.827 477.455 577.888 478.968C577.964 481.453 578.1 481.592 580.354 481.746C581.247 481.824 582.155 481.762 583.017 481.901C584.878 482.21 586.013 483.522 586.043 485.251C586.058 487.011 585.014 488.338 583.062 488.631C581.459 488.863 579.809 488.848 578.191 488.848C551.91 488.863 525.629 488.863 499.363 488.863C499.363 488.801 499.363 488.724 499.363 488.662ZM499.394 481.685C499.394 481.7 499.394 481.731 499.394 481.746C505.173 481.746 510.968 481.777 516.748 481.746C520.606 481.716 522.058 482.92 522.936 476.945C523.208 475.17 523.632 473.271 525.432 472.361C527.218 471.45 527.43 469.968 527.399 468.192C527.308 463.793 527.278 459.409 527.293 455.009C527.293 452.724 527.293 450.563 525.493 448.726C524.736 447.954 524.63 446.503 524.222 445.376C523.738 444.11 523.239 442.844 522.724 441.594C522.346 440.683 521.665 440.158 520.666 440.127C519.925 440.097 519.184 440.081 518.442 440.081C506.732 440.019 495.006 439.958 483.28 439.911C482.539 439.896 481.798 439.896 481.056 439.911C480.073 439.942 479.407 440.39 479.074 441.393C477.97 444.697 476.82 447.97 473.839 450.131C473.189 450.594 473.204 451.458 473.189 452.215C473.037 457.973 472.901 463.716 472.765 469.474C472.735 470.693 473.158 471.465 474.414 471.743C476.094 472.129 476.79 473.395 476.956 475.047C477.107 476.405 477.228 477.764 477.425 479.107C477.712 481.314 478.015 481.638 480.254 481.654C486.639 481.7 493.009 481.685 499.394 481.685ZM565.527 461.184C565.451 461.184 565.391 461.184 565.315 461.184C565.315 458.76 565.33 456.337 565.3 453.913C565.285 453.018 565.406 451.952 564.997 451.258C563.288 448.356 562.561 445.098 561.321 442.042C560.791 440.714 559.929 440.266 558.582 440.251C553.998 440.251 549.398 440.112 544.814 440.127C542.106 440.127 541.758 440.544 541.031 443.477C540.638 445.083 540.078 446.642 539.655 448.247C539.412 449.143 539.14 450.085 538.308 450.486C536.931 451.134 536.916 452.261 536.916 453.512C536.961 458.498 537.007 463.484 536.977 468.47C536.977 469.906 537.249 471.126 538.308 472.144C539.881 473.704 540.638 475.602 540.411 477.872C540.381 478.18 540.396 478.474 540.411 478.782C540.517 481.53 540.608 481.669 543.15 481.716C547.446 481.824 551.743 481.546 556.025 482.101C556.736 482.21 557.508 482.071 558.234 481.947C559.202 481.793 559.793 481.144 559.898 480.141C559.959 479.539 559.944 478.921 559.989 478.319C560.231 475.124 561.245 472.407 564.392 471.048C565.194 470.709 565.512 470.138 565.512 469.335C565.542 466.618 565.527 463.901 565.527 461.184ZM463.082 460.551C463.248 460.551 463.43 460.551 463.596 460.551C463.596 457.988 463.611 455.426 463.581 452.848C463.566 451.952 463.642 450.98 463.324 450.177C462.28 447.522 461.085 444.928 459.935 442.32C459.148 440.498 457.938 439.556 455.804 439.603C452.264 439.695 448.708 439.448 445.153 439.386C443.443 439.356 442.762 439.88 442.323 441.594C441.627 444.373 441.053 447.182 439.116 449.452C438.677 449.961 438.556 450.856 438.526 451.582C438.254 457.618 438.027 463.669 437.815 469.705C437.784 470.616 437.89 471.496 438.904 471.959C440.281 472.592 440.689 473.92 440.901 475.278C441.128 476.621 441.219 477.98 441.385 479.323C441.643 481.314 441.839 481.561 443.942 481.592C447.785 481.654 451.644 481.623 455.487 481.638C459.087 481.654 459.587 481.638 459.239 477.547C459.057 475.263 459.496 473.364 461.765 472.283C462.825 471.774 463.082 470.74 463.082 469.628C463.082 466.602 463.082 463.577 463.082 460.551Z" fill="#EAEAEA" fill-opacity="0.15"/>
<path d="M506.203 370.364C480.089 370.225 453.96 370.102 427.845 369.948C426.514 369.948 425.152 369.994 423.851 369.731C421.067 369.16 419.267 366.86 419.388 364.313C419.509 361.689 421.43 359.666 424.259 359.265C425.137 359.126 426.03 359.157 426.922 359.172C479.151 359.574 531.395 359.975 583.638 360.392C585.409 360.392 587.209 360.315 588.934 360.855C591.355 361.627 592.838 363.958 592.505 366.443C592.187 368.759 590.492 370.55 588.102 370.905C586.937 371.09 585.742 371.044 584.546 371.028C558.432 370.874 532.318 370.719 506.188 370.55C506.203 370.488 506.203 370.426 506.203 370.364Z" fill="#EAEAEA" fill-opacity="0.15"/>
<path d="M233.819 423.067C235.755 424.193 235.846 424.348 235.332 426C234.575 428.377 233.758 430.723 233.002 433.085C232.714 433.981 232.518 434.892 233.395 435.663C234.046 436.235 234.106 437.114 234.197 437.948C234.394 439.708 234.651 441.452 234.802 443.212C234.908 444.478 235.211 445.451 236.693 445.497C236.996 445.497 237.299 445.651 237.571 445.775C238.343 446.145 238.857 446.979 238.766 447.766C238.66 448.662 238.206 449.356 237.329 449.588C236.648 449.773 235.937 449.866 235.226 449.881C233.183 449.912 231.156 449.881 229.113 449.881C194.587 449.742 160.06 449.619 125.518 449.48C124.505 449.48 123.491 449.526 122.462 449.418C121.116 449.294 120.268 448.445 120.238 447.319C120.208 446.161 121.01 445.327 122.356 445.096C123.234 444.941 124.308 445.435 124.989 444.694C125.836 443.799 125.352 442.518 125.428 441.406C125.503 440.264 125.443 439.121 125.473 437.979C125.594 435 126.699 433.857 129.573 433.765C130.284 433.734 131.011 433.765 131.707 433.687C132.191 433.641 132.403 433.24 132.191 432.792C131.222 430.847 130.315 428.871 129.225 426.988C127.228 423.545 128.484 423.777 131.071 423.792C131.782 423.792 132.493 423.792 133.205 423.746C133.961 423.699 134.248 423.252 133.931 422.464C133.598 421.6 133.205 420.751 132.841 419.902C132.13 418.281 131.404 416.675 130.738 415.055C130.345 414.067 129.74 413.295 129.044 412.523C127.849 411.164 128.514 409.281 130.254 408.988C131.147 408.849 132.085 408.895 132.993 408.911C150.922 409.065 168.851 409.25 186.78 409.389C201.955 409.513 217.13 409.59 232.306 409.682C233.123 409.682 233.94 409.652 234.742 409.744C236.966 409.991 237.662 411.149 236.936 413.449C235.937 416.598 234.893 419.748 233.819 423.067ZM137.88 423.452C138.046 423.545 138.197 423.73 138.364 423.73C140.891 423.761 143.417 423.777 145.944 423.761C147.169 423.761 147.457 423.344 146.988 422.279C145.853 419.639 144.673 417.015 143.508 414.375C143.463 414.283 143.417 414.19 143.372 414.097C143.145 413.742 142.857 413.48 142.419 413.449C141.829 413.434 141.481 413.773 141.254 414.267C141.163 414.453 141.102 414.638 141.027 414.838C140.104 417.139 139.181 419.408 138.288 421.723C138.076 422.264 137.653 422.789 137.88 423.452ZM142.04 433.826C142.04 433.842 142.04 433.873 142.04 433.888C143.463 433.888 144.87 433.919 146.292 433.888C147.2 433.857 147.548 433.332 147.139 432.468C146.262 430.507 145.339 428.547 144.37 426.633C143.659 425.228 142.086 425.089 141.208 426.401C139.862 428.454 138.606 430.569 137.335 432.684C136.926 433.363 137.229 433.795 138.107 433.811C139.423 433.857 140.739 433.826 142.04 433.826ZM155.491 413.449C153.464 416.938 151.739 419.825 150.256 422.85C150.044 423.283 150.317 423.715 150.801 423.715C153.327 423.761 155.854 423.761 158.396 423.73C159.137 423.73 159.379 423.283 159.062 422.464C157.987 419.686 156.868 416.907 155.491 413.449ZM207.22 434.66C208.34 434.66 209.46 434.691 210.579 434.66C211.305 434.629 211.623 434.12 211.396 433.379C210.594 430.785 209.384 428.392 208.174 426C207.916 425.49 207.266 425.506 206.933 426C205.859 427.528 205.163 429.272 204.452 430.986C202.817 434.845 202.636 434.614 206.615 434.66C206.812 434.66 207.024 434.66 207.22 434.66ZM176.779 414.916C176.567 415.024 176.31 415.07 176.234 415.209C175.009 417.602 173.783 419.979 172.603 422.387C172.24 423.097 172.542 423.638 173.299 423.653C174.721 423.699 176.143 423.684 177.55 423.684C180.985 423.653 181 423.653 179.517 420.334C179.063 419.3 178.594 418.266 178.11 417.231C177.732 416.428 177.55 415.487 176.779 414.916ZM186.855 423.591C187.854 423.591 188.883 423.607 189.881 423.576C190.487 423.561 190.835 423.051 190.638 422.542C189.609 420.056 188.595 417.586 187.551 415.132C187.43 414.838 187.219 414.53 186.886 414.653C186.644 414.746 186.417 415.008 186.296 415.255C185.6 416.753 184.934 418.25 184.268 419.748C182.453 423.916 182.059 423.669 186.855 423.591ZM166.4 414.391C164.448 417.463 163.147 420.118 161.891 422.804C161.694 423.205 161.906 423.653 162.39 423.684C163.298 423.761 164.206 423.792 165.114 423.746C166.611 423.653 168.14 424.008 169.607 423.468C169.94 421.785 168.669 420.643 168.23 419.207C167.761 417.756 167.156 416.351 166.4 414.391ZM158.562 433.965C158.653 433.641 158.729 433.533 158.699 433.456C157.851 430.801 156.338 428.485 155.007 426.092C154.75 425.629 154.114 425.675 153.736 426.2C152.117 428.423 150.967 430.893 150.12 433.734C153.085 434.12 155.854 433.996 158.562 433.965ZM176.703 434.413C176.703 434.382 176.703 434.367 176.703 434.351C177.823 434.351 178.927 434.382 180.047 434.336C180.516 434.32 180.819 433.95 180.592 433.502C179.472 431.078 178.307 428.67 177.127 426.262C176.915 425.861 176.325 425.783 176.143 426.139C174.933 428.516 173.723 430.893 172.542 433.301C172.361 433.687 172.573 434.151 173.072 434.197C174.282 434.305 175.493 434.336 176.703 434.413ZM203.695 423.252C206.101 423.715 208.34 423.437 210.549 423.437C211.321 423.422 211.653 422.912 211.381 422.187C210.337 419.501 209.263 416.814 208.204 414.175C207.629 414.267 207.326 414.53 207.175 414.931C206.116 417.71 204.482 420.242 203.695 423.252ZM187.279 434.351C187.279 434.398 187.279 434.428 187.279 434.475C188.187 434.475 189.11 434.49 190.033 434.475C190.835 434.444 191.107 434.012 190.789 433.24C189.912 431.248 189.034 429.257 188.141 427.281C187.93 426.818 187.672 426.37 187.415 425.922C187.188 425.567 186.568 425.583 186.401 425.984C185.373 428.454 184.359 430.955 183.375 433.456C183.209 433.873 183.436 434.32 183.92 434.351C185.04 434.398 186.159 434.351 187.279 434.351ZM197.219 425.768C196.554 426.015 196.327 426.463 196.115 426.941C195.358 428.747 194.587 430.554 193.845 432.36C193.694 432.746 193.603 433.147 193.497 433.548C193.376 434.012 193.558 434.459 194.012 434.475C196.206 434.552 198.415 434.768 200.775 434.351C199.988 431.187 198.657 428.439 197.219 425.768ZM197.174 414.221C196.932 414.406 196.675 414.499 196.614 414.653C195.646 417.278 194.678 419.886 193.74 422.511C193.558 423.051 193.936 423.545 194.541 423.545C196.266 423.53 197.991 423.483 199.716 423.422C200.185 423.406 200.503 423.036 200.366 422.588C199.519 419.732 198.672 416.845 197.174 414.221ZM217.781 425.845C215.678 428.362 215.269 431.187 214.422 433.811C214.271 434.243 214.513 434.675 214.997 434.691C216.828 434.768 218.659 434.814 220.489 434.83C221.079 434.83 221.427 434.32 221.306 433.795C221.246 433.487 221.185 433.178 221.064 432.9C220.02 430.631 218.976 428.392 217.781 425.845ZM221.094 423.205C220.02 420.164 219.022 417.308 217.978 414.344C215.981 416.614 214.755 419.748 214.422 423.252C216.586 423.622 218.734 423.576 221.094 423.205ZM224.105 423.205C226.178 423.715 228.281 423.468 230.369 423.36C230.838 423.329 231.005 422.881 230.868 422.434C230.112 419.871 229.113 417.401 227.767 415.024C225.951 417.247 224.574 420.334 224.105 423.205ZM165.704 434.135C170.031 434.243 169.668 434.181 167.882 430.492C167.307 429.288 166.687 428.099 166.067 426.926C165.855 426.524 165.295 426.494 165.083 426.864C164.508 427.945 163.933 429.041 163.374 430.137C161.301 434.32 161.074 434.089 165.704 434.135ZM227.177 427.451C225.936 428.006 225.83 429.149 225.467 430.06C224.877 431.526 223.818 432.9 224.181 434.675C225.845 435.262 227.57 435 229.265 434.953C229.749 434.938 229.93 434.475 229.779 434.058C228.932 431.85 228.054 429.674 227.177 427.451Z" fill="#EAEAEA" fill-opacity="0.15"/>
<path d="M177.807 489.08C159.667 489.08 141.526 489.08 123.4 489.08C122.477 489.08 121.554 489.095 120.646 489.003C119.587 488.91 118.831 487.891 118.937 486.826C119.088 485.437 120.147 484.325 121.509 484.248C122.734 484.171 123.945 484.202 125.17 484.124C125.609 484.094 125.927 483.754 125.957 483.306C126.002 482.473 125.942 481.639 126.002 480.805C126.108 479.509 126.502 478.258 127.788 477.78C128.817 477.394 128.862 476.684 128.907 475.835C129.059 471.991 129.225 468.147 129.407 464.303C129.452 463.361 129.437 462.466 128.801 461.648C128.151 460.814 127.999 459.749 127.682 458.761C127.228 457.279 126.759 455.843 125.791 454.547C124.565 452.926 125.321 451.197 127.258 450.888C127.848 450.795 128.469 450.842 129.089 450.842C162.904 451.058 196.735 451.274 230.566 451.505C231.473 451.521 232.396 451.552 233.289 451.722C234.151 451.876 234.741 452.447 234.938 453.358C235.135 454.284 234.817 455.21 234.045 455.504C232.457 456.09 232.018 457.387 231.64 458.823C231.398 459.718 231.231 460.691 230.762 461.463C229.673 463.253 229.643 465.167 229.718 467.159C229.824 469.86 229.824 472.562 229.87 475.263C229.885 476.02 229.96 476.684 230.702 477.131C231.458 477.61 231.67 478.428 231.67 479.308C231.67 480.358 231.67 481.392 231.7 482.426C231.761 484.124 231.852 484.233 233.41 484.341C234.015 484.387 234.635 484.341 235.226 484.449C236.512 484.649 237.283 485.545 237.298 486.749C237.314 487.953 236.602 488.864 235.256 489.049C234.166 489.219 233.032 489.203 231.912 489.203C213.877 489.219 195.842 489.219 177.807 489.219C177.807 489.172 177.807 489.126 177.807 489.08ZM177.822 484.294C177.822 484.31 177.822 484.325 177.822 484.341C181.802 484.341 185.766 484.356 189.745 484.341C192.393 484.325 193.376 485.143 193.996 481.052C194.163 479.833 194.465 478.536 195.706 477.903C196.916 477.27 197.083 476.251 197.053 475.047C196.992 472.022 196.962 469.011 196.977 466.001C196.977 464.426 196.977 462.944 195.736 461.679C195.222 461.154 195.161 460.15 194.859 459.378C194.526 458.514 194.193 457.634 193.83 456.785C193.573 456.152 193.104 455.797 192.423 455.782C191.908 455.766 191.409 455.751 190.895 455.751C182.861 455.704 174.812 455.674 166.762 455.627C166.263 455.627 165.749 455.627 165.249 455.643C164.569 455.658 164.1 455.967 163.873 456.646C163.131 458.931 162.329 461.169 160.287 462.651C159.833 462.975 159.848 463.577 159.833 464.087C159.727 468.039 159.636 471.991 159.545 475.943C159.515 476.776 159.818 477.301 160.68 477.486C161.83 477.749 162.299 478.629 162.42 479.756C162.526 480.682 162.617 481.624 162.738 482.55C162.95 484.063 163.146 484.279 164.69 484.294C169.062 484.31 173.45 484.294 177.822 484.294ZM223.228 470.215C223.182 470.215 223.122 470.215 223.076 470.215C223.076 468.564 223.091 466.896 223.061 465.245C223.061 464.627 223.137 463.886 222.864 463.408C221.684 461.432 221.185 459.193 220.338 457.078C219.975 456.183 219.369 455.859 218.462 455.859C215.299 455.859 212.152 455.766 209.005 455.766C207.144 455.766 206.902 456.059 206.418 458.066C206.146 459.162 205.768 460.243 205.465 461.339C205.298 461.957 205.117 462.605 204.542 462.883C203.604 463.315 203.589 464.102 203.589 464.951C203.619 468.378 203.649 471.805 203.619 475.233C203.619 476.205 203.816 477.039 204.542 477.749C205.616 478.814 206.146 480.126 205.979 481.685C205.964 481.886 205.979 482.102 205.979 482.303C206.055 484.186 206.116 484.279 207.871 484.325C210.806 484.402 213.756 484.217 216.691 484.588C217.191 484.649 217.705 484.572 218.204 484.48C218.885 484.371 219.279 483.939 219.354 483.245C219.4 482.828 219.384 482.411 219.415 481.994C219.581 479.802 220.292 477.934 222.441 477.008C223.001 476.776 223.212 476.39 223.212 475.835C223.228 473.951 223.228 472.083 223.228 470.215ZM152.903 469.783C153.024 469.783 153.13 469.783 153.251 469.783C153.251 468.023 153.267 466.264 153.251 464.504C153.251 463.886 153.282 463.222 153.07 462.667C152.359 460.845 151.527 459.07 150.755 457.279C150.195 456.029 149.378 455.365 147.911 455.411C145.49 455.473 143.039 455.303 140.603 455.257C139.438 455.241 138.954 455.612 138.651 456.785C138.182 458.684 137.773 460.613 136.457 462.173C136.155 462.528 136.064 463.13 136.049 463.639C135.867 467.776 135.716 471.929 135.564 476.082C135.534 476.699 135.61 477.301 136.306 477.625C137.244 478.058 137.531 478.968 137.683 479.895C137.834 480.821 137.894 481.747 138.016 482.673C138.182 484.047 138.318 484.217 139.771 484.233C142.403 484.279 145.051 484.263 147.699 484.263C150.165 484.279 150.513 484.263 150.271 481.469C150.135 479.895 150.437 478.582 151.996 477.841C152.737 477.502 152.903 476.792 152.903 476.02C152.903 473.936 152.903 471.867 152.903 469.783Z" fill="#EAEAEA" fill-opacity="0.15"/>
<path d="M182.497 407.894C164.568 407.786 146.639 407.693 128.71 407.6C127.802 407.585 126.864 407.631 125.972 407.446C124.065 407.045 122.825 405.486 122.915 403.726C122.991 401.935 124.307 400.546 126.259 400.252C126.849 400.175 127.469 400.191 128.09 400.206C163.933 400.468 199.806 400.762 235.649 401.04C236.874 401.04 238.1 400.978 239.295 401.364C240.959 401.889 241.973 403.479 241.746 405.192C241.534 406.782 240.369 408.002 238.72 408.249C237.918 408.372 237.101 408.341 236.284 408.341C218.355 408.233 200.426 408.125 182.497 408.002C182.497 407.971 182.497 407.925 182.497 407.894Z" fill="#EAEAEA" fill-opacity="0.15"/>
<path d="M891.896 401.041C854.707 401.041 817.759 401.041 780.812 401.041C780.464 400.114 781.175 399.914 781.674 399.589C783.913 398.138 784.836 395.977 785.184 393.353C785.593 390.188 785.305 387.085 784.851 383.967C784.594 382.13 783.883 380.787 781.735 380.679C780.736 380.648 779.738 380.2 778.815 379.753C777.09 378.95 777.014 377.221 778.603 376.078C779.117 375.708 779.722 375.446 780.312 375.229C787.121 372.713 786.531 370.938 786.395 365.952C786.259 360.718 785.805 355.485 785.457 350.252C785.396 349.341 785.169 348.446 785.003 347.55C784.67 345.574 783.792 344.2 781.614 343.892C780.358 343.706 779.132 343.228 777.967 342.703C776.954 342.271 776.923 340.789 777.756 340.079C778.815 339.168 780.086 338.998 781.372 338.998C785.018 338.967 784.776 338.381 784.73 335.37C784.413 313.99 788.71 293.535 796.259 273.637C802.342 257.582 810.073 242.391 818.44 227.495C819.393 225.812 820.725 224.345 821.859 222.755C822.934 221.273 822.918 220.872 821.527 219.946C820.467 219.22 819.015 218.711 819.287 217.136C819.544 215.592 821.148 215.531 822.313 215.129C822.934 214.913 823.569 214.79 823.72 214.018C824.431 210.405 826.852 208.46 830.257 207.349C828.35 203.536 827.548 199.985 831.406 197.191C831.724 196.203 830.952 195.709 830.65 195.03C829.712 192.93 829.47 190.754 829.954 188.5C830.408 186.308 831.013 184.116 832.39 182.356C833.782 180.596 834.175 178.666 834.16 176.521C834.13 172.97 834.221 169.435 834.205 165.9C834.19 164.356 833.963 164.155 832.435 163.908C831.679 163.8 830.907 163.708 830.135 163.63C826.02 163.214 822.57 164.557 819.847 167.783C819.272 168.478 818.697 169.188 818.198 169.944C815.853 173.479 812.509 175.548 808.636 176.845C807.667 177.184 806.684 177.539 805.685 177.694C800.935 178.466 797.515 181.229 794.701 184.996C794.383 185.412 794.035 185.798 793.687 186.169C793.612 186.246 793.385 186.308 793.339 186.261C793.188 186.123 792.961 185.86 793.007 185.737C793.884 183.575 794.762 181.399 795.715 179.253C797.939 174.236 801.646 170.793 806.699 168.879C807.183 168.694 807.683 168.57 808.167 168.416C811.132 167.413 812.827 165.282 813.387 162.195C813.508 161.546 813.568 160.898 813.704 160.25C814.34 157.039 816.216 154.893 819.151 153.627C821.315 152.701 823.569 152.299 825.884 152.099C826.64 152.037 827.427 152.006 828.184 152.037C830.408 152.099 832.178 151.219 833.57 149.49C833.888 149.088 834.205 148.656 834.569 148.317C835.098 147.823 836.324 148.209 836.445 148.965C836.596 149.984 836.672 151.034 836.656 152.068C836.626 159.802 836.611 167.536 836.43 175.255C836.384 177.493 836.838 179.222 838.396 180.889C840.484 183.128 841.377 186.061 841.801 189.087C842.194 191.803 841.407 194.227 839.894 196.388C843.541 200.109 843.798 201.776 841.453 206.531C841.74 207.21 842.376 207.395 842.966 207.627C845.356 208.646 847.021 210.344 847.671 212.953C847.943 214.08 848.503 214.82 849.744 214.898C850.107 214.913 850.5 215.067 850.848 215.222C852.74 216.071 852.936 217.491 851.317 218.772C850.924 219.097 850.425 219.297 850.016 219.591C848.851 220.409 848.685 221.042 849.562 222.138C855.448 229.532 859.215 238.193 863.542 246.498C869.443 257.844 874.375 269.654 878.415 281.834C884.028 298.707 887.085 316.027 886.888 333.904C886.873 335.201 886.464 336.636 887.145 337.763C887.947 339.06 889.521 338.195 890.716 338.535C891.563 338.782 892.456 338.983 893.273 339.322C894.029 339.631 894.529 340.279 894.453 341.159C894.377 341.869 893.878 342.333 893.243 342.564C892.032 342.981 890.837 343.49 889.581 343.676C887.887 343.907 887.13 344.972 886.782 346.454C886.449 347.844 886.162 349.279 886.056 350.7C885.708 355.67 885.451 360.641 885.178 365.612C885.133 366.384 885.209 367.187 885.178 367.958C885.057 370.799 886.298 372.729 888.825 373.809C889.657 374.164 890.519 374.411 891.321 374.797C892.017 375.137 892.713 375.492 893.303 375.986C894.513 376.989 894.377 378.394 893.091 379.212C892.093 379.861 890.958 380.138 889.823 380.293C887.841 380.54 886.964 381.759 886.722 383.658C886.328 386.777 886.026 389.879 886.434 393.044C886.812 396.008 887.992 398.262 890.655 399.62C891.109 399.852 891.609 400.006 891.896 401.041ZM877.583 374.149C872.726 374.226 867.854 374.319 862.983 374.396C840.273 374.705 817.562 375.013 794.837 375.337C794.217 375.353 793.415 374.982 792.719 376.032C794.716 376.032 796.486 376.063 798.272 376.032C806.351 375.862 814.446 375.924 822.525 375.523C829.182 375.183 835.87 375.399 842.542 375.353C852.422 375.276 862.302 375.183 872.182 375.044C873.952 375.029 875.767 375.183 877.583 374.149ZM791.917 347.442C793.4 347.952 794.822 347.658 796.199 347.643C807.471 347.473 818.743 347.242 830.03 347.087C844.509 346.887 858.988 346.995 873.468 346.362C873.861 346.331 874.406 346.485 874.587 345.528C847.232 346.547 819.938 345.914 792.674 346.995C792.462 347.01 792.265 347.226 791.917 347.442ZM880.7 342.379C879.974 342.333 879.262 342.224 878.536 342.224C842.3 341.823 791.297 342.07 787.181 342.703C787.681 342.857 788.014 343.058 788.331 343.058C819.106 343.074 849.88 343.027 880.7 342.379ZM872.575 380.216C872.015 379.691 871.365 379.969 870.744 379.984C862.287 380.247 853.829 380.185 845.356 379.814C841.014 379.629 836.641 379.413 832.284 379.49C820.362 379.675 808.454 380 796.517 380.308C795.927 380.324 795.155 379.907 794.625 380.849C805.489 380.957 816.261 380.91 827.019 380.308C831.225 380.077 835.491 380.092 839.698 380.339C850.213 380.957 860.713 381.049 871.228 380.71C871.713 380.679 872.288 380.833 872.575 380.216ZM848.004 217.661C844.388 217.074 827.488 217.074 823.66 217.815C825.324 217.923 826.202 218.001 827.079 218.016C833.857 218.031 840.651 218.047 847.444 218.047C847.626 218.031 847.822 217.8 848.004 217.661ZM826.716 220.671C829.394 221.242 840.802 221.721 844.554 221.397C842.951 221.073 842.239 220.826 841.498 220.795C836.808 220.671 832.118 220.27 826.716 220.671ZM832.36 214.728C834.251 214.944 835.597 215.114 836.959 215.253C837.035 215.253 837.141 215.083 837.216 214.99C835.265 214.095 835.265 214.126 832.36 214.728Z" fill="#EAEAEA" fill-opacity="0.15"/>
<path d="M951.947 488.23C934.563 488.23 917.269 488.23 899.991 488.23C899.824 487.798 900.157 487.705 900.399 487.566C901.443 486.872 901.867 485.868 902.033 484.649C902.23 483.167 902.094 481.715 901.882 480.249C901.761 479.4 901.428 478.767 900.43 478.721C899.961 478.705 899.492 478.489 899.053 478.288C898.251 477.902 898.221 477.1 898.962 476.559C899.204 476.39 899.492 476.266 899.764 476.158C902.941 474.985 902.669 474.151 902.608 471.82C902.533 469.381 902.336 466.927 902.17 464.487C902.139 464.055 902.033 463.638 901.958 463.222C901.791 462.295 901.383 461.647 900.369 461.508C899.779 461.415 899.204 461.199 898.659 460.952C898.19 460.752 898.16 460.057 898.553 459.717C899.053 459.301 899.643 459.208 900.248 459.208C901.958 459.208 901.837 458.93 901.822 457.525C901.67 447.522 903.683 437.951 907.208 428.642C910.067 421.14 913.683 414.038 917.587 407.061C918.041 406.273 918.661 405.579 919.191 404.838C919.705 404.143 919.69 403.958 919.039 403.526C918.54 403.186 917.859 402.954 917.995 402.213C918.117 401.488 918.858 401.457 919.418 401.272C919.705 401.164 920.008 401.117 920.068 400.762C920.401 399.064 921.536 398.153 923.125 397.629C922.232 395.853 921.854 394.186 923.669 392.889C923.805 392.426 923.442 392.195 923.306 391.87C922.867 390.882 922.761 389.879 922.988 388.814C923.2 387.795 923.488 386.761 924.123 385.942C924.774 385.124 924.955 384.214 924.955 383.21C924.94 381.558 924.986 379.907 924.97 378.239C924.97 377.529 924.864 377.421 924.153 377.313C923.79 377.251 923.427 377.22 923.079 377.174C921.143 376.973 919.524 377.606 918.253 379.119C917.98 379.443 917.723 379.768 917.481 380.123C916.392 381.79 914.833 382.747 913.018 383.364C912.564 383.519 912.095 383.689 911.626 383.766C909.417 384.121 907.813 385.418 906.497 387.177C906.345 387.378 906.179 387.548 906.028 387.718C905.982 387.764 905.876 387.795 905.861 387.764C905.786 387.687 905.68 387.579 905.71 387.517C906.118 386.498 906.527 385.479 906.966 384.491C908.01 382.145 909.75 380.524 912.11 379.629C912.337 379.551 912.579 379.49 912.791 379.413C914.183 378.949 914.969 377.946 915.242 376.495C915.287 376.202 915.333 375.893 915.393 375.6C915.681 374.087 916.558 373.083 917.935 372.497C918.949 372.064 920.008 371.879 921.082 371.787C921.445 371.756 921.808 371.74 922.156 371.74C923.2 371.787 924.032 371.37 924.683 370.552C924.834 370.366 924.97 370.166 925.152 370.011C925.394 369.78 925.969 369.965 926.014 370.305C926.09 370.783 926.135 371.277 926.12 371.771C926.105 375.383 926.105 378.996 926.014 382.608C925.999 383.658 926.211 384.461 926.937 385.248C927.921 386.298 928.329 387.671 928.526 389.092C928.707 390.358 928.344 391.484 927.633 392.503C929.343 394.248 929.464 395.02 928.36 397.243C928.496 397.567 928.798 397.644 929.071 397.767C930.19 398.231 930.977 399.033 931.28 400.253C931.401 400.778 931.658 401.133 932.233 401.164C932.414 401.164 932.596 401.241 932.747 401.303C933.64 401.704 933.731 402.368 932.974 402.97C932.793 403.124 932.566 403.217 932.354 403.356C931.824 403.742 931.749 404.035 932.157 404.544C934.896 408.002 936.666 412.047 938.693 415.937C941.447 421.248 943.762 426.774 945.653 432.471C948.271 440.359 949.708 448.464 949.617 456.831C949.617 457.433 949.42 458.112 949.738 458.637C950.116 459.239 950.843 458.837 951.402 458.992C951.796 459.1 952.219 459.192 952.598 459.362C952.961 459.501 953.188 459.795 953.142 460.211C953.127 460.551 952.885 460.767 952.598 460.875C952.023 461.06 951.463 461.307 950.873 461.4C950.086 461.508 949.738 462.002 949.572 462.697C949.405 463.345 949.269 464.009 949.239 464.688C949.072 467.004 948.951 469.335 948.815 471.666C948.8 472.021 948.83 472.391 948.815 472.762C948.755 474.089 949.345 474.985 950.525 475.494C950.918 475.664 951.312 475.772 951.69 475.957C952.023 476.112 952.341 476.282 952.613 476.513C953.188 476.976 953.127 477.64 952.522 478.011C952.053 478.319 951.523 478.443 950.994 478.52C950.071 478.643 949.662 479.199 949.541 480.095C949.36 481.561 949.209 482.997 949.405 484.494C949.587 485.868 950.147 486.933 951.372 487.566C951.584 487.674 951.826 487.751 951.947 488.23ZM945.26 475.649C942.99 475.695 940.706 475.741 938.436 475.772C927.8 475.911 917.178 476.065 906.557 476.22C906.255 476.22 905.892 476.05 905.559 476.544C906.497 476.544 907.314 476.559 908.161 476.529C911.928 476.451 915.711 476.482 919.493 476.297C922.61 476.143 925.742 476.235 928.859 476.22C933.489 476.173 938.103 476.143 942.733 476.081C943.565 476.065 944.412 476.143 945.26 475.649ZM905.196 463.16C905.876 463.407 906.542 463.268 907.193 463.252C912.458 463.175 917.738 463.067 923.003 462.99C929.782 462.897 936.56 462.959 943.323 462.65C943.52 462.65 943.777 462.712 943.853 462.264C931.068 462.743 918.298 462.45 905.544 462.959C905.438 462.959 905.347 463.067 905.196 463.16ZM946.712 460.798C946.379 460.767 946.046 460.721 945.698 460.721C928.753 460.52 904.893 460.644 902.971 460.937C903.198 461.014 903.35 461.107 903.501 461.107C917.905 461.122 932.308 461.107 946.712 460.798ZM942.915 478.489C942.657 478.242 942.355 478.381 942.067 478.381C938.103 478.505 934.139 478.474 930.19 478.304C928.148 478.211 926.105 478.119 924.078 478.149C918.495 478.242 912.927 478.381 907.344 478.535C907.072 478.535 906.709 478.335 906.451 478.782C911.55 478.829 916.573 478.813 921.612 478.535C923.578 478.412 925.576 478.427 927.542 478.535C932.46 478.829 937.377 478.875 942.294 478.721C942.521 478.721 942.778 478.782 942.915 478.489ZM931.416 402.46C929.736 402.183 921.823 402.183 920.038 402.522C920.81 402.568 921.218 402.615 921.627 402.615C924.804 402.63 927.981 402.63 931.159 402.63C931.249 402.63 931.34 402.522 931.416 402.46ZM921.46 403.865C922.716 404.128 928.057 404.344 929.812 404.205C929.055 404.05 928.723 403.927 928.375 403.927C926.181 403.865 923.987 403.68 921.46 403.865ZM924.093 401.086C924.986 401.179 925.621 401.256 926.256 401.318C926.287 401.333 926.332 401.241 926.377 401.21C925.47 400.778 925.47 400.793 924.093 401.086Z" fill="#EAEAEA" fill-opacity="0.15"/>
<path d="M105.834 487.213C88.435 487.213 71.1566 487.213 53.8782 487.213C53.7118 486.78 54.0446 486.688 54.2716 486.533C55.3155 485.854 55.7543 484.851 55.9207 483.631C56.1174 482.149 55.9813 480.698 55.7694 479.232C55.6484 478.382 55.3004 477.75 54.3018 477.703C53.8479 477.688 53.3638 477.472 52.9401 477.271C52.1383 476.885 52.0929 476.082 52.8342 475.542C53.0763 475.372 53.3638 475.249 53.6361 475.141C56.8285 473.967 56.5411 473.134 56.4806 470.803C56.4049 468.364 56.2082 465.909 56.0418 463.47C56.0115 463.038 55.9056 462.621 55.83 462.204C55.6635 461.278 55.255 460.63 54.2413 460.491C53.6513 460.398 53.0763 460.182 52.5316 459.935C52.0626 459.734 52.0475 459.04 52.4409 458.7C52.925 458.268 53.5302 458.19 54.1203 458.19C55.83 458.19 55.7089 457.913 55.6938 456.508C55.5425 446.489 57.5548 436.933 61.0952 427.625C63.9396 420.122 67.5557 413.006 71.4744 406.043C71.9131 405.256 72.5334 404.561 73.0781 403.82C73.5774 403.126 73.5623 402.94 72.9117 402.508C72.4124 402.169 71.7316 401.922 71.8677 401.196C71.9888 400.47 72.7301 400.44 73.2899 400.254C73.5774 400.146 73.88 400.1 73.9405 399.729C74.2734 398.047 75.4081 397.136 76.9968 396.611C76.1041 394.836 75.741 393.169 77.5415 391.872C77.6928 391.393 77.3296 391.177 77.1783 390.853C76.7396 389.865 76.6337 388.846 76.8606 387.796C77.0724 386.762 77.3599 385.743 78.0105 384.925C78.646 384.107 78.8275 383.196 78.8275 382.193C78.8124 380.525 78.8578 378.874 78.8578 377.222C78.8426 376.496 78.7367 376.404 78.0256 376.296C77.6625 376.234 77.3145 376.203 76.9514 376.157C75.0299 375.956 73.411 376.589 72.1401 378.086C71.8677 378.426 71.5954 378.75 71.3533 379.105C70.264 380.772 68.7056 381.73 66.89 382.347C66.4361 382.501 65.9822 382.671 65.5131 382.733C63.289 383.103 61.6853 384.385 60.369 386.16C60.2328 386.361 60.0664 386.531 59.8999 386.7C59.8697 386.747 59.7486 386.762 59.7335 386.747C59.6578 386.67 59.5519 386.561 59.5822 386.5C59.9907 385.481 60.3992 384.462 60.838 383.459C61.882 381.112 63.6219 379.507 65.9822 378.611C66.2091 378.519 66.4512 378.472 66.6782 378.395C68.055 377.917 68.8569 376.929 69.1141 375.477C69.1746 375.184 69.2049 374.875 69.2654 374.582C69.568 373.069 70.4455 372.066 71.8072 371.479C72.8209 371.047 73.88 370.862 74.9542 370.754C75.3174 370.723 75.6805 370.707 76.0436 370.723C77.0724 370.754 77.9046 370.337 78.5552 369.534C78.7065 369.349 78.8426 369.148 79.0242 368.994C79.2663 368.762 79.8412 368.932 79.9017 369.287C79.9774 369.766 80.0076 370.26 79.9925 370.738C79.9774 374.366 79.9774 377.978 79.8866 381.591C79.8715 382.64 80.0833 383.443 80.8095 384.23C81.793 385.28 82.2015 386.639 82.4133 388.059C82.5949 389.34 82.2166 390.467 81.5055 391.486C83.2152 393.215 83.3362 394.002 82.2469 396.225C82.3679 396.534 82.6705 396.627 82.9429 396.735C84.0625 397.213 84.8492 398 85.1518 399.235C85.2729 399.76 85.5301 400.1 86.1202 400.146C86.2866 400.146 86.4681 400.223 86.6346 400.285C87.5121 400.687 87.6029 401.35 86.8464 401.952C86.6648 402.107 86.4379 402.199 86.2412 402.338C85.6965 402.724 85.6209 403.002 86.0294 403.527C88.783 406.985 90.5532 411.03 92.5655 414.92C95.3192 420.23 97.6341 425.757 99.5253 431.453C102.143 439.342 103.58 447.446 103.489 455.813C103.489 456.415 103.293 457.094 103.61 457.604C103.989 458.221 104.715 457.82 105.275 457.974C105.683 458.082 106.092 458.175 106.47 458.329C106.833 458.484 107.06 458.777 107.03 459.194C107 459.534 106.757 459.75 106.47 459.858C105.895 460.043 105.335 460.29 104.76 460.367C103.958 460.475 103.61 460.985 103.444 461.679C103.278 462.328 103.156 462.991 103.111 463.671C102.945 465.986 102.824 468.317 102.687 470.633C102.672 471.003 102.703 471.374 102.687 471.744C102.627 473.057 103.217 473.967 104.397 474.477C104.791 474.647 105.184 474.755 105.562 474.94C105.895 475.079 106.228 475.264 106.5 475.48C107.06 475.959 107 476.623 106.394 476.993C105.925 477.302 105.396 477.425 104.866 477.503C103.943 477.611 103.535 478.182 103.414 479.077C103.232 480.544 103.081 481.979 103.278 483.461C103.459 484.851 104.019 485.916 105.26 486.533C105.456 486.657 105.698 486.734 105.834 487.213ZM99.1319 474.631C96.8624 474.678 94.5778 474.708 92.3083 474.755C81.6871 474.894 71.0507 475.048 60.4295 475.202C60.1269 475.202 59.7638 475.033 59.4309 475.527C60.369 475.527 61.2011 475.542 62.0333 475.511C65.8157 475.434 69.5831 475.465 73.3656 475.28C76.4824 475.125 79.6143 475.218 82.731 475.202C87.3608 475.156 91.9755 475.11 96.6052 475.048C97.4374 475.048 98.2846 475.125 99.1319 474.631ZM59.0678 462.142C59.7486 462.374 60.4143 462.25 61.0649 462.235C66.3453 462.158 71.6105 462.05 76.8909 461.973C83.654 461.88 90.4322 461.942 97.2104 461.633C97.392 461.618 97.6492 461.695 97.74 461.247C84.94 461.726 72.1703 461.432 59.4158 461.942C59.325 461.942 59.2191 462.05 59.0678 462.142ZM100.584 459.781C100.252 459.75 99.9187 459.703 99.5707 459.703C82.6251 459.518 58.7652 459.626 56.8437 459.935C57.0706 459.997 57.2371 460.105 57.3884 460.105C71.777 460.105 86.1807 460.089 100.584 459.781ZM96.7868 477.472C96.5296 477.225 96.227 477.364 95.9395 477.364C91.9755 477.487 88.0265 477.456 84.0625 477.286C82.0351 477.209 79.9774 477.101 77.95 477.132C72.367 477.225 66.7992 477.379 61.2162 477.518C60.9439 477.518 60.5808 477.317 60.3236 477.765C65.4224 477.811 70.4455 477.796 75.4838 477.518C77.4507 477.41 79.4478 477.41 81.4147 477.518C86.332 477.811 91.2492 477.858 96.1665 477.703C96.3934 477.688 96.6657 477.765 96.7868 477.472ZM85.3031 401.443C83.6086 401.165 75.6956 401.15 73.9103 401.505C74.697 401.551 75.1055 401.597 75.5141 401.597C78.6913 401.613 81.8686 401.613 85.0459 401.613C85.1216 401.613 85.2124 401.505 85.3031 401.443ZM75.3476 402.832C76.5883 403.11 81.9292 403.326 83.6842 403.187C82.9429 403.033 82.61 402.91 82.262 402.91C80.0682 402.832 77.8592 402.663 75.3476 402.832ZM77.9802 400.054C78.8578 400.162 79.4932 400.239 80.1438 400.301C80.1741 400.316 80.2195 400.223 80.2497 400.193C79.3419 399.776 79.3419 399.776 77.9802 400.054Z" fill="#EAEAEA" fill-opacity="0.15"/>
<path d="M888.628 424.984C890.55 426.11 890.64 426.265 890.126 427.917C889.369 430.294 888.552 432.64 887.796 435.018C887.508 435.913 887.312 436.808 888.189 437.58C888.84 438.167 888.9 439.031 888.991 439.865C889.188 441.625 889.445 443.369 889.596 445.129C889.702 446.395 890.005 447.383 891.488 447.414C891.79 447.414 892.093 447.568 892.365 447.692C893.137 448.062 893.651 448.896 893.56 449.683C893.455 450.579 893.001 451.273 892.123 451.505C891.442 451.69 890.731 451.783 890.02 451.798C887.978 451.829 885.95 451.798 883.908 451.798C849.381 451.659 814.854 451.536 780.313 451.412C779.299 451.397 778.285 451.443 777.272 451.35C775.91 451.227 775.063 450.362 775.032 449.236C775.002 448.078 775.804 447.244 777.151 447.013C778.028 446.858 779.102 447.352 779.783 446.627C780.63 445.716 780.146 444.435 780.222 443.323C780.298 442.181 780.237 441.038 780.267 439.896C780.388 436.917 781.493 435.79 784.368 435.682C785.079 435.651 785.805 435.682 786.501 435.604C786.985 435.558 787.197 435.157 786.985 434.709C786.017 432.764 785.109 430.788 784.02 428.92C782.022 425.462 783.278 425.694 785.865 425.709C786.576 425.709 787.288 425.709 787.999 425.663C788.755 425.632 789.043 425.169 788.725 424.381C788.392 423.517 787.999 422.683 787.636 421.819C786.924 420.213 786.198 418.608 785.548 416.972C785.139 415.999 784.534 415.212 783.838 414.44C782.643 413.081 783.308 411.213 785.048 410.905C785.941 410.766 786.879 410.812 787.787 410.828C805.716 410.982 823.645 411.167 841.574 411.306C856.749 411.43 871.925 411.507 887.1 411.599C887.917 411.599 888.734 411.569 889.536 411.661C891.76 411.908 892.456 413.081 891.73 415.366C890.746 418.515 889.702 421.665 888.628 424.984ZM792.674 425.369C792.84 425.462 793.007 425.647 793.173 425.647C795.7 425.678 798.227 425.694 800.753 425.678C801.964 425.678 802.251 425.277 801.782 424.196C800.647 421.556 799.467 418.932 798.302 416.292C798.272 416.2 798.227 416.107 798.166 416.03C797.954 415.659 797.667 415.397 797.213 415.366C796.638 415.351 796.29 415.69 796.048 416.184C795.957 416.37 795.897 416.57 795.821 416.755C794.913 419.056 793.99 421.34 793.098 423.64C792.871 424.181 792.447 424.706 792.674 425.369ZM796.835 435.743C796.835 435.774 796.835 435.79 796.835 435.805C798.257 435.805 799.664 435.836 801.086 435.805C801.994 435.774 802.342 435.249 801.949 434.385C801.056 432.424 800.133 430.464 799.165 428.55C798.454 427.145 796.88 427.021 796.002 428.318C794.656 430.371 793.4 432.486 792.129 434.601C791.721 435.28 792.023 435.712 792.901 435.728C794.217 435.774 795.533 435.743 796.835 435.743ZM810.285 415.366C808.258 418.855 806.533 421.742 805.05 424.767C804.838 425.2 805.111 425.632 805.595 425.647C808.122 425.678 810.648 425.678 813.19 425.647C813.931 425.647 814.174 425.215 813.856 424.381C812.782 421.603 811.662 418.824 810.285 415.366ZM862.03 436.561C862.03 436.577 862.03 436.577 862.03 436.577C863.134 436.577 864.254 436.608 865.373 436.561C866.1 436.546 866.432 436.037 866.206 435.28C865.404 432.702 864.178 430.309 862.968 427.901C862.726 427.407 862.075 427.423 861.727 427.901C860.668 429.445 859.972 431.174 859.246 432.887C857.627 436.762 857.445 436.515 861.409 436.577C861.621 436.577 861.818 436.561 862.03 436.561ZM831.573 416.833C831.361 416.941 831.104 416.987 831.028 417.141C829.803 419.519 828.577 421.896 827.397 424.304C827.034 425.014 827.337 425.555 828.093 425.586C829.515 425.616 830.938 425.616 832.345 425.601C835.779 425.586 835.794 425.57 834.312 422.251C833.858 421.217 833.389 420.183 832.904 419.164C832.526 418.345 832.345 417.404 831.573 416.833ZM841.65 425.493C842.663 425.493 843.677 425.524 844.691 425.493C845.296 425.462 845.644 424.968 845.432 424.459C844.418 421.973 843.39 419.503 842.346 417.033C842.24 416.755 842.013 416.431 841.68 416.57C841.438 416.647 841.211 416.925 841.105 417.172C840.409 418.654 839.728 420.167 839.062 421.665C837.247 425.833 836.853 425.601 841.65 425.493ZM821.194 416.292C819.257 419.38 817.941 422.035 816.685 424.721C816.504 425.122 816.7 425.57 817.2 425.601C818.107 425.663 819.015 425.694 819.923 425.647C821.421 425.57 822.934 425.925 824.401 425.385C824.734 423.702 823.478 422.544 823.025 421.124C822.556 419.673 821.95 418.268 821.194 416.292ZM813.357 435.882C813.447 435.574 813.523 435.45 813.508 435.373C812.645 432.718 811.148 430.402 809.816 428.009C809.559 427.546 808.908 427.608 808.545 428.117C806.926 430.356 805.761 432.81 804.929 435.651C807.895 436.037 810.648 435.929 813.357 435.882ZM831.497 436.33C831.497 436.314 831.497 436.284 831.497 436.268C832.617 436.268 833.721 436.299 834.841 436.253C835.31 436.237 835.613 435.882 835.401 435.419C834.266 432.995 833.101 430.587 831.921 428.194C831.724 427.778 831.119 427.7 830.938 428.056C829.727 430.433 828.517 432.81 827.337 435.218C827.155 435.604 827.367 436.083 827.866 436.114C829.077 436.222 830.287 436.268 831.497 436.33ZM858.504 425.169C860.895 425.632 863.134 425.354 865.358 425.354C866.115 425.339 866.463 424.829 866.175 424.104C865.146 421.418 864.057 418.731 863.013 416.092C862.438 416.184 862.136 416.447 861.984 416.848C860.91 419.627 859.291 422.158 858.504 425.169ZM842.073 436.284C842.073 436.314 842.073 436.345 842.073 436.392C842.996 436.392 843.904 436.407 844.827 436.392C845.644 436.361 845.916 435.929 845.583 435.157C844.721 433.165 843.828 431.174 842.936 429.198C842.724 428.735 842.467 428.287 842.209 427.839C841.998 427.484 841.362 427.5 841.196 427.901C840.167 430.387 839.153 432.872 838.17 435.373C838.018 435.79 838.245 436.253 838.729 436.268C839.834 436.314 840.954 436.284 842.073 436.284ZM852.014 427.685C851.348 427.932 851.121 428.38 850.924 428.858C850.168 430.664 849.396 432.471 848.64 434.277C848.488 434.663 848.398 435.064 848.292 435.465C848.186 435.944 848.352 436.376 848.806 436.392C851 436.469 853.224 436.685 855.569 436.284C854.798 433.104 853.466 430.371 852.014 427.685ZM851.983 416.138C851.726 416.323 851.469 416.416 851.424 416.586C850.44 419.195 849.487 421.803 848.549 424.443C848.352 424.968 848.746 425.462 849.336 425.462C851.06 425.462 852.785 425.416 854.51 425.339C854.979 425.323 855.312 424.953 855.176 424.52C854.313 421.649 853.481 418.778 851.983 416.138ZM872.575 427.762C870.487 430.279 870.064 433.104 869.216 435.728C869.08 436.16 869.307 436.592 869.791 436.608C871.622 436.685 873.468 436.716 875.283 436.731C875.874 436.747 876.222 436.237 876.101 435.712C876.04 435.404 875.979 435.08 875.858 434.817C874.814 432.563 873.77 430.309 872.575 427.762ZM875.889 425.122C874.814 422.081 873.816 419.225 872.772 416.261C870.775 418.546 869.549 421.665 869.216 425.169C871.38 425.539 873.528 425.493 875.889 425.122ZM878.9 425.122C880.972 425.647 883.075 425.385 885.163 425.277C885.632 425.261 885.799 424.798 885.663 424.351C884.906 421.788 883.908 419.318 882.561 416.956C880.745 419.179 879.369 422.251 878.9 425.122ZM820.498 436.052C824.825 436.16 824.462 436.098 822.677 432.409C822.102 431.205 821.496 430.016 820.861 428.843C820.649 428.441 820.089 428.411 819.893 428.781C819.303 429.862 818.728 430.958 818.168 432.069C816.11 436.237 815.868 436.006 820.498 436.052ZM881.971 429.368C880.73 429.908 880.624 431.066 880.261 431.961C879.671 433.443 878.612 434.817 878.975 436.592C880.639 437.194 882.364 436.917 884.059 436.87C884.543 436.855 884.725 436.392 884.573 435.975C883.726 433.767 882.848 431.591 881.971 429.368Z" fill="#EAEAEA" fill-opacity="0.15"/>
<path d="M832.601 490.992C814.46 490.992 796.319 490.992 778.194 490.992C777.271 490.992 776.348 491.007 775.44 490.915C774.381 490.822 773.624 489.803 773.745 488.738C773.882 487.349 774.941 486.237 776.302 486.16C777.528 486.083 778.738 486.114 779.964 486.037C780.403 486.021 780.72 485.666 780.751 485.218C780.796 484.4 780.735 483.551 780.796 482.733C780.902 481.436 781.295 480.17 782.581 479.692C783.61 479.306 783.656 478.596 783.701 477.747C783.852 473.903 784.019 470.059 784.2 466.215C784.246 465.273 784.23 464.378 783.595 463.56C782.944 462.726 782.793 461.661 782.475 460.673C782.021 459.191 781.552 457.755 780.584 456.459C779.359 454.838 780.115 453.109 782.052 452.8C782.642 452.707 783.262 452.754 783.882 452.754C817.698 452.97 851.529 453.201 885.359 453.433C886.267 453.433 887.19 453.479 888.098 453.634C888.945 453.788 889.535 454.375 889.732 455.285C889.928 456.196 889.611 457.123 888.839 457.416C887.25 458.018 886.812 459.299 886.433 460.735C886.191 461.63 886.025 462.618 885.556 463.39C884.466 465.181 884.436 467.095 884.512 469.071C884.618 471.773 884.618 474.489 884.663 477.191C884.678 477.932 884.754 478.596 885.495 479.059C886.252 479.522 886.464 480.356 886.464 481.22C886.464 482.27 886.464 483.304 886.509 484.338C886.554 486.052 886.645 486.145 888.204 486.253C888.809 486.299 889.429 486.253 890.034 486.361C891.305 486.561 892.077 487.472 892.092 488.661C892.107 489.865 891.396 490.776 890.049 490.977C888.96 491.131 887.825 491.115 886.706 491.115C868.671 491.131 850.636 491.131 832.601 491.131C832.601 491.085 832.601 491.038 832.601 490.992ZM832.616 486.206C832.616 486.222 832.616 486.237 832.616 486.253C836.595 486.253 840.559 486.268 844.538 486.253C847.186 486.237 848.185 487.055 848.79 482.965C848.972 481.745 849.259 480.448 850.5 479.815C851.725 479.198 851.877 478.179 851.846 476.959C851.786 473.934 851.771 470.923 851.771 467.913C851.786 466.339 851.786 464.857 850.545 463.591C850.016 463.066 849.955 462.078 849.668 461.291C849.335 460.426 848.987 459.562 848.639 458.697C848.382 458.08 847.912 457.725 847.232 457.694C846.717 457.678 846.203 457.678 845.704 457.663C837.654 457.632 829.605 457.586 821.571 457.539C821.057 457.539 820.542 457.539 820.043 457.555C819.377 457.57 818.908 457.879 818.681 458.574C817.925 460.843 817.123 463.081 815.08 464.563C814.642 464.903 814.642 465.49 814.627 465.999C814.536 469.951 814.445 473.903 814.339 477.855C814.324 478.688 814.611 479.213 815.474 479.414C816.624 479.661 817.108 480.541 817.229 481.668C817.32 482.594 817.41 483.536 817.532 484.462C817.743 485.975 817.94 486.206 819.483 486.206C823.871 486.222 828.244 486.206 832.616 486.206ZM878.021 472.128C877.976 472.128 877.915 472.128 877.87 472.128C877.87 470.46 877.885 468.809 877.87 467.141C877.855 466.539 877.93 465.798 877.658 465.32C876.478 463.344 875.979 461.09 875.131 458.99C874.768 458.08 874.178 457.771 873.255 457.771C870.093 457.755 866.946 457.678 863.799 457.678C861.938 457.678 861.696 457.956 861.212 459.978C860.939 461.074 860.561 462.155 860.259 463.251C860.092 463.869 859.911 464.517 859.336 464.779C858.398 465.227 858.382 465.999 858.382 466.863C858.413 470.291 858.443 473.718 858.413 477.145C858.413 478.117 858.609 478.951 859.336 479.661C860.41 480.726 860.939 482.038 860.773 483.597C860.758 483.798 860.773 484.014 860.773 484.215C860.849 486.098 860.909 486.191 862.664 486.237C865.599 486.299 868.55 486.114 871.485 486.5C871.984 486.561 872.499 486.469 872.998 486.392C873.679 486.284 874.072 485.851 874.148 485.157C874.193 484.74 874.178 484.323 874.208 483.906C874.375 481.714 875.086 479.846 877.234 478.92C877.794 478.688 878.006 478.302 878.006 477.747C878.021 475.863 878.021 473.995 878.021 472.128ZM807.697 471.711C807.818 471.711 807.939 471.711 808.045 471.711C808.045 469.935 808.06 468.176 808.045 466.416C808.045 465.798 808.09 465.134 807.863 464.579C807.152 462.757 806.335 460.982 805.549 459.191C804.989 457.941 804.172 457.292 802.704 457.323C800.283 457.385 797.832 457.215 795.396 457.169C794.231 457.153 793.747 457.524 793.46 458.697C792.976 460.596 792.582 462.526 791.251 464.085C790.948 464.44 790.857 465.057 790.842 465.551C790.661 469.688 790.509 473.841 790.358 477.994C790.328 478.627 790.403 479.229 791.099 479.537C792.053 479.97 792.325 480.881 792.476 481.822C792.628 482.733 792.688 483.675 792.809 484.601C792.976 485.959 793.127 486.129 794.564 486.145C797.197 486.191 799.845 486.176 802.492 486.191C804.959 486.191 805.306 486.191 805.064 483.381C804.943 481.807 805.231 480.495 806.789 479.769C807.531 479.414 807.697 478.704 807.697 477.932C807.697 475.848 807.697 473.779 807.697 471.711Z" fill="#EAEAEA" fill-opacity="0.15"/>
<path d="M837.307 409.809C819.378 409.716 801.449 409.608 783.52 409.516C782.597 409.516 781.674 409.546 780.781 409.361C778.86 408.975 777.634 407.401 777.71 405.641C777.801 403.85 779.102 402.461 781.054 402.183C781.659 402.09 782.279 402.106 782.884 402.121C818.742 402.399 854.6 402.677 890.458 402.955C891.669 402.97 892.909 402.908 894.09 403.279C895.754 403.804 896.768 405.394 896.541 407.107C896.329 408.697 895.164 409.917 893.53 410.164C892.728 410.287 891.896 410.256 891.079 410.256C873.15 410.148 855.221 410.04 837.292 409.917C837.292 409.886 837.307 409.84 837.307 409.809Z" fill="#EAEAEA" fill-opacity="0.15"/>
<mask id="mask1_269_2730" style="mask-type:luminance" maskUnits="userSpaceOnUse" x="0" y="480" width="1001" height="218">
<path d="M0.892578 480.172H1000.67V697.359H0.892578V480.172Z" fill="white"/>
</mask>
<g mask="url(#mask1_269_2730)">
<path d="M1.28564 483.136H1000.24V697.328H1.28564V483.136Z" fill="#EAEAEA" fill-opacity="0.15"/>
</g>
</g>
</svg>
