<svg width="161" height="13" viewBox="0 0 161 13" fill="none" xmlns="http://www.w3.org/2000/svg">
<path d="M10.5188 0.297916V12.2313H8.54517L2.77368 4.10284H2.67201V12.2313H0.453125V0.297916H2.43876L8.20427 8.43217H8.31192V0.297916H10.5188Z" fill="white"/>
<path d="M21.1423 4.10866C21.0426 3.79402 20.905 3.51239 20.7296 3.26377C20.5582 3.01128 20.3508 2.79569 20.1076 2.617C19.8684 2.43831 19.5932 2.30429 19.2822 2.21494C18.9712 2.12171 18.6323 2.0751 18.2655 2.0751C17.6076 2.0751 17.0215 2.23631 16.5071 2.55873C15.9928 2.88115 15.5881 3.35506 15.293 3.98047C15.002 4.602 14.8564 5.35949 14.8564 6.25294C14.8564 7.15416 15.002 7.91747 15.293 8.54288C15.5841 9.1683 15.9888 9.64415 16.5071 9.97046C17.0255 10.2929 17.6275 10.4541 18.3133 10.4541C18.9354 10.4541 19.4736 10.3375 19.9282 10.1045C20.3867 9.8714 20.7396 9.54121 20.9868 9.11391C21.234 8.68273 21.3576 8.17774 21.3576 7.59894L21.86 7.67469H18.5346V5.9849H23.5047V7.4183C23.5047 8.43994 23.2814 9.32368 22.8349 10.0695C22.3883 10.8153 21.7743 11.3903 20.9928 11.7943C20.2113 12.1944 19.3141 12.3944 18.3014 12.3944C17.173 12.3944 16.1822 12.1477 15.3289 11.6544C14.4796 11.1572 13.8158 10.4521 13.3373 9.53927C12.8628 8.62252 12.6256 7.53484 12.6256 6.27625C12.6256 5.31288 12.7651 4.45245 13.0442 3.69496C13.3273 2.93747 13.7221 2.29458 14.2284 1.76628C14.7348 1.23409 15.3289 0.8301 16.0107 0.554297C16.6925 0.274609 17.4342 0.134766 18.2356 0.134766C18.9134 0.134766 19.5454 0.231879 20.1315 0.426107C20.7176 0.61645 21.238 0.888369 21.6925 1.24186C22.151 1.59536 22.5278 2.01489 22.8229 2.50046C23.1179 2.98603 23.3113 3.5221 23.403 4.10866H21.1423Z" fill="white"/>
<path d="M36.5952 6.26459C36.5952 7.55038 36.348 8.65165 35.8536 9.56841C35.3632 10.4813 34.6933 11.1805 33.844 11.6661C32.9988 12.1516 32.0398 12.3944 30.9673 12.3944C29.8947 12.3944 28.9338 12.1516 28.0845 11.6661C27.2392 11.1766 26.5694 10.4754 26.075 9.56258C25.5845 8.64582 25.3393 7.54649 25.3393 6.26459C25.3393 4.9788 25.5845 3.87948 26.075 2.96661C26.5694 2.04985 27.2392 1.34869 28.0845 0.863118C28.9338 0.377549 29.8947 0.134766 30.9673 0.134766C32.0398 0.134766 32.9988 0.377549 33.844 0.863118C34.6933 1.34869 35.3632 2.04985 35.8536 2.96661C36.348 3.87948 36.5952 4.9788 36.5952 6.26459ZM34.3644 6.26459C34.3644 5.35949 34.2188 4.59618 33.9278 3.97465C33.6407 3.34923 33.242 2.87726 32.7316 2.55873C32.2212 2.23631 31.6331 2.0751 30.9673 2.0751C30.3014 2.0751 29.7133 2.23631 29.2029 2.55873C28.6926 2.87726 28.2918 3.34923 28.0008 3.97465C27.7137 4.59618 27.5702 5.35949 27.5702 6.26459C27.5702 7.16969 27.7137 7.93495 28.0008 8.56036C28.2918 9.18189 28.6926 9.65387 29.2029 9.97628C29.7133 10.2948 30.3014 10.4541 30.9673 10.4541C31.6331 10.4541 32.2212 10.2948 32.7316 9.97628C33.242 9.65387 33.6407 9.18189 33.9278 8.56036C34.2188 7.93495 34.3644 7.16969 34.3644 6.26459Z" fill="white"/>
<path d="M49.5272 3.57842C49.4714 3.06955 49.2362 2.67332 48.8215 2.38975C48.4108 2.10618 47.8765 1.96439 47.2186 1.96439C46.7561 1.96439 46.3594 2.03237 46.0285 2.16833C45.6975 2.30429 45.4443 2.4888 45.2689 2.72188C45.0935 2.95495 45.0037 3.22104 44.9998 3.52016C44.9998 3.76877 45.0576 3.98436 45.1732 4.16693C45.2928 4.34951 45.4543 4.50489 45.6577 4.63308C45.861 4.75739 46.0863 4.86227 46.3335 4.94773C46.5807 5.03319 46.8299 5.10505 47.0811 5.16332L48.2294 5.44301C48.6919 5.54789 49.1365 5.68968 49.5631 5.86837C49.9937 6.04706 50.3785 6.27236 50.7174 6.54428C51.0603 6.8162 51.3315 7.14444 51.5308 7.52901C51.7302 7.91359 51.8299 8.36419 51.8299 8.88084C51.8299 9.58006 51.6464 10.1958 51.2796 10.7279C50.9128 11.2562 50.3825 11.67 49.6887 11.9691C48.9989 12.2643 48.1636 12.4119 47.1828 12.4119C46.2298 12.4119 45.4025 12.2682 44.7007 11.9807C44.003 11.6933 43.4567 11.2737 43.062 10.7221C42.6712 10.1705 42.4599 9.49848 42.428 8.70603H44.611C44.6429 9.12168 44.7745 9.46741 45.0057 9.74321C45.237 10.019 45.538 10.2249 45.9088 10.3609C46.2836 10.4968 46.7023 10.5648 47.1648 10.5648C47.6473 10.5648 48.0699 10.4949 48.4328 10.355C48.7996 10.2113 49.0867 10.0132 49.294 9.76069C49.5013 9.50431 49.607 9.2052 49.611 8.86336C49.607 8.5526 49.5133 8.29621 49.3299 8.09422C49.1465 7.88834 48.8893 7.71742 48.5584 7.58146C48.2314 7.44161 47.8486 7.31731 47.41 7.20854L46.0165 6.85893C45.0077 6.60643 44.2103 6.2238 43.6242 5.71104C43.042 5.1944 42.751 4.50877 42.751 3.65417C42.751 2.95107 42.9464 2.33537 43.3371 1.80707C43.7318 1.27877 44.2681 0.868946 44.9459 0.577604C45.6238 0.282378 46.3913 0.134766 47.2486 0.134766C48.1178 0.134766 48.8793 0.282378 49.5332 0.577604C50.1911 0.868946 50.7075 1.27488 51.0823 1.79541C51.4571 2.31206 51.6504 2.90639 51.6624 3.57842H49.5272Z" fill="white"/>
<path d="M64.7529 6.26459C64.7529 7.55038 64.5057 8.65165 64.0113 9.56841C63.5209 10.4813 62.851 11.1805 62.0017 11.6661C61.1565 12.1516 60.1975 12.3944 59.125 12.3944C58.0524 12.3944 57.0915 12.1516 56.2422 11.6661C55.3969 11.1766 54.7271 10.4754 54.2327 9.56258C53.7422 8.64582 53.497 7.54649 53.497 6.26459C53.497 4.9788 53.7422 3.87948 54.2327 2.96661C54.7271 2.04985 55.3969 1.34869 56.2422 0.863118C57.0915 0.377549 58.0524 0.134766 59.125 0.134766C60.1975 0.134766 61.1565 0.377549 62.0017 0.863118C62.851 1.34869 63.5209 2.04985 64.0113 2.96661C64.5057 3.87948 64.7529 4.9788 64.7529 6.26459ZM62.5221 6.26459C62.5221 5.35949 62.3765 4.59618 62.0855 3.97465C61.7984 3.34923 61.3997 2.87726 60.8893 2.55873C60.3789 2.23631 59.7908 2.0751 59.125 2.0751C58.4591 2.0751 57.871 2.23631 57.3606 2.55873C56.8503 2.87726 56.4495 3.34923 56.1585 3.97465C55.8714 4.59618 55.7279 5.35949 55.7279 6.26459C55.7279 7.16969 55.8714 7.93495 56.1585 8.56036C56.4495 9.18189 56.8503 9.65387 57.3606 9.97628C57.871 10.2948 58.4591 10.4541 59.125 10.4541C59.7908 10.4541 60.3789 10.2948 60.8893 9.97628C61.3997 9.65387 61.7984 9.18189 62.0855 8.56036C62.3765 7.93495 62.5221 7.16969 62.5221 6.26459Z" fill="white"/>
<path d="M77.3351 4.32426H75.0982C75.0344 3.96688 74.9168 3.65029 74.7454 3.37448C74.5739 3.0948 74.3606 2.85784 74.1054 2.66361C73.8502 2.46938 73.5592 2.32371 73.2322 2.2266C72.9093 2.1256 72.5604 2.0751 72.1856 2.0751C71.5197 2.0751 70.9296 2.23825 70.4153 2.56455C69.9009 2.88697 69.4982 3.36089 69.2071 3.9863C68.9161 4.60783 68.7705 5.36726 68.7705 6.26459C68.7705 7.17746 68.9161 7.9466 69.2071 8.57202C69.5022 9.19355 69.9049 9.66358 70.4153 9.98211C70.9296 10.2968 71.5177 10.4541 72.1796 10.4541C72.5464 10.4541 72.8893 10.4075 73.2083 10.3142C73.5313 10.2171 73.8203 10.0753 74.0755 9.88888C74.3347 9.70242 74.552 9.47323 74.7274 9.20132C74.9069 8.9294 75.0305 8.61863 75.0982 8.26902L77.3351 8.28068C77.2513 8.84782 77.0699 9.38 76.7908 9.87723C76.5157 10.3745 76.1549 10.8134 75.7083 11.1941C75.2617 11.5709 74.7394 11.8661 74.1413 12.0798C73.5432 12.2895 72.8794 12.3944 72.1497 12.3944C71.0732 12.3944 70.1122 12.1516 69.2669 11.6661C68.4217 11.1805 67.7558 10.4793 67.2693 9.56258C66.7829 8.64582 66.5397 7.54649 66.5397 6.26459C66.5397 4.9788 66.7849 3.87948 67.2753 2.96661C67.7658 2.04985 68.4336 1.34869 69.2789 0.863118C70.1242 0.377549 71.0811 0.134766 72.1497 0.134766C72.8315 0.134766 73.4655 0.227994 74.0516 0.414452C74.6377 0.600912 75.16 0.874774 75.6186 1.23604C76.0771 1.59342 76.4539 2.03237 76.7489 2.5529C77.048 3.06955 77.2434 3.66 77.3351 4.32426Z" fill="white"/>
<path d="M81.5859 0.297916V12.2313H79.3671V0.297916H81.5859Z" fill="white"/>
<path d="M85.5617 12.2313H83.1933L87.5055 0.297916H90.2447L94.5628 12.2313H92.1944L88.9229 2.74519H88.8272L85.5617 12.2313ZM85.6394 7.55232H92.0987V9.28872H85.6394V7.55232Z" fill="white"/>
<path d="M96.1761 12.2313V0.297916H98.395V10.4191H103.79V12.2313H96.1761Z" fill="white"/>
<path d="M112.471 12.2313L109.014 0.297916H111.4L113.607 9.0673H113.721L116.077 0.297916H118.248L120.611 9.07313H120.718L122.925 0.297916H125.312L121.855 12.2313H119.666L117.214 3.85811H117.118L114.66 12.2313H112.471Z" fill="white"/>
<path d="M137.137 6.26459C137.137 7.55038 136.89 8.65165 136.396 9.56841C135.905 10.4813 135.235 11.1805 134.386 11.6661C133.541 12.1516 132.582 12.3944 131.509 12.3944C130.437 12.3944 129.476 12.1516 128.627 11.6661C127.781 11.1766 127.111 10.4754 126.617 9.56258C126.127 8.64582 125.881 7.54649 125.881 6.26459C125.881 4.9788 126.127 3.87948 126.617 2.96661C127.111 2.04985 127.781 1.34869 128.627 0.863118C129.476 0.377549 130.437 0.134766 131.509 0.134766C132.582 0.134766 133.541 0.377549 134.386 0.863118C135.235 1.34869 135.905 2.04985 136.396 2.96661C136.89 3.87948 137.137 4.9788 137.137 6.26459ZM134.906 6.26459C134.906 5.35949 134.761 4.59618 134.47 3.97465C134.183 3.34923 133.784 2.87726 133.274 2.55873C132.763 2.23631 132.175 2.0751 131.509 2.0751C130.843 2.0751 130.255 2.23631 129.745 2.55873C129.235 2.87726 128.834 3.34923 128.543 3.97465C128.256 4.59618 128.112 5.35949 128.112 6.26459C128.112 7.16969 128.256 7.93495 128.543 8.56036C128.834 9.18189 129.235 9.65387 129.745 9.97628C130.255 10.2948 130.843 10.4541 131.509 10.4541C132.175 10.4541 132.763 10.2948 133.274 9.97628C133.784 9.65387 134.183 9.18189 134.47 8.56036C134.761 7.93495 134.906 7.16969 134.906 6.26459Z" fill="white"/>
<path d="M139.235 12.2313V0.297916H143.828C144.769 0.297916 145.559 0.457184 146.197 0.775717C146.839 1.09425 147.323 1.54097 147.65 2.11589C147.981 2.68692 148.146 3.35312 148.146 4.11449C148.146 4.87975 147.979 5.54401 147.644 6.10727C147.313 6.66664 146.825 7.09977 146.179 7.40665C145.533 7.70965 144.739 7.86114 143.798 7.86114H140.527V6.06648H143.499C144.05 6.06648 144.5 5.99267 144.851 5.84506C145.202 5.69356 145.461 5.47408 145.629 5.18663C145.8 4.89529 145.886 4.53791 145.886 4.11449C145.886 3.69108 145.8 3.32981 145.629 3.0307C145.457 2.72771 145.196 2.49852 144.845 2.34313C144.494 2.18387 144.042 2.10423 143.487 2.10423H141.454V12.2313H139.235ZM145.563 6.82397L148.595 12.2313H146.119L143.141 6.82397H145.563Z" fill="white"/>
<path d="M150.189 12.2313V0.297916H152.408V5.78097H152.557L157.336 0.297916H160.045L155.309 5.65278L160.087 12.2313H157.42L153.765 7.11531L152.408 8.6769V12.2313H150.189Z" fill="white"/>
</svg>
