<svg width="304" height="50" viewBox="0 0 304 50" fill="none" xmlns="http://www.w3.org/2000/svg">
<path d="M13.0095 7.5465C13.0095 8.98709 12.7431 10.2209 12.2102 11.2481C11.6816 12.2708 10.9596 13.0542 10.0443 13.5983C9.13324 14.1423 8.09972 14.4143 6.94372 14.4143C5.78772 14.4143 4.75204 14.1423 3.83669 13.5983C2.92564 13.0499 2.20368 12.2643 1.6708 11.2415C1.14222 10.2144 0.87793 8.98273 0.87793 7.5465C0.87793 6.10592 1.14222 4.87424 1.6708 3.85147C2.20368 2.82435 2.92564 2.03878 3.83669 1.49475C4.75204 0.950723 5.78772 0.678711 6.94372 0.678711C8.09972 0.678711 9.13324 0.950723 10.0443 1.49475C10.9596 2.03878 11.6816 2.82435 12.2102 3.85147C12.7431 4.87424 13.0095 6.10592 13.0095 7.5465ZM10.6051 7.5465C10.6051 6.53244 10.4483 5.67723 10.1345 4.98087C9.82513 4.28017 9.39539 3.75137 8.84532 3.39449C8.29525 3.03326 7.66138 2.85264 6.94372 2.85264C6.22605 2.85264 5.59218 3.03326 5.04212 3.39449C4.49205 3.75137 4.06016 4.28017 3.74645 4.98087C3.43703 5.67723 3.28233 6.53244 3.28233 7.5465C3.28233 8.56057 3.43703 9.41795 3.74645 10.1187C4.06016 10.815 4.49205 11.3438 5.04212 11.705C5.59218 12.0619 6.22605 12.2404 6.94372 12.2404C7.66138 12.2404 8.29525 12.0619 8.84532 11.705C9.39539 11.3438 9.82513 10.815 10.1345 10.1187C10.4483 9.41795 10.6051 8.56057 10.6051 7.5465Z" fill="white"/>
<path d="M15.2705 14.2315V0.861503H20.2211C21.2353 0.861503 22.0862 1.053 22.7737 1.436C23.4656 1.81899 23.9878 2.34561 24.3401 3.01585C24.6968 3.68174 24.8752 4.43902 24.8752 5.28771C24.8752 6.14509 24.6968 6.90673 24.3401 7.57262C23.9835 8.2385 23.457 8.76295 22.7609 9.14594C22.0647 9.52458 21.2073 9.71391 20.1889 9.71391H16.9078V7.72277H19.8666C20.4596 7.72277 20.9452 7.61831 21.3234 7.40941C21.7015 7.2005 21.9809 6.91326 22.1614 6.54767C22.3462 6.18208 22.4385 5.7621 22.4385 5.28771C22.4385 4.81331 22.3462 4.3955 22.1614 4.03427C21.9809 3.67303 21.6994 3.39232 21.3169 3.19211C20.9388 2.98756 20.451 2.88528 19.8537 2.88528H17.662V14.2315H15.2705Z" fill="white"/>
<path d="M26.9524 14.2315V0.861503H35.5386V2.89181H29.3439V6.52156H35.0939V8.55186H29.3439V12.2012H35.5902V14.2315H26.9524Z" fill="white"/>
<path d="M48.8273 0.861503V14.2315H46.7001L40.4796 5.1245H40.37V14.2315H37.9785V0.861503H40.1186L46.3327 9.97504H46.4487V0.861503H48.8273Z" fill="white"/>
<path d="M53.8246 0.861503V14.2315H51.4331V0.861503H53.8246Z" fill="white"/>
<path d="M67.2632 0.861503V14.2315H65.136L58.9155 5.1245H58.8059V14.2315H56.4144V0.861503H58.5545L64.7685 9.97504H64.8846V0.861503H67.2632Z" fill="white"/>
<path d="M78.7131 5.13102C78.6056 4.7785 78.4574 4.46296 78.2683 4.18442C78.0835 3.90152 77.86 3.65998 77.5979 3.45978C77.34 3.25957 77.0435 3.10942 76.7083 3.00932C76.3731 2.90487 76.0078 2.85264 75.6125 2.85264C74.9034 2.85264 74.2717 3.03326 73.7173 3.39449C73.163 3.75573 72.7268 4.2867 72.4088 4.9874C72.0951 5.68376 71.9382 6.53244 71.9382 7.53345C71.9382 8.54316 72.0951 9.39837 72.4088 10.0991C72.7225 10.7998 73.1587 11.3329 73.7173 11.6985C74.276 12.0597 74.9249 12.2404 75.6641 12.2404C76.3344 12.2404 76.9146 12.1098 77.4045 11.8487C77.8987 11.5875 78.279 11.2176 78.5455 10.7389C78.8119 10.2558 78.9451 9.68997 78.9451 9.04149L79.4866 9.12636H75.9026V7.23314H81.2593V8.83911C81.2593 9.98374 81.0186 10.9739 80.5373 11.8095C80.056 12.6451 79.3942 13.2892 78.5519 13.7419C77.7096 14.1902 76.7427 14.4143 75.6512 14.4143C74.435 14.4143 73.3671 14.1379 72.4474 13.5852C71.5321 13.0281 70.8166 12.2382 70.3009 11.2154C69.7895 10.1883 69.5338 8.96968 69.5338 7.55956C69.5338 6.48021 69.6842 5.51619 69.985 4.66751C70.2901 3.81883 70.7156 3.09854 71.2614 2.50664C71.8071 1.91039 72.4474 1.45776 73.1823 1.14875C73.9172 0.83539 74.7165 0.678711 75.5803 0.678711C76.3108 0.678711 76.992 0.787516 77.6237 1.00513C78.2554 1.21838 78.8162 1.52304 79.3061 1.91909C79.8003 2.31514 80.2064 2.78518 80.5244 3.32921C80.8424 3.87324 81.0509 4.47384 81.1497 5.13102H78.7131Z" fill="white"/>
<path d="M98.9232 0.861503V14.2315H96.796L90.5755 5.1245H90.4659V14.2315H88.0744V0.861503H90.2145L96.4286 9.97504H96.5446V0.861503H98.9232Z" fill="white"/>
<path d="M101.529 14.2315V0.861503H110.115V2.89181H103.921V6.52156H109.67V8.55186H103.921V12.2012H110.167V14.2315H101.529Z" fill="white"/>
<path d="M115.333 14.2315L111.608 0.861503H114.18L116.558 10.6866H116.681L119.22 0.861503H121.56L124.107 10.6932H124.223L126.601 0.861503H129.173L125.447 14.2315H123.088L120.445 4.85031H120.342L117.693 14.2315H115.333Z" fill="white"/>
<path d="M135.334 14.2315V0.861503H140.388C141.342 0.861503 142.135 1.01383 142.766 1.31849C143.402 1.61879 143.877 2.03007 144.191 2.55234C144.509 3.0746 144.668 3.66651 144.668 4.32804C144.668 4.87207 144.565 5.33775 144.359 5.7251C144.152 6.1081 143.875 6.41928 143.527 6.65865C143.179 6.89802 142.79 7.06994 142.36 7.17439V7.30495C142.829 7.33107 143.278 7.47687 143.708 7.74235C144.142 8.00349 144.496 8.37342 144.771 8.85217C145.046 9.33091 145.184 9.90975 145.184 10.5887C145.184 11.2807 145.018 11.9031 144.687 12.4558C144.356 13.0042 143.858 13.4372 143.192 13.7549C142.526 14.0726 141.688 14.2315 140.678 14.2315H135.334ZM137.726 12.2077H140.298C141.166 12.2077 141.791 12.0402 142.173 11.705C142.56 11.3656 142.754 10.9303 142.754 10.3994C142.754 10.0033 142.657 9.64645 142.463 9.32873C142.27 9.00667 141.995 8.75424 141.638 8.57145C141.282 8.3843 140.856 8.29073 140.362 8.29073H137.726V12.2077ZM137.726 6.54767H140.091C140.504 6.54767 140.876 6.47151 141.206 6.31918C141.537 6.1625 141.797 5.94271 141.986 5.65982C142.18 5.37257 142.277 5.0331 142.277 4.6414C142.277 4.12349 142.096 3.69697 141.735 3.36185C141.378 3.02673 140.848 2.85917 140.143 2.85917H137.726V6.54767Z" fill="white"/>
<path d="M147.264 14.2315V0.861503H152.215C153.229 0.861503 154.08 1.03994 154.767 1.39683C155.459 1.75371 155.981 2.25421 156.334 2.89834C156.691 3.53811 156.869 4.28452 156.869 5.13755C156.869 5.99494 156.688 6.73917 156.327 7.37024C155.971 7.99696 155.444 8.48223 154.748 8.82605C154.052 9.16553 153.197 9.33526 152.183 9.33526H148.657V7.32454H151.86C152.453 7.32454 152.939 7.24185 153.317 7.07646C153.695 6.90673 153.975 6.66083 154.155 6.33876C154.34 6.01235 154.432 5.61194 154.432 5.13755C154.432 4.66316 154.34 4.25841 154.155 3.92329C153.97 3.58381 153.689 3.32703 153.311 3.15294C152.932 2.9745 152.445 2.88528 151.847 2.88528H149.656V14.2315H147.264ZM154.084 8.17322L157.352 14.2315H154.684L151.473 8.17322H154.084Z" fill="white"/>
<path d="M160.766 14.2315H158.213L162.861 0.861503H165.813L170.467 14.2315H167.914L164.388 3.6034H164.285L160.766 14.2315ZM160.849 8.98926H167.811V10.9347H160.849V8.98926Z" fill="white"/>
<path d="M183.055 0.861503V14.2315H180.927L174.707 5.1245H174.597V14.2315H172.206V0.861503H174.346L180.56 9.97504H180.676V0.861503H183.055Z" fill="white"/>
<path d="M196.96 5.37257H194.55C194.481 4.97217 194.354 4.61746 194.169 4.30846C193.984 3.9951 193.755 3.72961 193.48 3.512C193.205 3.29439 192.891 3.13118 192.538 3.02238C192.19 2.90922 191.814 2.85264 191.41 2.85264C190.693 2.85264 190.057 3.03543 189.502 3.40102C188.948 3.76225 188.514 4.29322 188.2 4.99393C187.886 5.69028 187.73 6.54114 187.73 7.5465C187.73 8.56927 187.886 9.43101 188.2 10.1317C188.518 10.8281 188.952 11.3547 189.502 11.7116C190.057 12.0641 190.691 12.2404 191.404 12.2404C191.799 12.2404 192.169 12.1881 192.513 12.0837C192.861 11.9749 193.172 11.816 193.447 11.6071C193.727 11.3982 193.961 11.1414 194.15 10.8368C194.343 10.5321 194.477 10.1839 194.55 9.79224L196.96 9.8053C196.87 10.4407 196.675 11.037 196.374 11.5941C196.077 12.1511 195.688 12.6429 195.207 13.0695C194.726 13.4916 194.163 13.8224 193.518 14.0618C192.874 14.2968 192.158 14.4143 191.372 14.4143C190.211 14.4143 189.176 14.1423 188.265 13.5983C187.354 13.0542 186.636 12.2687 186.112 11.2415C185.587 10.2144 185.325 8.98273 185.325 7.5465C185.325 6.10592 185.59 4.87424 186.118 3.85147C186.647 2.82435 187.366 2.03878 188.278 1.49475C189.189 0.950723 190.22 0.678711 191.372 0.678711C192.107 0.678711 192.79 0.783163 193.422 0.992069C194.053 1.20098 194.616 1.50781 195.11 1.91256C195.605 2.31297 196.011 2.80477 196.329 3.38796C196.651 3.96681 196.862 4.62834 196.96 5.37257Z" fill="white"/>
<path d="M199.151 14.2315V0.861503H201.542V6.52156H207.659V0.861503H210.057V14.2315H207.659V8.55186H201.542V14.2315H199.151Z" fill="white"/>
<path d="M212.658 14.2315V0.861503H221.245V2.89181H215.05V6.52156H220.8V8.55186H215.05V12.2012H221.296V14.2315H212.658Z" fill="white"/>
<path d="M230.859 4.53695C230.799 3.96681 230.545 3.52288 230.098 3.20517C229.656 2.88746 229.08 2.7286 228.371 2.7286C227.872 2.7286 227.445 2.80477 227.088 2.95709C226.731 3.10942 226.458 3.31615 226.269 3.57728C226.08 3.83842 225.983 4.13654 225.979 4.47167C225.979 4.75021 226.042 4.99175 226.166 5.19631C226.295 5.40086 226.469 5.57495 226.688 5.71857C226.907 5.85784 227.15 5.97535 227.417 6.0711C227.683 6.16685 227.952 6.24737 228.222 6.31265L229.46 6.62601C229.959 6.74352 230.438 6.90238 230.898 7.10258C231.362 7.30278 231.776 7.55521 232.142 7.85986C232.511 8.16452 232.803 8.53228 233.018 8.96315C233.233 9.39402 233.341 9.89887 233.341 10.4777C233.341 11.2611 233.143 11.9509 232.748 12.5472C232.352 13.1391 231.781 13.6026 231.033 13.9377C230.29 14.2685 229.389 14.4339 228.332 14.4339C227.305 14.4339 226.413 14.2728 225.657 13.9508C224.905 13.6287 224.316 13.1587 223.891 12.5407C223.47 11.9227 223.242 11.1697 223.207 10.2819H225.56C225.595 10.7476 225.736 11.1349 225.986 11.4439C226.235 11.7529 226.559 11.9836 226.959 12.1359C227.363 12.2882 227.814 12.3644 228.313 12.3644C228.833 12.3644 229.288 12.2861 229.679 12.1294C230.075 11.9684 230.384 11.7464 230.608 11.4635C230.831 11.1762 230.945 10.8411 230.949 10.4581C230.945 10.11 230.844 9.82271 230.646 9.5964C230.449 9.36573 230.171 9.17423 229.815 9.0219C229.462 8.86522 229.05 8.72595 228.577 8.60409L227.075 8.21239C225.988 7.9295 225.128 7.5008 224.497 6.92631C223.869 6.34747 223.555 5.5793 223.555 4.62182C223.555 3.83406 223.766 3.14424 224.187 2.55234C224.613 1.96044 225.191 1.50128 225.921 1.17486C226.652 0.844095 227.479 0.678711 228.403 0.678711C229.34 0.678711 230.161 0.844095 230.865 1.17486C231.574 1.50128 232.131 1.95609 232.535 2.53928C232.939 3.11813 233.147 3.78401 233.16 4.53695H230.859Z" fill="white"/>
<path d="M251.772 7.5465C251.772 8.98709 251.505 10.2209 250.972 11.2481C250.444 12.2708 249.722 13.0542 248.806 13.5983C247.895 14.1423 246.862 14.4143 245.706 14.4143C244.55 14.4143 243.514 14.1423 242.599 13.5983C241.688 13.0499 240.966 12.2643 240.433 11.2415C239.904 10.2144 239.64 8.98273 239.64 7.5465C239.64 6.10592 239.904 4.87424 240.433 3.85147C240.966 2.82435 241.688 2.03878 242.599 1.49475C243.514 0.950723 244.55 0.678711 245.706 0.678711C246.862 0.678711 247.895 0.950723 248.806 1.49475C249.722 2.03878 250.444 2.82435 250.972 3.85147C251.505 4.87424 251.772 6.10592 251.772 7.5465ZM249.367 7.5465C249.367 6.53244 249.21 5.67723 248.897 4.98087C248.587 4.28017 248.158 3.75137 247.608 3.39449C247.057 3.03326 246.424 2.85264 245.706 2.85264C244.988 2.85264 244.354 3.03326 243.804 3.39449C243.254 3.75137 242.822 4.28017 242.509 4.98087C242.199 5.67723 242.045 6.53244 242.045 7.5465C242.045 8.56057 242.199 9.41795 242.509 10.1187C242.822 10.815 243.254 11.3438 243.804 11.705C244.354 12.0619 244.988 12.2404 245.706 12.2404C246.424 12.2404 247.057 12.0619 247.608 11.705C248.158 11.3438 248.587 10.815 248.897 10.1187C249.21 9.41795 249.367 8.56057 249.367 7.5465Z" fill="white"/>
<path d="M254.033 14.2315V0.861503H262.49V2.89181H256.424V6.52156H261.91V8.55186H256.424V14.2315H254.033Z" fill="white"/>
<path d="M268.591 2.89181V0.861503H279.124V2.89181H275.044V14.2315H272.672V2.89181H268.591Z" fill="white"/>
<path d="M281.155 14.2315V0.861503H283.546V6.52156H289.664V0.861503H292.061V14.2315H289.664V8.55186H283.546V14.2315H281.155Z" fill="white"/>
<path d="M294.662 14.2315V0.861503H303.249V2.89181H297.054V6.52156H302.804V8.55186H297.054V12.2012H303.3V14.2315H294.662Z" fill="white"/>
<path d="M85.0609 49.5849V36.2149H90.0115C91.0257 36.2149 91.8765 36.3933 92.5641 36.7502C93.256 37.1071 93.7781 37.6076 94.1305 38.2517C94.4872 38.8915 94.6656 39.6379 94.6656 40.4909C94.6656 41.3483 94.4851 42.0925 94.1241 42.7236C93.7674 43.3503 93.241 43.8356 92.5448 44.1794C91.8486 44.5189 90.9934 44.6886 89.9792 44.6886H86.4532V42.6779H89.6569C90.25 42.6779 90.7356 42.5952 91.1138 42.4298C91.4919 42.2601 91.7713 42.0142 91.9518 41.6921C92.1365 41.3657 92.2289 40.9653 92.2289 40.4909C92.2289 40.0165 92.1365 39.6118 91.9518 39.2766C91.767 38.9372 91.4855 38.6804 91.1073 38.5063C90.7291 38.3279 90.2414 38.2386 89.644 38.2386H87.4524V49.5849H85.0609ZM91.8808 43.5266L95.149 49.5849H92.4803L89.2702 43.5266H91.8808Z" fill="white"/>
<path d="M98.5622 49.5849H96.0096L100.657 36.2149H103.61L108.264 49.5849H105.711L102.185 38.9568H102.082L98.5622 49.5849ZM98.646 44.3426H105.608V46.2881H98.646V44.3426Z" fill="white"/>
<path d="M110.002 36.2149H112.929L116.848 45.9029H117.003L120.922 36.2149H123.849V49.5849H121.554V40.3995H121.431L117.783 49.5457H116.068L112.42 40.3799H112.297V49.5849H110.002V36.2149Z" fill="white"/>
<path d="M133.627 39.8903C133.567 39.3202 133.314 38.8762 132.867 38.5585C132.424 38.2408 131.848 38.082 131.139 38.082C130.641 38.082 130.213 38.1581 129.856 38.3105C129.5 38.4628 129.227 38.6695 129.038 38.9306C128.849 39.1918 128.752 39.4899 128.748 39.825C128.748 40.1036 128.81 40.3451 128.935 40.5497C129.064 40.7542 129.238 40.9283 129.457 41.0719C129.676 41.2112 129.919 41.3287 130.185 41.4245C130.452 41.5202 130.72 41.6007 130.991 41.666L132.229 41.9794C132.727 42.0969 133.206 42.2557 133.666 42.4559C134.13 42.6561 134.545 42.9086 134.91 43.2132C135.28 43.5179 135.572 43.8856 135.787 44.3165C136.002 44.7474 136.109 45.2522 136.109 45.8311C136.109 46.6145 135.912 47.3043 135.516 47.9006C135.121 48.4925 134.549 48.956 133.801 49.2911C133.058 49.6219 132.158 49.7872 131.101 49.7872C130.073 49.7872 129.182 49.6262 128.425 49.3041C127.673 48.9821 127.085 48.512 126.659 47.894C126.238 47.276 126.01 46.5231 125.976 45.6352H128.329C128.363 46.1009 128.505 46.4883 128.754 46.7973C129.003 47.1063 129.328 47.3369 129.728 47.4893C130.132 47.6416 130.583 47.7178 131.081 47.7178C131.601 47.7178 132.057 47.6394 132.448 47.4827C132.843 47.3217 133.153 47.0997 133.376 46.8169C133.6 46.5296 133.713 46.1945 133.718 45.8115C133.713 45.4633 133.612 45.1761 133.415 44.9498C133.217 44.7191 132.94 44.5276 132.583 44.3753C132.231 44.2186 131.818 44.0793 131.346 43.9574L129.844 43.5657C128.756 43.2829 127.897 42.8542 127.265 42.2797C126.638 41.7008 126.324 40.9327 126.324 39.9752C126.324 39.1874 126.535 38.4976 126.956 37.9057C127.381 37.3138 127.959 36.8546 128.69 36.5282C129.42 36.1975 130.248 36.0321 131.171 36.0321C132.108 36.0321 132.929 36.1975 133.634 36.5282C134.343 36.8546 134.899 37.3094 135.303 37.8926C135.707 38.4715 135.916 39.1374 135.929 39.8903H133.627Z" fill="white"/>
<path d="M138.241 49.5849V36.2149H146.827V38.2452H140.633V41.8749H146.383V43.9052H140.633V47.5545H146.879V49.5849H138.241Z" fill="white"/>
<path d="M160.116 36.2149V49.5849H157.989L151.768 40.4779H151.659V49.5849H149.267V36.2149H151.407L157.621 45.3284H157.737V36.2149H160.116Z" fill="white"/>
<path d="M164.417 49.5849H161.865L166.512 36.2149H169.465L174.119 49.5849H171.566L168.04 38.9568H167.937L164.417 49.5849ZM164.501 44.3426H171.463V46.2881H164.501V44.3426Z" fill="white"/>
<path d="M191.66 40.7259H189.249C189.181 40.3255 189.054 39.9708 188.869 39.6618C188.684 39.3485 188.454 39.083 188.179 38.8654C187.904 38.6477 187.59 38.4845 187.238 38.3757C186.89 38.2626 186.514 38.206 186.11 38.206C185.392 38.206 184.756 38.3888 184.202 38.7544C183.648 39.1156 183.214 39.6466 182.9 40.3473C182.586 41.0436 182.429 41.8945 182.429 42.8999C182.429 43.9226 182.586 44.7844 182.9 45.4851C183.218 46.1814 183.652 46.7081 184.202 47.0649C184.756 47.4175 185.39 47.5937 186.104 47.5937C186.499 47.5937 186.869 47.5415 187.212 47.437C187.56 47.3282 187.872 47.1694 188.147 46.9605C188.426 46.7516 188.661 46.4948 188.85 46.1901C189.043 45.8855 189.176 45.5373 189.249 45.1456L191.66 45.1587C191.57 45.7941 191.374 46.3903 191.074 46.9474C190.777 47.5045 190.388 47.9963 189.907 48.4228C189.425 48.845 188.863 49.1757 188.218 49.4151C187.573 49.6501 186.858 49.7677 186.071 49.7677C184.911 49.7677 183.875 49.4956 182.964 48.9516C182.053 48.4076 181.336 47.622 180.811 46.5949C180.287 45.5678 180.025 44.3361 180.025 42.8999C180.025 41.4593 180.289 40.2276 180.818 39.2048C181.346 38.1777 182.066 37.3921 182.977 36.8481C183.888 36.3041 184.92 36.0321 186.071 36.0321C186.806 36.0321 187.49 36.1365 188.121 36.3454C188.753 36.5543 189.316 36.8612 189.81 37.2659C190.304 37.6663 190.71 38.1581 191.028 38.7413C191.351 39.3202 191.561 39.9817 191.66 40.7259Z" fill="white"/>
<path d="M205.647 42.8999C205.647 44.3404 205.38 45.5743 204.847 46.6014C204.319 47.6242 203.597 48.4076 202.681 48.9516C201.77 49.4956 200.737 49.7677 199.581 49.7677C198.425 49.7677 197.389 49.4956 196.474 48.9516C195.563 48.4032 194.841 47.6177 194.308 46.5949C193.779 45.5678 193.515 44.3361 193.515 42.8999C193.515 41.4593 193.779 40.2276 194.308 39.2048C194.841 38.1777 195.563 37.3921 196.474 36.8481C197.389 36.3041 198.425 36.0321 199.581 36.0321C200.737 36.0321 201.77 36.3041 202.681 36.8481C203.597 37.3921 204.319 38.1777 204.847 39.2048C205.38 40.2276 205.647 41.4593 205.647 42.8999ZM203.242 42.8999C203.242 41.8858 203.085 41.0306 202.772 40.3342C202.462 39.6335 202.032 39.1047 201.482 38.7479C200.932 38.3866 200.298 38.206 199.581 38.206C198.863 38.206 198.229 38.3866 197.679 38.7479C197.129 39.1047 196.697 39.6335 196.384 40.3342C196.074 41.0306 195.919 41.8858 195.919 42.8999C195.919 43.9139 196.074 44.7713 196.384 45.472C196.697 46.1684 197.129 46.6972 197.679 47.0584C198.229 47.4153 198.863 47.5937 199.581 47.5937C200.298 47.5937 200.932 47.4153 201.482 47.0584C202.032 46.6972 202.462 46.1684 202.772 45.472C203.085 44.7713 203.242 43.9139 203.242 42.8999Z" fill="white"/>
<path d="M210.299 36.2149V49.5849H207.908V36.2149H210.299Z" fill="white"/>
<path d="M223.738 36.2149V49.5849H221.61L215.39 40.4779H215.28V49.5849H212.889V36.2149H215.029L221.243 45.3284H221.359V36.2149H223.738Z" fill="white"/>
</svg>
