<svg width="128" height="46" viewBox="0 0 128 46" fill="none" xmlns="http://www.w3.org/2000/svg">
<path d="M0.511719 12.5319V0.271142H5.03637C5.96329 0.271142 6.74097 0.434779 7.36939 0.762051C8.00174 1.08932 8.47895 1.5483 8.80102 2.13899C9.12701 2.72568 9.29001 3.41016 9.29001 4.19242C9.29001 4.97867 9.12505 5.66115 8.79512 6.23986C8.46913 6.81459 7.98799 7.25959 7.35171 7.57489C6.71544 7.8862 5.93383 8.04185 5.00691 8.04185H1.78428V6.19796H4.71234C5.25435 6.19796 5.69818 6.12213 6.04381 5.97046C6.38944 5.81481 6.64474 5.58931 6.8097 5.29397C6.97859 4.99463 7.06303 4.62745 7.06303 4.19242C7.06303 3.75739 6.97859 3.38621 6.8097 3.0789C6.64081 2.76759 6.38355 2.53211 6.03792 2.37247C5.69228 2.20883 5.2465 2.12701 4.70055 2.12701H2.69745V12.5319H0.511719ZM6.74489 6.97623L9.73187 12.5319H7.2928L4.35885 6.97623H6.74489Z" fill="white"/>
<path d="M12.8514 12.5319H10.5184L14.7661 0.271142H17.4644L21.7181 12.5319H19.385L16.1624 2.78555H16.0681L12.8514 12.5319ZM12.928 7.72456H19.2908V9.50859H12.928V7.72456Z" fill="white"/>
<path d="M23.3073 0.271142H25.982L29.564 9.15538H29.7054L33.2874 0.271142H35.9622V12.5319H33.8648V4.1086H33.7529L30.4183 12.4959H28.8512L25.5166 4.09064H25.4046V12.5319H23.3073V0.271142Z" fill="white"/>
<path d="M44.8995 3.64164C44.8445 3.11881 44.6128 2.71171 44.2043 2.42036C43.7998 2.12901 43.2735 1.98333 42.6254 1.98333C42.1698 1.98333 41.779 2.05318 41.453 2.19287C41.127 2.33256 40.8776 2.52213 40.7048 2.7616C40.532 3.00107 40.4436 3.27446 40.4397 3.58178C40.4397 3.83721 40.4966 4.05872 40.6105 4.2463C40.7284 4.43388 40.8874 4.59353 41.0877 4.72523C41.288 4.85295 41.51 4.96071 41.7535 5.04851C41.997 5.13632 42.2425 5.21015 42.4899 5.27002L43.6211 5.55738C44.0767 5.66514 44.5146 5.81082 44.9349 5.99441C45.359 6.178 45.7381 6.40949 46.0719 6.68886C46.4097 6.96824 46.6768 7.30549 46.8732 7.70061C47.0695 8.09573 47.1677 8.5587 47.1677 9.08952C47.1677 9.80793 46.9871 10.4405 46.6257 10.9873C46.2644 11.5301 45.742 11.9551 45.0586 12.2625C44.3791 12.5658 43.5563 12.7175 42.5901 12.7175C41.6514 12.7175 40.8364 12.5698 40.1451 12.2744C39.4578 11.9791 38.9197 11.5481 38.5308 10.9813C38.1459 10.4146 37.9378 9.72411 37.9063 8.90992H40.0567C40.0882 9.33697 40.2178 9.69218 40.4456 9.97555C40.6734 10.2589 40.9699 10.4705 41.3352 10.6101C41.7044 10.7498 42.1168 10.8197 42.5724 10.8197C43.0476 10.8197 43.464 10.7478 43.8214 10.6042C44.1827 10.4565 44.4655 10.2529 44.6697 9.99351C44.874 9.7301 44.9781 9.42278 44.982 9.07156C44.9781 8.75227 44.8858 8.48886 44.7051 8.28132C44.5244 8.06979 44.2711 7.89418 43.9451 7.75449C43.623 7.61081 43.246 7.4831 42.8139 7.37135L41.4412 7.01214C40.4475 6.75272 39.662 6.3596 39.0846 5.83277C38.5112 5.30195 38.2245 4.59752 38.2245 3.71947C38.2245 2.99708 38.4169 2.36449 38.8018 1.82169C39.1907 1.2789 39.719 0.857837 40.3867 0.558503C41.0544 0.255178 41.8104 0.103516 42.6549 0.103516C43.5111 0.103516 44.2613 0.255178 44.9054 0.558503C45.5535 0.857837 46.0621 1.27491 46.4313 1.80972C46.8005 2.34054 46.991 2.95118 47.0028 3.64164H44.8995Z" fill="white"/>
<path d="M49.1163 12.5319V0.271142H56.9638V2.133H51.3021V5.4616H56.5573V7.32345H51.3021V10.67H57.0109V12.5319H49.1163Z" fill="white"/>
<path d="M69.109 0.271142V12.5319H67.1649L61.4796 4.18044H61.3794V12.5319H59.1937V0.271142H61.1497L66.829 8.62855H66.9351V0.271142H69.109Z" fill="white"/>
<path d="M73.0401 12.5319H70.7071L74.9548 0.271142H77.6531L81.9068 12.5319H79.5738L76.3511 2.78555H76.2569L73.0401 12.5319ZM73.1167 7.72456H79.4795V9.50859H73.1167V7.72456Z" fill="white"/>
<path d="M97.9389 4.40794H95.7355C95.6727 4.04076 95.5568 3.71548 95.3879 3.43211C95.219 3.14475 95.0089 2.90129 94.7576 2.70173C94.5062 2.50218 94.2195 2.35251 93.8974 2.25273C93.5793 2.14896 93.2356 2.09708 92.8664 2.09708C92.2105 2.09708 91.6292 2.26471 91.1225 2.59996C90.6158 2.93122 90.2192 3.41814 89.9324 4.06071C89.6457 4.69929 89.5024 5.47955 89.5024 6.4015C89.5024 7.33942 89.6457 8.12966 89.9324 8.77223C90.2231 9.41081 90.6198 9.89373 91.1225 10.221C91.6292 10.5443 92.2085 10.7059 92.8605 10.7059C93.2218 10.7059 93.5596 10.658 93.8738 10.5622C94.192 10.4625 94.4767 10.3168 94.7281 10.1252C94.9834 9.93365 95.1974 9.69817 95.3703 9.41879C95.547 9.13941 95.6688 8.82012 95.7355 8.46092L97.9389 8.4729C97.8565 9.0556 97.6777 9.60238 97.4028 10.1132C97.1318 10.6241 96.7764 11.0751 96.3365 11.4662C95.8966 11.8534 95.382 12.1567 94.7929 12.3762C94.2037 12.5917 93.5498 12.6995 92.831 12.6995C91.7706 12.6995 90.824 12.45 89.9913 11.9512C89.1587 11.4523 88.5028 10.7319 88.0236 9.78997C87.5444 8.84806 87.3048 7.71857 87.3048 6.4015C87.3048 5.08044 87.5464 3.95096 88.0295 3.01304C88.5126 2.07114 89.1705 1.35074 90.0031 0.85185C90.8358 0.35296 91.7784 0.103516 92.831 0.103516C93.5027 0.103516 94.1272 0.199302 94.7045 0.390875C95.2819 0.582449 95.7964 0.863825 96.2481 1.235C96.6998 1.60218 97.0709 2.05318 97.3616 2.58799C97.6562 3.11881 97.8486 3.72546 97.9389 4.40794Z" fill="white"/>
<path d="M110.722 6.4015C110.722 7.72256 110.478 8.85405 109.991 9.79595C109.508 10.7339 108.848 11.4523 108.012 11.9512C107.179 12.45 106.235 12.6995 105.178 12.6995C104.122 12.6995 103.175 12.45 102.338 11.9512C101.506 11.4483 100.846 10.7279 100.359 9.78997C99.8758 8.84806 99.6342 7.71857 99.6342 6.4015C99.6342 5.08044 99.8758 3.95096 100.359 3.01304C100.846 2.07114 101.506 1.35074 102.338 0.85185C103.175 0.35296 104.122 0.103516 105.178 0.103516C106.235 0.103516 107.179 0.35296 108.012 0.85185C108.848 1.35074 109.508 2.07114 109.991 3.01304C110.478 3.95096 110.722 5.08044 110.722 6.4015ZM108.524 6.4015C108.524 5.47157 108.381 4.68732 108.094 4.04874C107.812 3.40617 107.419 2.92125 106.916 2.59398C106.413 2.26271 105.834 2.09708 105.178 2.09708C104.522 2.09708 103.943 2.26271 103.44 2.59398C102.937 2.92125 102.543 3.40617 102.256 4.04874C101.973 4.68732 101.832 5.47157 101.832 6.4015C101.832 7.33143 101.973 8.11769 102.256 8.76026C102.543 9.39884 102.937 9.88376 103.44 10.215C103.943 10.5423 104.522 10.7059 105.178 10.7059C105.834 10.7059 106.413 10.5423 106.916 10.215C107.419 9.88376 107.812 9.39884 108.094 8.76026C108.381 8.11769 108.524 7.33143 108.524 6.4015Z" fill="white"/>
<path d="M114.974 0.271142V12.5319H112.788V0.271142H114.974Z" fill="white"/>
<path d="M127.256 0.271142V12.5319H125.312L119.627 4.18044H119.527V12.5319H117.341V0.271142H119.297L124.976 8.62855H125.082V0.271142H127.256Z" fill="white"/>
<path d="M6.66609 44.952H2.57742V32.6913H6.74857C7.94651 32.6913 8.97555 32.9368 9.83571 33.4277C10.6998 33.9146 11.3636 34.615 11.827 35.529C12.2905 36.443 12.5222 37.5365 12.5222 38.8097C12.5222 40.0869 12.2885 41.1844 11.8211 42.1024C11.3577 43.0203 10.688 43.7248 9.81214 44.2157C8.9402 44.7066 7.89152 44.952 6.66609 44.952ZM4.76315 43.0303H6.56005C7.40056 43.0303 8.10165 42.8747 8.6633 42.5634C9.22496 42.2481 9.64718 41.7791 9.92997 41.1565C10.2128 40.5299 10.3542 39.7476 10.3542 38.8097C10.3542 37.8718 10.2128 37.0935 9.92997 36.4749C9.64718 35.8523 9.22888 35.3873 8.67509 35.08C8.12521 34.7687 7.4418 34.613 6.62485 34.613H4.76315V43.0303Z" fill="white"/>
<path d="M14.599 44.952V32.6913H22.4464V34.5532H16.7847V37.8818H22.0399V39.7436H16.7847V43.0902H22.4935V44.952H14.599Z" fill="white"/>
<path d="M26.2906 32.6913L29.4307 42.3419H29.5545L32.6887 32.6913H35.0924L30.8388 44.952H28.1405L23.8927 32.6913H26.2906Z" fill="white"/>
<path d="M36.6817 44.952V32.6913H44.5291V34.5532H38.8674V37.8818H44.1226V39.7436H38.8674V43.0902H44.5762V44.952H36.6817Z" fill="white"/>
<path d="M46.759 44.952V32.6913H48.9447V43.0902H54.2588V44.952H46.759Z" fill="white"/>
<path d="M66.4674 38.8217C66.4674 40.1427 66.2239 41.2742 65.7369 42.2161C65.2538 43.154 64.594 43.8724 63.7574 44.3713C62.9247 44.8702 61.9801 45.1197 60.9236 45.1197C59.867 45.1197 58.9205 44.8702 58.0839 44.3713C57.2512 43.8685 56.5914 43.1481 56.1044 42.2101C55.6213 41.2682 55.3797 40.1388 55.3797 38.8217C55.3797 37.5006 55.6213 36.3711 56.1044 35.4332C56.5914 34.4913 57.2512 33.7709 58.0839 33.272C58.9205 32.7731 59.867 32.5237 60.9236 32.5237C61.9801 32.5237 62.9247 32.7731 63.7574 33.272C64.594 33.7709 65.2538 34.4913 65.7369 35.4332C66.2239 36.3711 66.4674 37.5006 66.4674 38.8217ZM64.2699 38.8217C64.2699 37.8918 64.1266 37.1075 63.8398 36.4689C63.5571 35.8263 63.1643 35.3414 62.6616 35.0142C62.1588 34.6829 61.5795 34.5173 60.9236 34.5173C60.2677 34.5173 59.6883 34.6829 59.1856 35.0142C58.6829 35.3414 58.2881 35.8263 58.0014 36.4689C57.7186 37.1075 57.5772 37.8918 57.5772 38.8217C57.5772 39.7516 57.7186 40.5379 58.0014 41.1804C58.2881 41.819 58.6829 42.3039 59.1856 42.6352C59.6883 42.9625 60.2677 43.1261 60.9236 43.1261C61.5795 43.1261 62.1588 42.9625 62.6616 42.6352C63.1643 42.3039 63.5571 41.819 63.8398 41.1804C64.1266 40.5379 64.2699 39.7516 64.2699 38.8217Z" fill="white"/>
<path d="M68.5339 44.952V32.6913H73.0585C73.9854 32.6913 74.7631 32.8669 75.3915 33.2182C76.0239 33.5694 76.5011 34.0523 76.8232 34.6669C77.1492 35.2776 77.3122 35.972 77.3122 36.7503C77.3122 37.5365 77.1492 38.235 76.8232 38.8456C76.4972 39.4563 76.016 39.9372 75.3798 40.2884C74.7435 40.6356 73.9599 40.8093 73.0291 40.8093H70.0303V38.9833H72.7345C73.2765 38.9833 73.7203 38.8875 74.066 38.696C74.4116 38.5044 74.6669 38.241 74.8319 37.9057C75.0007 37.5705 75.0852 37.1853 75.0852 36.7503C75.0852 36.3153 75.0007 35.9321 74.8319 35.6008C74.6669 35.2696 74.4096 35.0122 74.0601 34.8286C73.7144 34.641 73.2687 34.5472 72.7227 34.5472H70.7196V44.952H68.5339Z" fill="white"/>
<path d="M79.2107 32.6913H81.8854L85.4674 41.5756H85.6088L89.1908 32.6913H91.8656V44.952H89.7682V36.5288H89.6563L86.3217 44.9161H84.7546L81.42 36.5108H81.3081V44.952H79.2107V32.6913Z" fill="white"/>
<path d="M94.2457 44.952V32.6913H102.093V34.5532H96.4315V37.8818H101.687V39.7436H96.4315V43.0902H102.14V44.952H94.2457Z" fill="white"/>
<path d="M114.238 32.6913V44.952H112.294L106.609 36.6006H106.509V44.952H104.323V32.6913H106.279L111.958 41.0487H112.064V32.6913H114.238Z" fill="white"/>
<path d="M116.09 34.5532V32.6913H125.716V34.5532H121.987V44.952H119.819V34.5532H116.09Z" fill="white"/>
</svg>
