<svg width="208" height="189" viewBox="0 0 208 189" fill="none" xmlns="http://www.w3.org/2000/svg">
<path fill-rule="evenodd" clip-rule="evenodd" d="M95.7653 185.107C72.4341 182.493 46.3578 186.559 28.4696 171.078C9.53056 154.675 -0.686795 127.942 0.537811 102.679C1.70594 78.3993 16.7629 56.6397 34.7722 40.6918C50.0072 27.1987 72.129 29.4947 91.1143 22.4793C109.592 15.658 124.667 -0.432544 144.318 0.225843C166.539 0.96954 193.319 6.51182 204.198 26.273C215.171 46.1988 196.292 69.6367 195.103 92.4402C194.079 111.585 205.732 131.134 197.745 148.491C189.371 166.668 171.089 178.281 152.483 184.958C134.213 191.509 115.031 187.258 95.7653 185.107Z" fill="#6B8093"/>
</svg>
