<svg width="118" height="15" viewBox="0 0 118 15" fill="none" xmlns="http://www.w3.org/2000/svg">
<path d="M4.69908 14.714L0.619629 0.394023H3.43572L6.04008 10.9173H6.17418L8.95498 0.394023H11.517L14.3049 10.9243H14.4319L17.0363 0.394023H19.8524L15.7729 14.714H13.1897L10.296 4.66626H10.1831L7.28227 14.714H4.69908Z" fill="white"/>
<path d="M21.668 14.714V0.394023H31.0691V2.5686H24.2865V6.45626H30.5821V8.63083H24.2865V12.5395H31.1255V14.714H21.668Z" fill="white"/>
<path d="M33.7405 14.714V0.394023H39.2739C40.3184 0.394023 41.1866 0.557175 41.8782 0.883477C42.5746 1.20512 43.0945 1.64563 43.438 2.205C43.7862 2.76438 43.9603 3.39834 43.9603 4.10688C43.9603 4.68956 43.8474 5.18834 43.6215 5.60321C43.3957 6.01342 43.0922 6.34671 42.7111 6.60309C42.3299 6.85948 41.9041 7.0436 41.4336 7.15548V7.29532C41.9465 7.32329 42.4382 7.47945 42.9087 7.7638C43.3839 8.04349 43.7721 8.43971 44.0732 8.95247C44.3744 9.46523 44.5249 10.0852 44.5249 10.8124C44.5249 11.5536 44.3438 12.2202 43.9815 12.8122C43.6192 13.3995 43.0734 13.8633 42.344 14.2036C41.6147 14.5439 40.6972 14.714 39.5915 14.714H33.7405ZM36.359 12.5465H39.1751C40.1255 12.5465 40.8101 12.367 41.2289 12.0081C41.6524 11.6445 41.8641 11.1783 41.8641 10.6096C41.8641 10.1854 41.7582 9.80319 41.5465 9.4629C41.3348 9.11796 41.0336 8.84759 40.6431 8.65181C40.2526 8.45137 39.7867 8.35114 39.2456 8.35114H36.359V12.5465ZM36.359 6.48423H38.9492C39.4009 6.48423 39.8079 6.40265 40.1702 6.2395C40.5325 6.07169 40.8172 5.83628 41.0242 5.53329C41.236 5.22563 41.3418 4.86204 41.3418 4.44251C41.3418 3.88779 41.1442 3.43097 40.749 3.07203C40.3584 2.7131 39.7773 2.53363 39.0057 2.53363H36.359V6.48423Z" fill="white"/>
<path d="M59.5882 4.33063C59.5223 3.71998 59.2447 3.24451 58.7554 2.90422C58.2707 2.56394 57.6402 2.39379 56.8639 2.39379C56.3181 2.39379 55.8499 2.47537 55.4594 2.63852C55.0688 2.80167 54.77 3.02309 54.563 3.30278C54.356 3.58247 54.2501 3.90178 54.2454 4.26071C54.2454 4.55904 54.3136 4.81775 54.4501 5.03684C54.5912 5.25593 54.7818 5.44239 55.0218 5.59622C55.2617 5.74539 55.5276 5.87125 55.8193 5.9738C56.111 6.07635 56.4051 6.16259 56.7015 6.23251L58.0567 6.56813C58.6025 6.69399 59.1271 6.86414 59.6306 7.07857C60.1387 7.29299 60.5928 7.56336 60.9927 7.88966C61.3974 8.21596 61.7173 8.60986 61.9526 9.07134C62.1879 9.53283 62.3055 10.0736 62.3055 10.6935C62.3055 11.5326 62.0891 12.2714 61.6562 12.9101C61.2233 13.544 60.5975 14.0405 59.7788 14.3994C58.9648 14.7537 57.979 14.9308 56.8215 14.9308C55.697 14.9308 54.7206 14.7583 53.8925 14.4134C53.0691 14.0684 52.4245 13.565 51.9586 12.9031C51.4975 12.2411 51.2482 11.4347 51.2105 10.4838H53.7866C53.8243 10.9825 53.9796 11.3974 54.2525 11.7284C54.5254 12.0593 54.8806 12.3064 55.3182 12.4695C55.7605 12.6327 56.2545 12.7143 56.8003 12.7143C57.3697 12.7143 57.8684 12.6304 58.2966 12.4626C58.7295 12.2901 59.0683 12.0523 59.313 11.7494C59.5576 11.4417 59.6823 11.0828 59.687 10.6726C59.6823 10.2996 59.5717 9.99198 59.3553 9.74958C59.1389 9.50253 58.8354 9.29742 58.4448 9.13427C58.059 8.96646 57.6073 8.81729 57.0897 8.68677L55.4452 8.26724C54.2548 7.96424 53.3138 7.50509 52.6221 6.88978C51.9351 6.2698 51.5916 5.44705 51.5916 4.42153C51.5916 3.5778 51.8222 2.83896 52.2833 2.205C52.7491 1.57104 53.382 1.07926 54.1819 0.729649C54.9818 0.375378 55.8875 0.198242 56.8992 0.198242C57.9249 0.198242 58.8236 0.375378 59.5953 0.729649C60.3716 1.07926 60.981 1.56638 61.4233 2.19102C61.8656 2.81099 62.0938 3.5242 62.1079 4.33063H59.5882Z" fill="white"/>
<path d="M64.6399 14.714V0.394023H74.041V2.5686H67.2584V6.45626H73.554V8.63083H67.2584V12.5395H74.0974V14.714H64.6399Z" fill="white"/>
<path d="M76.7124 14.714V0.394023H82.1328C83.2433 0.394023 84.1749 0.585144 84.9278 0.967384C85.6853 1.34962 86.257 1.88569 86.6428 2.57559C87.0334 3.26082 87.2286 4.06027 87.2286 4.97391C87.2286 5.89222 87.031 6.68933 86.6358 7.36525C86.2452 8.0365 85.6688 8.55625 84.9066 8.92451C84.1443 9.2881 83.208 9.4699 82.0976 9.4699H78.2369V7.3163H81.7447C82.394 7.3163 82.9257 7.22773 83.3397 7.0506C83.7538 6.8688 84.0596 6.60543 84.2573 6.26048C84.4596 5.91087 84.5608 5.48201 84.5608 4.97391C84.5608 4.46581 84.4596 4.0323 84.2573 3.67337C84.0549 3.30977 83.7467 3.03474 83.3327 2.84828C82.9186 2.65716 82.3846 2.56161 81.7305 2.56161H79.3309V14.714H76.7124ZM84.1796 8.22529L87.758 14.714H84.836L81.3212 8.22529H84.1796Z" fill="white"/>
<path d="M92.2574 0.394023V14.714H89.6389V0.394023H92.2574Z" fill="white"/>
<path d="M95.0929 14.714V0.394023H104.494V2.5686H97.7113V6.45626H104.007V8.63083H97.7113V12.5395H104.55V14.714H95.0929Z" fill="white"/>
<path d="M115.021 4.33063C114.955 3.71998 114.677 3.24451 114.188 2.90422C113.703 2.56394 113.073 2.39379 112.296 2.39379C111.751 2.39379 111.282 2.47537 110.892 2.63852C110.501 2.80167 110.203 3.02309 109.996 3.30278C109.789 3.58247 109.683 3.90178 109.678 4.26071C109.678 4.55904 109.746 4.81775 109.883 5.03684C110.024 5.25593 110.214 5.44239 110.454 5.59622C110.694 5.74539 110.96 5.87125 111.252 5.9738C111.544 6.07635 111.838 6.16259 112.134 6.23251L113.489 6.56813C114.035 6.69399 114.56 6.86414 115.063 7.07857C115.571 7.29299 116.025 7.56336 116.425 7.88966C116.83 8.21596 117.15 8.60986 117.385 9.07134C117.62 9.53283 117.738 10.0736 117.738 10.6935C117.738 11.5326 117.522 12.2714 117.089 12.9101C116.656 13.544 116.03 14.0405 115.211 14.3994C114.397 14.7537 113.412 14.9308 112.254 14.9308C111.13 14.9308 110.153 14.7583 109.325 14.4134C108.502 14.0684 107.857 13.565 107.391 12.9031C106.93 12.2411 106.681 11.4347 106.643 10.4838H109.219C109.257 10.9825 109.412 11.3974 109.685 11.7284C109.958 12.0593 110.313 12.3064 110.751 12.4695C111.193 12.6327 111.687 12.7143 112.233 12.7143C112.802 12.7143 113.301 12.6304 113.729 12.4626C114.162 12.2901 114.501 12.0523 114.746 11.7494C114.99 11.4417 115.115 11.0828 115.12 10.6726C115.115 10.2996 115.004 9.99198 114.788 9.74958C114.571 9.50253 114.268 9.29742 113.877 9.13427C113.492 8.96646 113.04 8.81729 112.522 8.68677L110.878 8.26724C109.687 7.96424 108.746 7.50509 108.055 6.88978C107.368 6.2698 107.024 5.44705 107.024 4.42153C107.024 3.5778 107.255 2.83896 107.716 2.205C108.182 1.57104 108.815 1.07926 109.614 0.729649C110.414 0.375378 111.32 0.198242 112.332 0.198242C113.357 0.198242 114.256 0.375378 115.028 0.729649C115.804 1.07926 116.414 1.56638 116.856 2.19102C117.298 2.81099 117.526 3.5242 117.54 4.33063H115.021Z" fill="white"/>
</svg>
